<svg xmlns="http://www.w3.org/2000/svg" viewBox="0 0 24 24" fill="none">
  <path d="M8 9.5a3.5 3.5 0 1 1 4 3.46V14a1 1 0 0 1-1 1 3.5 3.5 0 0 1-3.5-3.5" fill="var(--color-duotone-fill)"/>
  <path d="M8 9.5a3.5 3.5 0 1 1 4 3.46V14a1 1 0 0 1-1 1 3.5 3.5 0 0 1-3.5-3.5" stroke="currentColor" stroke-width="1.5" stroke-linecap="round" stroke-linejoin="round"/>
  <path d="M4 17c3.5 2.5 9.5 3 14 1" stroke="currentColor" stroke-width="1.5" stroke-linecap="round" stroke-linejoin="round"/>
  <path d="M16 16.5l2 1.5 0.5-2.5" stroke="currentColor" stroke-width="1.5" stroke-linecap="round" stroke-linejoin="round"/>
</svg>
