<svg xmlns="http://www.w3.org/2000/svg" viewBox="0 0 24 24" fill="none">
  <path d="M12 8c-1.5-2-4.5-2.5-6-1s-2.5 5-2 8 2.5 5 4.5 5.5c1 .25 2 0 3.5-.5 1.5.5 2.5.75 3.5.5 2-.5 3.5-2.5 4.5-5.5s.5-6.5-2-8-4.5-1-6 1Z" fill="var(--color-duotone-fill)"/>
  <path d="M12 8c-1.5-2-4.5-2.5-6-1s-2.5 5-2 8 2.5 5 4.5 5.5c1 .25 2 0 3.5-.5 1.5.5 2.5.75 3.5.5 2-.5 3.5-2.5 4.5-5.5s.5-6.5-2-8-4.5-1-6 1Z" stroke="currentColor" stroke-width="1.5" stroke-linejoin="round"/>
  <path d="M12 8V4" stroke="currentColor" stroke-width="1.5" stroke-linecap="round"/>
  <path d="M12 4.5c1.5-.5 3.5-.5 5 .5" stroke="currentColor" stroke-width="1.5" stroke-linecap="round"/>
</svg>
