<svg xmlns="http://www.w3.org/2000/svg" viewBox="0 0 24 24" fill="none">
  <path d="M5 7.5c1.5-.5 3-1.5 5-1 2.5.63 3.5 2 6 1.5 1.5-.3 3-.5 4 .5.5.5.5 1.5 0 2.5-.5 1-1 2-2 2.5-1.5.75-3 .5-4.5 1.5s-2.5 3-4.5 3.5c-1.5.38-3-.5-3.5-1.5S5 14 4 12.5c-.75-1.13-1.5-2-1.5-3S4 7.83 5 7.5Z" fill="var(--color-duotone-fill)"/>
  <path d="M5 7.5c1.5-.5 3-1.5 5-1 2.5.63 3.5 2 6 1.5 1.5-.3 3-.5 4 .5.5.5.5 1.5 0 2.5-.5 1-1 2-2 2.5-1.5.75-3 .5-4.5 1.5s-2.5 3-4.5 3.5c-1.5.38-3-.5-3.5-1.5S5 14 4 12.5c-.75-1.13-1.5-2-1.5-3S4 7.83 5 7.5Z" stroke="currentColor" stroke-width="1.5" stroke-linecap="round" stroke-linejoin="round"/>
  <path d="M8.5 10.5c1 1.5.5 3.5 0 5M12 9.5c.5 1.5.5 3.5-.5 5" stroke="currentColor" stroke-width="1.5" stroke-linecap="round" stroke-linejoin="round"/>
</svg>
