<svg xmlns="http://www.w3.org/2000/svg" viewBox="0 0 24 24" fill="none">
  <path d="M5.5 10A6.5 6.5 0 0 1 12 3.5v0A6.5 6.5 0 0 1 18.5 10v2.5c0 1.5.5 2.5 1.5 3.5H4c1-1 1.5-2 1.5-3.5V10Z" fill="var(--color-duotone-fill)"/>
  <path d="M5.5 10A6.5 6.5 0 0 1 12 3.5v0A6.5 6.5 0 0 1 18.5 10v2.5c0 1.5.5 2.5 1.5 3.5H4c1-1 1.5-2 1.5-3.5V10Z" stroke="currentColor" stroke-width="1.5" stroke-linejoin="round"/>
  <path d="M9.5 19a2.5 2.5 0 0 0 5 0" stroke="currentColor" stroke-width="1.5" stroke-linecap="round"/>
</svg>
