<svg xmlns="http://www.w3.org/2000/svg" viewBox="0 0 24 24" fill="none">
  <rect x="3" y="11" width="18" height="10" rx="1.5" fill="var(--color-duotone-fill)"/>
  <rect x="3" y="11" width="18" height="10" rx="1.5" stroke="currentColor" stroke-width="1.5" stroke-linejoin="round"/>
  <path d="M3 16h18" stroke="currentColor" stroke-width="1.5"/>
  <path d="M8 7v4M12 7v4M16 7v4" stroke="currentColor" stroke-width="1.5" stroke-linecap="round"/>
  <path d="M8 5a1 1 0 0 1-1-1c0-.83 1-2 1-2s1 1.17 1 2a1 1 0 0 1-1 1Z" stroke="currentColor" stroke-width="1.5" stroke-linejoin="round"/>
  <path d="M12 5a1 1 0 0 1-1-1c0-.83 1-2 1-2s1 1.17 1 2a1 1 0 0 1-1 1Z" stroke="currentColor" stroke-width="1.5" stroke-linejoin="round"/>
  <path d="M16 5a1 1 0 0 1-1-1c0-.83 1-2 1-2s1 1.17 1 2a1 1 0 0 1-1 1Z" stroke="currentColor" stroke-width="1.5" stroke-linejoin="round"/>
</svg>
