<svg xmlns="http://www.w3.org/2000/svg" viewBox="0 0 24 24" fill="none">
  <path d="M17 5.5v2H9a1 1 0 0 0-1 1v3H5a1 1 0 0 1-1-1v-5a1 1 0 0 1 1-1h11a1 1 0 0 1 1 1Z" fill="var(--color-duotone-fill)"/>
  <path d="M21 8.5v6a1 1 0 0 1-1 1h-2v3l-3.5-3H9a1 1 0 0 1-1-1v-6a1 1 0 0 1 1-1h11a1 1 0 0 1 1 1Z" fill="var(--color-duotone-fill)"/>
  <path d="M21 8.5v6a1 1 0 0 1-1 1h-2v3l-3.5-3H9a1 1 0 0 1-1-1v-6a1 1 0 0 1 1-1h11a1 1 0 0 1 1 1Z" stroke="currentColor" stroke-width="1.5" stroke-linecap="round" stroke-linejoin="round"/>
  <path d="M8 12.5H5a1 1 0 0 1-1-1v-6a1 1 0 0 1 1-1h11a1 1 0 0 1 1 1V8" stroke="currentColor" stroke-width="1.5" stroke-linecap="round" stroke-linejoin="round"/>
  <path d="M4 11.5H3v3l3.5-3" stroke="currentColor" stroke-width="1.5" stroke-linecap="round" stroke-linejoin="round"/>
</svg>
