<svg xmlns="http://www.w3.org/2000/svg" viewBox="0 0 24 24" fill="none">
  <path d="M3 5l2.5-.5 3 .5 2.5-.5 2.5.5 2.5 1 2 1.5 1 1.5.5 2-.5 1.5-1.5 1.5L16 15l-1.5 1.5-1 2-1.5 1.5-2 1-1.5-.5-1-1.5-.5-2 .5-1.5-1-1.5-.5-2v-2L5 8l-1-1L3 5Z" fill="var(--color-duotone-fill)"/>
  <path d="M3 5l2.5-.5 3 .5 2.5-.5 2.5.5 2.5 1 2 1.5 1 1.5.5 2-.5 1.5-1.5 1.5L16 15l-1.5 1.5-1 2-1.5 1.5-2 1-1.5-.5-1-1.5-.5-2 .5-1.5-1-1.5-.5-2v-2L5 8l-1-1L3 5Z" stroke="currentColor" stroke-width="1.5" stroke-linejoin="round"/>
  <path d="M4 7.5l-1 2 .5 1.5-.5 1" stroke="currentColor" stroke-width="1.5" stroke-linecap="round" stroke-linejoin="round"/>
</svg>
