<svg xmlns="http://www.w3.org/2000/svg" viewBox="0 0 24 24" fill="none">
  <path d="M5 7.5h10v12a1.5 1.5 0 0 1-1.5 1.5h-7A1.5 1.5 0 0 1 5 19.5V7.5Z" fill="var(--color-duotone-fill)"/>
  <path d="M5 7.5h10v12a1.5 1.5 0 0 1-1.5 1.5h-7A1.5 1.5 0 0 1 5 19.5V7.5Z" stroke="currentColor" stroke-width="1.5" stroke-linejoin="round"/>
  <path d="M5 7.5l1-4h8l1 4" stroke="currentColor" stroke-width="1.5" stroke-linecap="round" stroke-linejoin="round"/>
  <path d="M5 12.5h10" stroke="currentColor" stroke-width="1.5" stroke-linecap="round"/>
  <path d="M17 17l2-3h2.5l-2 3H17Z" stroke="currentColor" stroke-width="1.5" stroke-linejoin="round"/>
  <path d="M17 17l.5 3h3l-.5-3" stroke="currentColor" stroke-width="1.5" stroke-linejoin="round"/>
</svg>
