<svg xmlns="http://www.w3.org/2000/svg" viewBox="0 0 24 24" fill="none">
  <path d="M4.5 18.5c1-1.5 3-3 4.5-3.5L6.5 8.5C5 9 3 10.5 2.5 13c-.5 2.5.5 4.5 2 5.5Zm15 0c-1-1.5-3-3-4.5-3.5l2.5-6.5c1.5.5 3.5 2 4 4.5.5 2.5-.5 4.5-2 5.5Z" fill="var(--color-duotone-fill)"/>
  <path d="M4.5 18.5c1-1.5 3-3 4.5-3.5L6.5 8.5c-1.5.5-3.5 2-4 4.5-.5 2.5.5 4.5 2 5.5Z" stroke="currentColor" stroke-width="1.5" stroke-linecap="round" stroke-linejoin="round"/>
  <path d="M19.5 18.5c-1-1.5-3-3-4.5-3.5l2.5-6.5c1.5.5 3.5 2 4 4.5.5 2.5-.5 4.5-2 5.5Z" stroke="currentColor" stroke-width="1.5" stroke-linecap="round" stroke-linejoin="round"/>
  <path d="M9 15c1-.33 2-.5 3-.5s2 .17 3 .5" stroke="currentColor" stroke-width="1.5" stroke-linecap="round" stroke-linejoin="round"/>
  <path d="M6.5 8.5C8 5.5 10 4 12 4s4 1.5 5.5 4.5" stroke="currentColor" stroke-width="1.5" stroke-linecap="round" stroke-linejoin="round"/>
  <path d="M8.5 11c1.25-1 2.25-1.5 3.5-1.5s2.25.5 3.5 1.5" stroke="currentColor" stroke-width="1.5" stroke-linecap="round" stroke-linejoin="round"/>
  <path d="M4.5 18.5c2.5 1.5 5 2 7.5 2s5-.5 7.5-2" stroke="currentColor" stroke-width="1.5" stroke-linecap="round" stroke-linejoin="round"/>
</svg>
