<svg xmlns="http://www.w3.org/2000/svg" viewBox="0 0 24 24" fill="none">
  <path d="M10.25 5l1.75-2.5 1.75 2.5V16l-1.75 2-1.75-2V5Z" fill="var(--color-duotone-fill)"/>
  <path d="M4.5 11.5L6 10l1.5 1.5v6L6 19l-1.5-1.5v-6Z" fill="var(--color-duotone-fill)"/>
  <path d="M16.5 9.5L18 8l1.5 1.5v7.5L18 18.5l-1.5-1.5V9.5Z" fill="var(--color-duotone-fill)"/>
  <path d="M10.25 5l1.75-2.5 1.75 2.5V16l-1.75 2-1.75-2V5Z" stroke="currentColor" stroke-width="1.5" stroke-linejoin="round"/>
  <path d="M4.5 11.5L6 10l1.5 1.5v6L6 19l-1.5-1.5v-6Z" stroke="currentColor" stroke-width="1.5" stroke-linejoin="round"/>
  <path d="M16.5 9.5L18 8l1.5 1.5v7.5L18 18.5l-1.5-1.5V9.5Z" stroke="currentColor" stroke-width="1.5" stroke-linejoin="round"/>
  <path d="M3 21.5h18" stroke="currentColor" stroke-width="1.5" stroke-linecap="round"/>
</svg>
