<svg xmlns="http://www.w3.org/2000/svg" viewBox="0 0 24 24" fill="none">
  <path d="M12 13c-2.5 0-4.5 1.5-4.5 4 0 1.75 1 3 2.5 3.5.5.25 1.25.25 2 .25s1.5 0 2-.25c1.5-.5 2.5-1.75 2.5-3.5 0-2.5-2-4-4.5-4Z" fill="var(--color-duotone-fill)"/>
  <path d="M12 13c-2.5 0-4.5 1.5-4.5 4 0 1.75 1 3 2.5 3.5.5.25 1.25.25 2 .25s1.5 0 2-.25c1.5-.5 2.5-1.75 2.5-3.5 0-2.5-2-4-4.5-4Z" stroke="currentColor" stroke-width="1.5" stroke-linejoin="round"/>
  <path d="M10 16.5c0-.25.25-.5.5-.5M14 16.5c0-.25-.25-.5-.5-.5" stroke="currentColor" stroke-width="1.5" stroke-linecap="round"/>
  <path d="M11.25 19c.25.25.5.25.75.25s.5 0 .75-.25" stroke="currentColor" stroke-width="1.5" stroke-linecap="round" stroke-linejoin="round"/>
  <path d="M9.5 14.5l-1-1.5-1.5-.5" stroke="currentColor" stroke-width="1.5" stroke-linecap="round" stroke-linejoin="round"/>
  <path d="M14.5 14.5l1-1.5 1.5-.5" stroke="currentColor" stroke-width="1.5" stroke-linecap="round" stroke-linejoin="round"/>
  <path d="M7 12.5l-.5-2L5 9l.5-2L7 5.5 8.5 4l.5-1.5" stroke="currentColor" stroke-width="1.5" stroke-linecap="round" stroke-linejoin="round"/>
  <path d="M17 12.5l.5-2L19 9l-.5-2L17 5.5 15.5 4 15 2.5" stroke="currentColor" stroke-width="1.5" stroke-linecap="round" stroke-linejoin="round"/>
</svg>
