<svg xmlns="http://www.w3.org/2000/svg" viewBox="0 0 24 24" fill="none">
  <path d="M4.53 6.15c1-1 2.25-1.75 3.75-2.25 1.1-.33 2.3-.5 3.5-.5s2.4.17 3.5.5c1.5.5 2.75 1.25 3.75 2.25.1.1.2.25.22.4.5 3.5 1.03 7.35.28 10.85a.75.75 0 0 1-.3.45c-1.25 1-2.75 1.75-4.2 2.05a.5.5 0 0 1-.5-.2L14 18l-2 .5-2-.5-.75 1.3a.5.5 0 0 1-.5.2c-1.45-.3-2.95-1.05-4.2-2.05a.75.75 0 0 1-.3-.45c-.75-3.5-.22-7.35.28-10.85.02-.15.12-.3.22-.4Z" fill="var(--color-duotone-fill)"/>
  <path d="M8.5 3.5c-1.5.5-2.75 1.25-3.75 2.25-.1.1-.2.25-.22.4C4.03 9.65 3.5 13.5 4.25 17a.75.75 0 0 0 .3.45c1.25 1 2.75 1.75 4.2 2.05a.5.5 0 0 0 .5-.2l.75-1.3" stroke="currentColor" stroke-width="1.5" stroke-linecap="round" stroke-linejoin="round"/>
  <path d="M15.5 3.5c1.5.5 2.75 1.25 3.75 2.25.1.1.2.25.22.4.5 3.5 1.03 7.35.28 10.85a.75.75 0 0 1-.3.45c-1.25 1-2.75 1.75-4.2 2.05a.5.5 0 0 1-.5-.2L14 18" stroke="currentColor" stroke-width="1.5" stroke-linecap="round" stroke-linejoin="round"/>
  <path d="M8.5 3.5c1.1-.33 2.3-.5 3.5-.5s2.4.17 3.5.5" stroke="currentColor" stroke-width="1.5" stroke-linecap="round"/>
  <circle cx="9.25" cy="12.5" r="1.5" stroke="currentColor" stroke-width="1.5"/>
  <circle cx="14.75" cy="12.5" r="1.5" stroke="currentColor" stroke-width="1.5"/>
</svg>
