<svg xmlns="http://www.w3.org/2000/svg" viewBox="0 0 24 24" fill="none">
  <path d="M4.5 11.5c0-3.5 2-6.5 5-7.5l1-2h3l1 2c3 1 5 4 5 7.5v1c0 1-.25 2-.75 2.75L17 17l-.5 2.5a1 1 0 0 1-1 .75h-2a1 1 0 0 1-1-.75L12 17.5l-.5 2a1 1 0 0 1-1 .75H8.5a1 1 0 0 1-1-.75L7 17l-1.75-2.75c-.5-.75-.75-1.75-.75-2.75v-1Z" fill="var(--color-duotone-fill)"/>
  <path d="M4.5 11.5c0-3.5 2-6.5 5-7.5l1-2h3l1 2c3 1 5 4 5 7.5v1c0 1-.25 2-.75 2.75L17 17l-.5 2.5a1 1 0 0 1-1 .75h-2a1 1 0 0 1-1-.75L12 17.5l-.5 2a1 1 0 0 1-1 .75H8.5a1 1 0 0 1-1-.75L7 17l-1.75-2.75c-.5-.75-.75-1.75-.75-2.75v-1Z" stroke="currentColor" stroke-width="1.5" stroke-linejoin="round"/>
  <circle cx="9.5" cy="10" r="1" stroke="currentColor" stroke-width="1.5"/>
  <circle cx="14.5" cy="10" r="1" stroke="currentColor" stroke-width="1.5"/>
  <ellipse cx="12" cy="14" rx="2" ry="1.25" stroke="currentColor" stroke-width="1.5"/>
  <path d="M12 15.25v1.25" stroke="currentColor" stroke-width="1.5" stroke-linecap="round"/>
  <path d="M4.5 6L3 4.5" stroke="currentColor" stroke-width="1.5" stroke-linecap="round"/>
  <path d="M19.5 6L21 4.5" stroke="currentColor" stroke-width="1.5" stroke-linecap="round"/>
</svg>
