<svg xmlns="http://www.w3.org/2000/svg" viewBox="0 0 24 24" fill="none">
  <path d="M8.53 3.53l12 12a1.5 1.5 0 0 1 0 2.12l-3.18 3.18a1.5 1.5 0 0 1-2.12 0l-12-12a1.5 1.5 0 0 1 0-2.12l3.18-3.18a1.5 1.5 0 0 1 2.12 0Z" fill="var(--color-duotone-fill)"/>
  <path d="M8.53 3.53l12 12a1.5 1.5 0 0 1 0 2.12l-3.18 3.18a1.5 1.5 0 0 1-2.12 0l-12-12a1.5 1.5 0 0 1 0-2.12l3.18-3.18a1.5 1.5 0 0 1 2.12 0Z" stroke="currentColor" stroke-width="1.5" stroke-linecap="round" stroke-linejoin="round"/>
  <path d="M5.5 11.5l7 7" stroke="currentColor" stroke-width="1.5" stroke-linecap="round" stroke-linejoin="round"/>
  <path d="M12 20.83h9.5" stroke="currentColor" stroke-width="1.5" stroke-linecap="round"/>
</svg>
