<svg xmlns="http://www.w3.org/2000/svg" viewBox="0 0 24 24" fill="none">
  <path d="M14 2.5H6.5a1 1 0 0 0-1 1v17a1 1 0 0 0 1 1h11a1 1 0 0 0 1-1V7L14 2.5Z" fill="var(--color-duotone-fill)"/>
  <path d="M14 2.5H6.5a1 1 0 0 0-1 1v17a1 1 0 0 0 1 1h11a1 1 0 0 0 1-1V7L14 2.5Z" stroke="currentColor" stroke-width="1.5" stroke-linejoin="round"/>
  <path d="M14 2.5V7h4.5" stroke="currentColor" stroke-width="1.5" stroke-linecap="round" stroke-linejoin="round"/>
  <path d="M9 14.5h6" stroke="currentColor" stroke-width="1.5" stroke-linecap="round"/>
</svg>
