<svg xmlns="http://www.w3.org/2000/svg" viewBox="0 0 24 24" fill="none">
  <path d="M2.5 12c2-4 6-6.5 10.5-6.5 2.5 0 4 .75 5 2l3.5-2.5v6l-3.5-2.5c-1 1.25-2.5 2-5 2C8.5 18.5 4.5 16 2.5 12Z" fill="var(--color-duotone-fill)"/>
  <path d="M2.5 12c2-4 6-6.5 10.5-6.5 2.5 0 4 .75 5 2l3.5-2.5v6l-3.5-2.5c-1 1.25-2.5 2-5 2C8.5 18.5 4.5 16 2.5 12Z" stroke="currentColor" stroke-width="1.5" stroke-linejoin="round"/>
  <circle cx="16" cy="10.25" r="0.75" stroke="currentColor" stroke-width="1"/>
  <path d="M9 10.5C8.5 11 8.5 12 9 13" stroke="currentColor" stroke-width="1.5" stroke-linecap="round"/>
</svg>
