<svg xmlns="http://www.w3.org/2000/svg" viewBox="0 0 24 24" fill="none">
  <path d="M5 3.5h11.17a1 1 0 0 1 .71.29l3.33 3.33a1 1 0 0 1 .29.71V19a1.5 1.5 0 0 1-1.5 1.5H5A1.5 1.5 0 0 1 3.5 19V5A1.5 1.5 0 0 1 5 3.5Z" fill="var(--color-duotone-fill)"/>
  <path d="M5 3.5h11.17a1 1 0 0 1 .71.29l3.33 3.33a1 1 0 0 1 .29.71V19a1.5 1.5 0 0 1-1.5 1.5H5A1.5 1.5 0 0 1 3.5 19V5A1.5 1.5 0 0 1 5 3.5Z" stroke="currentColor" stroke-width="1.5" stroke-linejoin="round"/>
  <rect x="7" y="13.5" width="10" height="7" rx="0.5" stroke="currentColor" stroke-width="1.5" stroke-linejoin="round"/>
  <rect x="9" y="3.5" width="5" height="4" rx="0.5" stroke="currentColor" stroke-width="1.5" stroke-linejoin="round"/>
</svg>
