<svg xmlns="http://www.w3.org/2000/svg" viewBox="0 0 24 24" fill="none">
  <path d="M5.5 9.5h15a1 1 0 0 1 .97 1.24l-2 8A1 1 0 0 1 18.5 19.5H3.47a1 1 0 0 1-.97-1.24l2-8a1 1 0 0 1 .97-.76h.03Z" fill="var(--color-duotone-fill)"/>
  <path d="M4 20H2.5V6a1 1 0 0 1 1-1H9.09a1 1 0 0 1 .7.29L11.5 7H19a1 1 0 0 1 1 1v1.5" stroke="currentColor" stroke-width="1.5" stroke-linecap="round" stroke-linejoin="round"/>
  <path d="M5.5 9.5h15a1 1 0 0 1 .97 1.24l-2 8A1 1 0 0 1 18.5 19.5H3.47a1 1 0 0 1-.97-1.24l2-8a1 1 0 0 1 .97-.76h.03Z" stroke="currentColor" stroke-width="1.5" stroke-linejoin="round"/>
</svg>
