<svg xmlns="http://www.w3.org/2000/svg" viewBox="0 0 24 24" fill="none">
  <path d="M4.25 12c2-4.1 13.5-4.1 15.5 0-2 4.1-13.5 4.1-15.5 0Z" fill="var(--color-duotone-fill)"/>
  <path d="M4.25 12c2-4.1 13.5-4.1 15.5 0-2 4.1-13.5 4.1-15.5 0Z" stroke="currentColor" stroke-width="1.5" stroke-linejoin="round"/>
  <path d="M7.15 9.25c.76.78 1.29 1.76 1.55 2.75-.26.99-.79 1.97-1.55 2.75" stroke="currentColor" stroke-width="1.5" stroke-linecap="round" stroke-linejoin="round"/>
  <path d="M16.85 9.25c-.76.78-1.29 1.76-1.55 2.75.26.99.79 1.97 1.55 2.75" stroke="currentColor" stroke-width="1.5" stroke-linecap="round" stroke-linejoin="round"/>
  <path d="M9 12h6" stroke="currentColor" stroke-width="1.5" stroke-linecap="round"/>
  <path d="M10 11v2M11 11.2v1.6M12 11.35v1.3M13 11.2v1.6M14 11v2" stroke="currentColor" stroke-width="1.5" stroke-linecap="round"/>
</svg>
