<svg xmlns="http://www.w3.org/2000/svg" viewBox="0 0 24 24" fill="none">
  <path d="M7 15V9.5a1.5 1.5 0 0 1 3 0V11l.5-.5V9.5a1.5 1.5 0 0 1 3 0V11l.5-.5v-1a1.5 1.5 0 0 1 3 0v2l.5-.5a1.5 1.5 0 0 1 1.5 1.5v2.5a7 7 0 0 1-7 7h-1a7 7 0 0 1-5.87-3.21l-2.13-3.29a1.5 1.5 0 0 1 2.5-1.66L7 15Z" fill="var(--color-duotone-fill)"/>
  <path d="M9.5 11V9.5a1.5 1.5 0 0 1 3 0V11" stroke="currentColor" stroke-width="1.5" stroke-linecap="round" stroke-linejoin="round"/>
  <path d="M12.5 10v-1a1.5 1.5 0 0 1 3 0v2" stroke="currentColor" stroke-width="1.5" stroke-linecap="round" stroke-linejoin="round"/>
  <path d="M15.5 10.5a1.5 1.5 0 0 1 3 0V14a7 7 0 0 1-7 7h-1a7 7 0 0 1-5.87-3.21l-2.13-3.29a1.5 1.5 0 0 1 2.5-1.66L7 15V9.5a1.5 1.5 0 0 1 3 0V11" stroke="currentColor" stroke-width="1.5" stroke-linecap="round" stroke-linejoin="round"/>
</svg>
