<svg xmlns="http://www.w3.org/2000/svg" viewBox="0 0 24 24" fill="none">
  <path d="M2 9.5 12 5l10 4.5L12 14 2 9.5Z" fill="var(--color-duotone-fill)"/>
  <path d="M6.5 11.75v5.5c0 .5.25 1 .75 1.32C8.5 19.4 10.08 20 12 20s3.5-.6 4.75-1.43c.5-.32.75-.82.75-1.32v-5.5" fill="var(--color-duotone-fill)"/>
  <path d="M2 9.5 12 5l10 4.5L12 14 2 9.5Z" stroke="currentColor" stroke-width="1.5" stroke-linejoin="round"/>
  <path d="M6.5 11.75v5.5c0 .5.25 1 .75 1.32C8.5 19.4 10.08 20 12 20s3.5-.6 4.75-1.43c.5-.32.75-.82.75-1.32v-5.5" stroke="currentColor" stroke-width="1.5" stroke-linecap="round" stroke-linejoin="round"/>
  <path d="M20 9.5v6" stroke="currentColor" stroke-width="1.5" stroke-linecap="round"/>
</svg>
