<svg xmlns="http://www.w3.org/2000/svg" viewBox="0 0 24 24" fill="none">
  <path d="M15.54 4.1l4.36 4.36a1 1 0 0 1 0 1.41l-1.77 1.77a1 1 0 0 1-1.41 0L12.36 7.28a1 1 0 0 1 0-1.41l1.77-1.77a1 1 0 0 1 1.41 0Z" fill="var(--color-duotone-fill)"/>
  <path d="M15.54 4.1l4.36 4.36a1 1 0 0 1 0 1.41l-1.77 1.77a1 1 0 0 1-1.41 0L12.36 7.28a1 1 0 0 1 0-1.41l1.77-1.77a1 1 0 0 1 1.41 0Z" stroke="currentColor" stroke-width="1.5" stroke-linejoin="round"/>
  <path d="M12.36 11.64L4.29 19.71a1 1 0 0 1-1.41 0l-.59-.59a1 1 0 0 1 0-1.41l8.07-8.07" stroke="currentColor" stroke-width="1.5" stroke-linecap="round" stroke-linejoin="round"/>
</svg>
