<svg xmlns="http://www.w3.org/2000/svg" viewBox="0 0 24 24" fill="none">
  <path d="M12 6.5C10.5 3.5 7 2.5 4.75 4.75 2.5 7 2.5 10.5 4.75 13L12 20.5l7.25-7.5C21.5 10.5 21.5 7 19.25 4.75 17 2.5 13.5 3.5 12 6.5Z" fill="var(--color-duotone-fill)"/>
  <path d="M12 6.5C10.5 3.5 7 2.5 4.75 4.75 2.5 7 2.5 10.5 4.75 13L12 20.5l7.25-7.5C21.5 10.5 21.5 7 19.25 4.75 17 2.5 13.5 3.5 12 6.5Z" stroke="currentColor" stroke-width="1.5" stroke-linecap="round" stroke-linejoin="round"/>
  <path d="M4 12h3l1.5-2.5 3 5 2-3.5L15 12h5" stroke="currentColor" stroke-width="1.5" stroke-linecap="round" stroke-linejoin="round"/>
</svg>
