<svg xmlns="http://www.w3.org/2000/svg" viewBox="0 0 24 24" fill="none">
  <path d="M3.5 10.25V19.5a1 1 0 0 0 1 1h15a1 1 0 0 0 1-1V10.25a1 1 0 0 0-.36-.77L12.39 3.1a.6.6 0 0 0-.78 0L3.86 9.48a1 1 0 0 0-.36.77Z" fill="var(--color-duotone-fill)"/>
  <path d="M3.5 10.25V19.5a1 1 0 0 0 1 1H9v-5.25a1 1 0 0 1 1-1h4a1 1 0 0 1 1 1V20.5h4.5a1 1 0 0 0 1-1V10.25a1 1 0 0 0-.36-.77L12.39 3.1a.6.6 0 0 0-.78 0L3.86 9.48a1 1 0 0 0-.36.77Z" stroke="currentColor" stroke-width="1.5" stroke-linecap="round" stroke-linejoin="round"/>
</svg>
