<svg xmlns="http://www.w3.org/2000/svg" viewBox="0 0 24 24" fill="none">
  <path d="M7 10.5c0-2.5 1.5-4 5-4s5 1.5 5 4v6.5a3 3 0 0 1-3 3h-4a3 3 0 0 1-3-3v-6.5Z" fill="var(--color-duotone-fill)"/>
  <path d="M7 10.5c0-2.5 1.5-4 5-4s5 1.5 5 4v6.5a3 3 0 0 1-3 3h-4a3 3 0 0 1-3-3v-6.5Z" stroke="currentColor" stroke-width="1.5" stroke-linejoin="round"/>
  <path d="M8.5 6.5h7a1 1 0 0 0 1-1v-1a1 1 0 0 0-1-1h-7a1 1 0 0 0-1 1v1a1 1 0 0 0 1 1Z" stroke="currentColor" stroke-width="1.5" stroke-linejoin="round"/>
  <path d="M10 13.5h4" stroke="currentColor" stroke-width="1.5" stroke-linecap="round"/>
  <path d="M18.5 9v2.5a1 1 0 0 0 1 1h0a1 1 0 0 0 1-1V9.5a2 2 0 0 0-2-2h-1" stroke="currentColor" stroke-width="1.5" stroke-linecap="round" stroke-linejoin="round"/>
</svg>
