<svg xmlns="http://www.w3.org/2000/svg" viewBox="0 0 24 24" fill="none">
  <path d="M17.5 3c-.5 1-1.5 2-3 2.5-.75.25-1.5.75-2 1.5L11 9.5c-.75 1.25-2 2-3.5 2H6c-1.1 0-2 .9-2 2v1c0 1.5.5 3 1.5 4l2 2c.5.5 1 .75 1.5.75h5c.5 0 1.5-.5 1.5-1.5 0-1.5-.5-3-1.5-4L12.5 14l2.5-1.5c1-.25 2-1 2.5-2l1-2 2.25-.75c.5-.25.5-.75.25-1.25L19.5 4.25C19 3.5 18.25 3 17.5 3Z" fill="var(--color-duotone-fill)"/>
  <path d="M17.5 3c-.5 1-1.5 2-3 2.5-.75.25-1.5.75-2 1.5L11 9.5c-.75 1.25-2 2-3.5 2H6c-1.1 0-2 .9-2 2v1c0 1.5.5 3 1.5 4l2 2c.5.5 1 .75 1.5.75" stroke="currentColor" stroke-width="1.5" stroke-linecap="round" stroke-linejoin="round"/>
  <path d="M9 21.25v-2.5" stroke="currentColor" stroke-width="1.5" stroke-linecap="round"/>
  <path d="M14 21.25v-3c0-1.5-.5-3-1.5-4L11 12.5" stroke="currentColor" stroke-width="1.5" stroke-linecap="round" stroke-linejoin="round"/>
  <path d="M17.5 3c.75 0 1.5.5 2 1.25L21 6.5c.25.5.25 1-.25 1.25l-2.25.75c-1 .25-2 1-2.5 2l-1 2" stroke="currentColor" stroke-width="1.5" stroke-linecap="round" stroke-linejoin="round"/>
  <path d="M13 6.5c-.25-.5-.25-1.25 0-2" stroke="currentColor" stroke-width="1.5" stroke-linecap="round"/>
  <circle cx="17" cy="6.5" r="0.75" stroke="currentColor" stroke-width="1"/>
</svg>
