<svg xmlns="http://www.w3.org/2000/svg" viewBox="0 0 24 24" fill="none">
  <polygon points="12,3 5,7.5 5,16.5 12,21 19,16.5 19,7.5" fill="var(--color-duotone-fill)"/>
  <path d="M12 3v18" stroke="currentColor" stroke-width="1.5" stroke-linecap="round"/>
  <path d="M4.07 7.5l15.86 9" stroke="currentColor" stroke-width="1.5" stroke-linecap="round"/>
  <path d="M4.07 16.5l15.86-9" stroke="currentColor" stroke-width="1.5" stroke-linecap="round"/>
  <path d="M12 3l-2 2M12 3l2 2" stroke="currentColor" stroke-width="1.5" stroke-linecap="round" stroke-linejoin="round"/>
  <path d="M12 21l-2-2M12 21l2-2" stroke="currentColor" stroke-width="1.5" stroke-linecap="round" stroke-linejoin="round"/>
  <path d="M4.07 7.5l1 2.25M4.07 7.5l2.46-.14" stroke="currentColor" stroke-width="1.5" stroke-linecap="round" stroke-linejoin="round"/>
  <path d="M19.93 16.5l-1-2.25M19.93 16.5l-2.46.14" stroke="currentColor" stroke-width="1.5" stroke-linecap="round" stroke-linejoin="round"/>
  <path d="M19.93 7.5l-2.46-.14M19.93 7.5l-1 2.25" stroke="currentColor" stroke-width="1.5" stroke-linecap="round" stroke-linejoin="round"/>
  <path d="M4.07 16.5l2.46.14M4.07 16.5l1-2.25" stroke="currentColor" stroke-width="1.5" stroke-linecap="round" stroke-linejoin="round"/>
</svg>
