<svg xmlns="http://www.w3.org/2000/svg" viewBox="0 0 24 24" fill="none">
  <path d="M3 14v5a1 1 0 0 0 1 1h16a1 1 0 0 0 1-1v-5h-5l-1.5 2h-5L8 14H3Z" fill="var(--color-duotone-fill)"/>
  <path d="M3 14l3-9.5A1 1 0 0 1 6.95 4h10.1a1 1 0 0 1 .95.5L21 14" stroke="currentColor" stroke-width="1.5" stroke-linecap="round" stroke-linejoin="round"/>
  <path d="M3 14v5a1 1 0 0 0 1 1h16a1 1 0 0 0 1-1v-5h-5l-1.5 2h-5L8 14H3Z" stroke="currentColor" stroke-width="1.5" stroke-linecap="round" stroke-linejoin="round"/>
</svg>
