<svg xmlns="http://www.w3.org/2000/svg" viewBox="0 0 24 24" fill="none">
  <path d="M12 2.5L4.5 5.5v4.75c0 5.25 3.25 8.5 7.5 10.75 4.25-2.25 7.5-5.5 7.5-10.75V5.5L12 2.5Z" fill="var(--color-duotone-fill)"/>
  <path d="M12 2.5L4.5 5.5v4.75c0 5.25 3.25 8.5 7.5 10.75 4.25-2.25 7.5-5.5 7.5-10.75V5.5L12 2.5Z" stroke="currentColor" stroke-width="1.5" stroke-linejoin="round"/>
  <path d="M6.5 13.5c.5-.25 1-.75 1.5-1.5.75-1 1.5-1.75 2.25-2L12 9.25l1.75.75c.75.25 1.5 1 2.25 2 .5.75 1 1.25 1.5 1.5" stroke="currentColor" stroke-width="1.5" stroke-linecap="round" stroke-linejoin="round"/>
  <path d="M8 11l-.75-1.5M16 11l.75-1.5" stroke="currentColor" stroke-width="1.5" stroke-linecap="round"/>
  <path d="M12 9.25V7.5" stroke="currentColor" stroke-width="1.5" stroke-linecap="round"/>
</svg>
