<svg xmlns="http://www.w3.org/2000/svg" viewBox="0 0 24 24" fill="none">
  <path d="M12 2.5C8.5 6 5 9.5 5 14a7 7 0 0 0 14 0c0-4.5-3.5-8-7-11.5Z" fill="var(--color-duotone-fill)"/>
  <path d="M12 2.5C8.5 6 5 9.5 5 14a7 7 0 0 0 14 0c0-4.5-3.5-8-7-11.5Z" stroke="currentColor" stroke-width="1.5" stroke-linecap="round" stroke-linejoin="round"/>
  <path d="M12 21v-9.5" stroke="currentColor" stroke-width="1.5" stroke-linecap="round"/>
  <path d="M8.5 14c1-1.5 2-2.5 3.5-3.5" stroke="currentColor" stroke-width="1.5" stroke-linecap="round"/>
  <path d="M15.5 14c-1-1.5-2-2.5-3.5-3.5" stroke="currentColor" stroke-width="1.5" stroke-linecap="round"/>
</svg>
