<svg xmlns="http://www.w3.org/2000/svg" viewBox="0 0 24 24" fill="none">
  <path d="M13.41 10.59a3.5 3.5 0 0 0-4.95 0l-2.83 2.83a3.5 3.5 0 0 0 4.95 4.95l1.59-1.59" fill="var(--color-duotone-fill)"/>
  <path d="M10.59 13.41a3.5 3.5 0 0 0 4.95 0l2.83-2.83a3.5 3.5 0 0 0-4.95-4.95l-1.59 1.59" stroke="currentColor" stroke-width="1.5" stroke-linecap="round" stroke-linejoin="round"/>
  <path d="M13.41 10.59a3.5 3.5 0 0 0-4.95 0l-2.83 2.83a3.5 3.5 0 0 0 4.95 4.95l1.59-1.59" stroke="currentColor" stroke-width="1.5" stroke-linecap="round" stroke-linejoin="round"/>
</svg>
