<svg xmlns="http://www.w3.org/2000/svg" viewBox="0 0 24 24" fill="none">
  <path d="M9.5 9.5C9.5 6.46 10.62 3 12 3s2.5 3.46 2.5 6.5c1.53.76 3 2.37 3 5 0 3.04-2.46 5.5-5.5 5.5S6.5 17.54 6.5 14.5c0-2.63 1.47-4.24 3-5Z" fill="var(--color-duotone-fill)"/>
  <path d="M9.5 9.5C9.5 6.46 10.62 3 12 3s2.5 3.46 2.5 6.5c1.53.76 3 2.37 3 5 0 3.04-2.46 5.5-5.5 5.5S6.5 17.54 6.5 14.5c0-2.63 1.47-4.24 3-5Z" stroke="currentColor" stroke-width="1.5" stroke-linejoin="round"/>
  <ellipse cx="12" cy="16" rx="2.5" ry="3" stroke="currentColor" stroke-width="1.5"/>
  <circle cx="10.5" cy="8" r="0.75" fill="currentColor"/>
  <circle cx="13.5" cy="8" r="0.75" fill="currentColor"/>
  <path d="M11.25 9.5L12 10l.75-.5" stroke="currentColor" stroke-width="1.5" stroke-linecap="round" stroke-linejoin="round"/>
  <path d="M7.5 19l-1.5 2" stroke="currentColor" stroke-width="1.5" stroke-linecap="round"/>
  <path d="M16.5 19l1.5 2" stroke="currentColor" stroke-width="1.5" stroke-linecap="round"/>
</svg>
