<svg xmlns="http://www.w3.org/2000/svg" viewBox="0 0 24 24" fill="none">
  <path d="M12 2.5c-1.5 0-2.75.75-3.5 1.5C7 3.5 5.25 3.75 4.25 5c-1 1.25-.75 3 0 4-.75 1-1.25 2.25-1 3.75.25 1.5 1.25 2.5 2.25 3C6 17 7 18.5 8.75 19.25c.5.75 1.5 2.25 3.25 2.25s2.75-1.5 3.25-2.25c1.75-.75 2.75-2.25 3.25-3.5 1-.5 2-1.5 2.25-3 .25-1.5-.25-2.75-1-3.75.75-1 1-2.75 0-4-1-1.25-2.75-1.5-4.25-1C15.75 3.25 13.5 2.5 12 2.5Z" fill="var(--color-duotone-fill)"/>
  <path d="M12 2.5c-1.5 0-2.75.75-3.5 1.5C7 3.5 5.25 3.75 4.25 5c-1 1.25-.75 3 0 4-.75 1-1.25 2.25-1 3.75.25 1.5 1.25 2.5 2.25 3C6 17 7 18.5 8.75 19.25c.5.75 1.5 2.25 3.25 2.25s2.75-1.5 3.25-2.25c1.75-.75 2.75-2.25 3.25-3.5 1-.5 2-1.5 2.25-3 .25-1.5-.25-2.75-1-3.75.75-1 1-2.75 0-4-1-1.25-2.75-1.5-4.25-1C15.75 3.25 13.5 2.5 12 2.5Z" stroke="currentColor" stroke-width="1.5" stroke-linejoin="round"/>
  <path d="M7.5 9c0-1.5 2-3 4.5-3s4.5 1.5 4.5 3v2.5c0 2.75-2 5-4.5 5s-4.5-2.25-4.5-5V9Z" stroke="currentColor" stroke-width="1.5" stroke-linejoin="round"/>
  <circle cx="10" cy="10.5" r="0.75" fill="currentColor"/>
  <circle cx="14" cy="10.5" r="0.75" fill="currentColor"/>
  <path d="M10.75 13.5c.5.5 1.5.75 2.5 0" stroke="currentColor" stroke-width="1.5" stroke-linecap="round" stroke-linejoin="round"/>
  <path d="M12 12.25v1.25" stroke="currentColor" stroke-width="1.5" stroke-linecap="round"/>
</svg>
