<svg xmlns="http://www.w3.org/2000/svg" viewBox="0 0 24 24" fill="none">
  <path d="M20.94 14.15c-.27 1.41-2.44 2.95-4.93 3.25-1.3.15-2.58.3-3.94.23-2.23-.1-3.99-.54-3.99-.54v.63c.29 2.24 2.18 2.38 3.97 2.44 1.81.06 3.42-.45 3.42-.45l.07 1.62s-1.27.68-3.53.81c-1.25.07-2.8-.03-4.6-.53C4.57 20.76 3.68 17.6 3.53 14.39a33.3 33.3 0 0 1-.03-2.39c0-4.73 3.1-6.12 3.1-6.12 1.56-.72 4.24-.96 7.03-1h.07c2.79.04 5.47.28 7.03 1 0 0 3.1 1.39 3.1 6.12 0 0 .04 3.49-.89 5.15" fill="var(--color-duotone-fill)"/>
  <path d="M20.94 14.15c-.27 1.41-2.44 2.95-4.93 3.25-1.3.15-2.58.3-3.94.23-2.23-.1-3.99-.54-3.99-.54v.63c.29 2.24 2.18 2.38 3.97 2.44 1.81.06 3.42-.45 3.42-.45l.07 1.62s-1.27.68-3.53.81c-1.25.07-2.8-.03-4.6-.53C4.57 20.76 3.68 17.6 3.53 14.39a33.3 33.3 0 0 1-.03-2.39c0-4.73 3.1-6.12 3.1-6.12 1.56-.72 4.24-.96 7.03-1h.07c2.79.04 5.47.28 7.03 1 0 0 3.1 1.39 3.1 6.12 0 0 .04 3.49-.89 5.15" stroke="currentColor" stroke-width="1.5" stroke-linecap="round" stroke-linejoin="round"/>
  <path d="M8 10.5v4" stroke="currentColor" stroke-width="1.5" stroke-linecap="round"/>
  <path d="M16 10.5v4" stroke="currentColor" stroke-width="1.5" stroke-linecap="round"/>
  <path d="M12 10v5" stroke="currentColor" stroke-width="1.5" stroke-linecap="round"/>
  <path d="M8 12h4M12 12h4" stroke="currentColor" stroke-width="1.5" stroke-linecap="round"/>
</svg>
