<svg xmlns="http://www.w3.org/2000/svg" viewBox="0 0 24 24" fill="none">
  <path d="M3.5 12c0-3.5 2-5.5 3.75-5.5 1.5 0 2.75 1.25 4.75 5.5 2 4.25 3.25 5.5 4.75 5.5 1.75 0 3.75-2 3.75-5.5s-2-5.5-3.75-5.5c-1.5 0-2.75 1.25-4.75 5.5-2 4.25-3.25 5.5-4.75 5.5C5.5 17.5 3.5 15.5 3.5 12Z" fill="var(--color-duotone-fill)"/>
  <path d="M3.5 12c0-3.5 2-5.5 3.75-5.5 1.5 0 2.75 1.25 4.75 5.5 2 4.25 3.25 5.5 4.75 5.5 1.75 0 3.75-2 3.75-5.5s-2-5.5-3.75-5.5c-1.5 0-2.75 1.25-4.75 5.5-2 4.25-3.25 5.5-4.75 5.5C5.5 17.5 3.5 15.5 3.5 12Z" stroke="currentColor" stroke-width="1.5" stroke-linecap="round" stroke-linejoin="round"/>
</svg>
