<svg xmlns="http://www.w3.org/2000/svg" viewBox="0 0 24 24" fill="none">
  <circle cx="12" cy="12" r="4.5" fill="var(--color-duotone-fill)"/>
  <rect x="2.5" y="10.75" width="5" height="2.5" rx="0.75" fill="var(--color-duotone-fill)"/>
  <rect x="16.5" y="10.75" width="5" height="2.5" rx="0.75" fill="var(--color-duotone-fill)"/>
  <circle cx="12" cy="12" r="4.5" stroke="currentColor" stroke-width="1.5"/>
  <path d="M7.5 10.75H4C3.25 10.75 2.5 11 2.5 11.75v0.5c0 .75.75 1 1.5 1H7.5" stroke="currentColor" stroke-width="1.5" stroke-linecap="round" stroke-linejoin="round"/>
  <path d="M16.5 10.75H20c.75 0 1.5.25 1.5 1v0.5c0 .75-.75 1-1.5 1H16.5" stroke="currentColor" stroke-width="1.5" stroke-linecap="round" stroke-linejoin="round"/>
  <path d="M10.25 10.5V13.5" stroke="currentColor" stroke-width="1.5" stroke-linecap="round"/>
  <path d="M13.75 10.5V13.5" stroke="currentColor" stroke-width="1.5" stroke-linecap="round"/>
  <path d="M11.5 10.5L12 13.5 12.5 10.5" stroke="currentColor" stroke-width="1.5" stroke-linecap="round" stroke-linejoin="round"/>
</svg>
