<svg xmlns="http://www.w3.org/2000/svg" viewBox="0 0 24 24" fill="none">
  <path d="M18.37 2.63a2 2 0 0 1 2.83 0v0a2 2 0 0 1 0 2.83L12 14.67l-2.83-2.83 9.2-9.21Z" fill="var(--color-duotone-fill)"/>
  <path d="M5.41 15.6a2 2 0 0 0-.41.6l-1.5 3.5a1 1 0 0 0 1.3 1.3l3.5-1.5a2 2 0 0 0 .6-.41l3.77-3.76-2.84-2.83-4.42 3.1Z" fill="var(--color-duotone-fill)"/>
  <path d="M18.37 2.63a2 2 0 0 1 2.83 0v0a2 2 0 0 1 0 2.83L12 14.67l-2.83-2.83 9.2-9.21Z" stroke="currentColor" stroke-width="1.5" stroke-linecap="round" stroke-linejoin="round"/>
  <path d="M9.17 11.84L5.41 15.6a2 2 0 0 0-.41.6l-1.5 3.5a1 1 0 0 0 1.3 1.3l3.5-1.5a2 2 0 0 0 .6-.41l3.77-3.76" stroke="currentColor" stroke-width="1.5" stroke-linecap="round" stroke-linejoin="round"/>
</svg>
