<svg xmlns="http://www.w3.org/2000/svg" viewBox="0 0 24 24" fill="none">
  <ellipse cx="7.5" cy="5.75" rx="1.75" ry="2.25" fill="var(--color-duotone-fill)" stroke="currentColor" stroke-width="1.5"/>
  <ellipse cx="16.5" cy="5.75" rx="1.75" ry="2.25" fill="var(--color-duotone-fill)" stroke="currentColor" stroke-width="1.5"/>
  <ellipse cx="10.75" cy="4" rx="1.5" ry="2" fill="var(--color-duotone-fill)" stroke="currentColor" stroke-width="1.5"/>
  <ellipse cx="13.25" cy="4" rx="1.5" ry="2" fill="var(--color-duotone-fill)" stroke="currentColor" stroke-width="1.5"/>
  <path d="M8.5 11c-.75-.5-2-1.5-2.5-1s-.75 1.5 0 3c.75 1.5 1.75 3 2.5 4 .5.75 1.25 1.5 2 1.75.5.25 1 .5 1.5.5s1-.25 1.5-.5c.75-.25 1.5-1 2-1.75.75-1 1.75-2.5 2.5-4 .75-1.5.5-2.5 0-3s-1.75.5-2.5 1c-.75.5-1.75 1.25-3.5 1.25S9.25 11.5 8.5 11Z" fill="var(--color-duotone-fill)" stroke="currentColor" stroke-width="1.5" stroke-linejoin="round"/>
</svg>
