<svg xmlns="http://www.w3.org/2000/svg" viewBox="0 0 24 24" fill="none">
  <path d="M3 17.25V21h3.75L17.81 9.94l-3.75-3.75L3 17.25Z" fill="var(--color-duotone-fill)"/>
  <path d="M20 13.5V21H9" fill="var(--color-duotone-fill)"/>
  <path d="M3 17.25V21h3.75L17.81 9.94l-3.75-3.75L3 17.25Z" stroke="currentColor" stroke-width="1.5" stroke-linejoin="round"/>
  <path d="M14.06 6.19l1.13-1.13a2 2 0 0 1 2.83 0l.92.92a2 2 0 0 1 0 2.83l-1.13 1.13" stroke="currentColor" stroke-width="1.5" stroke-linejoin="round"/>
  <path d="M15 8l2 2" stroke="currentColor" stroke-width="1.5" stroke-linecap="round"/>
  <path d="M20 13.5V21H9" stroke="currentColor" stroke-width="1.5" stroke-linecap="round" stroke-linejoin="round"/>
  <path d="M20 17h-2M20 20h-2M16.5 21v-2M13 21v-2" stroke="currentColor" stroke-width="1.5" stroke-linecap="round"/>
</svg>
