<svg xmlns="http://www.w3.org/2000/svg" viewBox="0 0 24 24" fill="none">
  <path d="M6.5 8.5c-.8-.6-1.2-1.8-.5-2.8s2.1-1.2 2.9-.5c.8.6 1.2 1.8.5 2.8S7.3 9.2 6.5 8.5Z" fill="var(--color-duotone-fill)"/>
  <path d="M14.5 6c-.4-.9.1-2.1 1.1-2.6s2.2-.1 2.6 1c.4.9-.1 2.1-1.1 2.6S14.9 7 14.5 6Z" fill="var(--color-duotone-fill)"/>
  <path d="M10 14c-.9-.3-1.6-1.4-1.2-2.5s1.6-1.6 2.5-1.2c.9.3 1.6 1.4 1.2 2.5S10.9 14.4 10 14Z" fill="var(--color-duotone-fill)"/>
  <path d="M16 12.5c-.6-.8-.4-2 .4-2.7s2-.6 2.7.2c.6.8.4 2-.4 2.7S16.7 13.3 16 12.5Z" fill="var(--color-duotone-fill)"/>
  <path d="M8 19.5c-.9-.2-1.7-1.2-1.5-2.3s1.3-1.8 2.3-1.5c.9.2 1.7 1.2 1.5 2.3S9 19.8 8 19.5Z" fill="var(--color-duotone-fill)"/>
  <path d="M6.5 8.5c-.8-.6-1.2-1.8-.5-2.8s2.1-1.2 2.9-.5c.8.6 1.2 1.8.5 2.8S7.3 9.2 6.5 8.5Z" stroke="currentColor" stroke-width="1.5" stroke-linecap="round" stroke-linejoin="round"/>
  <path d="M14.5 6c-.4-.9.1-2.1 1.1-2.6s2.2-.1 2.6 1c.4.9-.1 2.1-1.1 2.6S14.9 7 14.5 6Z" stroke="currentColor" stroke-width="1.5" stroke-linecap="round" stroke-linejoin="round"/>
  <path d="M10 14c-.9-.3-1.6-1.4-1.2-2.5s1.6-1.6 2.5-1.2c.9.3 1.6 1.4 1.2 2.5S10.9 14.4 10 14Z" stroke="currentColor" stroke-width="1.5" stroke-linecap="round" stroke-linejoin="round"/>
  <path d="M16 12.5c-.6-.8-.4-2 .4-2.7s2-.6 2.7.2c.6.8.4 2-.4 2.7S16.7 13.3 16 12.5Z" stroke="currentColor" stroke-width="1.5" stroke-linecap="round" stroke-linejoin="round"/>
  <path d="M8 19.5c-.9-.2-1.7-1.2-1.5-2.3s1.3-1.8 2.3-1.5c.9.2 1.7 1.2 1.5 2.3S9 19.8 8 19.5Z" stroke="currentColor" stroke-width="1.5" stroke-linecap="round" stroke-linejoin="round"/>
</svg>
