<svg xmlns="http://www.w3.org/2000/svg" viewBox="0 0 24 24" fill="none">
  <path d="M12 2.5c-1.5 3-2.5 5.5-2.5 9a7.3 7.3 0 0 0 .5 2.5H14a7.3 7.3 0 0 0 .5-2.5c0-3.5-1-6-2.5-9Z" fill="var(--color-duotone-fill)"/>
  <path d="M12 2.5c-1.5 3-2.5 5.5-2.5 9a7.3 7.3 0 0 0 .5 2.5H14a7.3 7.3 0 0 0 .5-2.5c0-3.5-1-6-2.5-9Z" stroke="currentColor" stroke-width="1.5" stroke-linecap="round" stroke-linejoin="round"/>
  <path d="M9.5 14 7 16.5V20l2.5-2" stroke="currentColor" stroke-width="1.5" stroke-linecap="round" stroke-linejoin="round"/>
  <path d="M14.5 14 17 16.5V20l-2.5-2" stroke="currentColor" stroke-width="1.5" stroke-linecap="round" stroke-linejoin="round"/>
  <path d="M10 18h4v2.5a1 1 0 0 1-1 1h-2a1 1 0 0 1-1-1V18Z" stroke="currentColor" stroke-width="1.5" stroke-linecap="round" stroke-linejoin="round"/>
  <circle cx="12" cy="9.5" r="1.25" stroke="currentColor" stroke-width="1.5"/>
</svg>
