<svg xmlns="http://www.w3.org/2000/svg" viewBox="0 0 24 24" fill="none">
  <path d="M7 3c-.75.5-1.5 1.25-2 2.25-.5 1-1 2.25-1 3.5 0 1.25.25 2.5.75 3.5.5 1 1 1.75 1.75 2.25.5.25.75.75 1 1.25l1.5 1.75c.75.75 1.5 1.25 2.5 1.25.75 0 1.5-.25 2-.75l.75-.75c.25-.25.5-.25.75-.25.5 0 1 .25 1.5.25.75 0 1.25-.25 1.5-.75.5-.75.5-1.75 0-2.5-.25-.5-.75-.75-1.25-.75h-.25l-.75.25c-.5-.5-.75-1-.75-1.75 0-.5.25-1 .25-1.5 0-.75-.25-1.25-.75-1.75-.5-.5-1.25-.75-2-.75-.5 0-1 .25-1.5.5-.5-.75-.75-1.75-1-2.75C9.5 4.5 9 3.75 8.25 3.25 7.75 3 7.5 3 7 3Z" fill="var(--color-duotone-fill)"/>
  <circle cx="17" cy="18.5" r="2.5" fill="var(--color-duotone-fill)"/>
  <path d="M7 3c-.75.5-1.5 1.25-2 2.25-.5 1-1 2.25-1 3.5 0 1.25.25 2.5.75 3.5.5 1 1 1.75 1.75 2.25.5.25.75.75 1 1.25l1.5 1.75c.75.75 1.5 1.25 2.5 1.25.75 0 1.5-.25 2-.75l.75-.75c.25-.25.5-.25.75-.25.5 0 1 .25 1.5.25.75 0 1.25-.25 1.5-.75.5-.75.5-1.75 0-2.5-.25-.5-.75-.75-1.25-.75h-.25l-.75.25c-.5-.5-.75-1-.75-1.75 0-.5.25-1 .25-1.5 0-.75-.25-1.25-.75-1.75-.5-.5-1.25-.75-2-.75-.5 0-1 .25-1.5.5-.5-.75-.75-1.75-1-2.75C9.5 4.5 9 3.75 8.25 3.25 7.75 3 7.5 3 7 3Z" stroke="currentColor" stroke-width="1.5" stroke-linejoin="round"/>
  <circle cx="17" cy="18.5" r="2.5" stroke="currentColor" stroke-width="1.5"/>
</svg>
