<svg xmlns="http://www.w3.org/2000/svg" viewBox="0 0 24 24" fill="none">
  <path d="M15.96 3.69l4.35 4.35a.5.5 0 0 1 0 .71l-2.83 2.83a1 1 0 0 1-1.41 0l-3.66-3.66a1 1 0 0 1 0-1.41l2.83-2.83a.5.5 0 0 1 .71 0Z" fill="var(--color-duotone-fill)"/>
  <path d="M15.96 3.69l4.35 4.35a.5.5 0 0 1 0 .71l-2.83 2.83a1 1 0 0 1-1.41 0l-3.66-3.66a1 1 0 0 1 0-1.41l2.83-2.83a.5.5 0 0 1 .71 0Z" stroke="currentColor" stroke-width="1.5" stroke-linejoin="round"/>
  <path d="M12.41 10.92L4.29 19.04a1 1 0 0 0 0 1.41l.35.35a1 1 0 0 0 1.41 0l8.13-8.13" stroke="currentColor" stroke-width="1.5" stroke-linecap="round" stroke-linejoin="round"/>
</svg>
