<svg xmlns="http://www.w3.org/2000/svg" viewBox="0 0 24 24" fill="none">
  <path d="M9 2.5H4.5L2.5 8l3 1.5V20.5a1 1 0 0 0 1 1h11a1 1 0 0 0 1-1V9.5L21.5 8 19.5 2.5H15a3 3 0 0 1-6 0Z" fill="var(--color-duotone-fill)"/>
  <path d="M9 2.5H4.5L2.5 8l3 1.5V20.5a1 1 0 0 0 1 1h11a1 1 0 0 0 1-1V9.5L21.5 8 19.5 2.5H15" stroke="currentColor" stroke-width="1.5" stroke-linecap="round" stroke-linejoin="round"/>
  <path d="M9 2.5a3 3 0 0 0 6 0" stroke="currentColor" stroke-width="1.5" stroke-linecap="round" stroke-linejoin="round"/>
</svg>
