<svg xmlns="http://www.w3.org/2000/svg" viewBox="0 0 24 24" fill="none">
  <path d="M9 14V4a1.5 1.5 0 0 1 3 0v7.5V4a1.5 1.5 0 0 1 3 0v7.5V8.5a1.5 1.5 0 0 1 3 0V15a6 6 0 0 1-6 6h0a6 6 0 0 1-6-6v-3.5a1.5 1.5 0 0 1 3 0V14Z" fill="var(--color-duotone-fill)"/>
  <path d="M12 21a6 6 0 0 1-6-6v-3.5a1.5 1.5 0 0 1 3 0V14" stroke="currentColor" stroke-width="1.5" stroke-linecap="round" stroke-linejoin="round"/>
  <path d="M9 11.5V4a1.5 1.5 0 0 1 3 0v7.5" stroke="currentColor" stroke-width="1.5" stroke-linecap="round" stroke-linejoin="round"/>
  <path d="M12 4a1.5 1.5 0 0 1 3 0v7.5" stroke="currentColor" stroke-width="1.5" stroke-linecap="round" stroke-linejoin="round"/>
  <path d="M15 8.5a1.5 1.5 0 0 1 3 0V15a6 6 0 0 1-6 6" stroke="currentColor" stroke-width="1.5" stroke-linecap="round" stroke-linejoin="round"/>
  <path d="M3.5 8.5c-.67.83-1 1.83-1 3s.33 2.17 1 3" stroke="currentColor" stroke-width="1.5" stroke-linecap="round"/>
  <path d="M5 9.5c-.5.67-.75 1.42-.75 2.25S4.5 13.33 5 14" stroke="currentColor" stroke-width="1.5" stroke-linecap="round"/>
</svg>
