<svg xmlns="http://www.w3.org/2000/svg" viewBox="0 0 24 24" fill="none">
  <path d="M4 13.5c0-1.38 1.12-2.5 2.5-2.5h11c1.38 0 2.5 1.12 2.5 2.5S18.88 16 17.5 16h-11A2.5 2.5 0 0 1 4 13.5Z" fill="var(--color-duotone-fill)"/>
  <circle cx="7" cy="19" r="1.5" fill="var(--color-duotone-fill)"/>
  <circle cx="17" cy="19" r="1.5" fill="var(--color-duotone-fill)"/>
  <path d="M4 13.5c0-1.38 1.12-2.5 2.5-2.5h11c1.38 0 2.5 1.12 2.5 2.5S18.88 16 17.5 16h-11A2.5 2.5 0 0 1 4 13.5Z" stroke="currentColor" stroke-width="1.5" stroke-linejoin="round"/>
  <path d="M8.5 16v1.5" stroke="currentColor" stroke-width="1.5" stroke-linecap="round"/>
  <path d="M15.5 16v1.5" stroke="currentColor" stroke-width="1.5" stroke-linecap="round"/>
  <circle cx="7" cy="19" r="1.5" stroke="currentColor" stroke-width="1.5"/>
  <circle cx="17" cy="19" r="1.5" stroke="currentColor" stroke-width="1.5"/>
</svg>
