<svg xmlns="http://www.w3.org/2000/svg" viewBox="0 0 24 24" fill="none">
  <path d="M4 8a1 1 0 0 1 1-1h14a1 1 0 0 1 1 1v7H4V8Z" fill="var(--color-duotone-fill)"/>
  <path d="M4 8a1 1 0 0 1 1-1h14a1 1 0 0 1 1 1v2h-1a1 1 0 0 0-1 1v4H6v-4a1 1 0 0 0-1-1H4V8Z" stroke="currentColor" stroke-width="1.5" stroke-linejoin="round"/>
  <path d="M2.5 10a.5.5 0 0 1 .5-.5h1a1 1 0 0 1 1 1v4a1 1 0 0 1-1 1H3a.5.5 0 0 1-.5-.5V10ZM20 10a.5.5 0 0 1 .5-.5h1a.5.5 0 0 1 .5.5v5a.5.5 0 0 1-.5.5h-1a1 1 0 0 1-1-1v-4a1 1 0 0 1 1-1Z" stroke="currentColor" stroke-width="1.5" stroke-linejoin="round"/>
  <path d="M12 11v4" stroke="currentColor" stroke-width="1.5" stroke-linecap="round"/>
  <path d="M5 18v2M19 18v2" stroke="currentColor" stroke-width="1.5" stroke-linecap="round"/>
  <path d="M4 15h16v1.5a1.5 1.5 0 0 1-1.5 1.5h-13A1.5 1.5 0 0 1 4 16.5V15Z" stroke="currentColor" stroke-width="1.5" stroke-linejoin="round"/>
</svg>
