<svg xmlns="http://www.w3.org/2000/svg" viewBox="0 0 24 24" fill="none">
  <path d="M6 9h2.5l5-4.5a.5.5 0 0 1 .84.37v14.26a.5.5 0 0 1-.84.37L8.5 15H6a1.5 1.5 0 0 1-1.5-1.5v-3A1.5 1.5 0 0 1 6 9Z" fill="var(--color-duotone-fill)"/>
  <path d="M6 9h2.5l5-4.5a.5.5 0 0 1 .84.37v14.26a.5.5 0 0 1-.84.37L8.5 15H6a1.5 1.5 0 0 1-1.5-1.5v-3A1.5 1.5 0 0 1 6 9Z" stroke="currentColor" stroke-width="1.5" stroke-linejoin="round"/>
  <path d="M17.5 8a6.5 6.5 0 0 1 0 8" stroke="currentColor" stroke-width="1.5" stroke-linecap="round"/>
  <path d="M20 5.5a10.5 10.5 0 0 1 0 13" stroke="currentColor" stroke-width="1.5" stroke-linecap="round"/>
</svg>
