<svg xmlns="http://www.w3.org/2000/svg" viewBox="0 0 24 24" fill="none">
  <path d="M4 10v10a1 1 0 0 0 1 1h14a1 1 0 0 0 1-1V10" fill="var(--color-duotone-fill)"/>
  <path d="M3 7l1-4h16l1 4" stroke="currentColor" stroke-width="1.5" stroke-linecap="round" stroke-linejoin="round"/>
  <path d="M3 7c0 1.66 1.34 3 3 3s3-1.34 3-3c0 1.66 1.34 3 3 3s3-1.34 3-3c0 1.66 1.34 3 3 3s3-1.34 3-3" stroke="currentColor" stroke-width="1.5" stroke-linejoin="round"/>
  <path d="M4 10v10a1 1 0 0 0 1 1h14a1 1 0 0 0 1-1V10" stroke="currentColor" stroke-width="1.5" stroke-linejoin="round"/>
  <path d="M9 21v-6a1 1 0 0 1 1-1h4a1 1 0 0 1 1 1v6" stroke="currentColor" stroke-width="1.5" stroke-linejoin="round"/>
</svg>
