<svg xmlns="http://www.w3.org/2000/svg" viewBox="0 0 24 24" fill="none">
  <path d="M12 3.5c3.4 2.31 5.5 6.04 5.5 10.5 0 3.83-1.94 6.95-5.5 8.5-3.56-1.55-5.5-4.67-5.5-8.5 0-4.46 2.1-8.19 5.5-10.5Z" fill="var(--color-duotone-fill)"/>
  <path d="M12 3.5c3.4 2.31 5.5 6.04 5.5 10.5 0 3.83-1.94 6.95-5.5 8.5-3.56-1.55-5.5-4.67-5.5-8.5 0-4.46 2.1-8.19 5.5-10.5Z" stroke="currentColor" stroke-width="1.5" stroke-linejoin="round"/>
  <path d="M12 6.25v11.5" stroke="currentColor" stroke-width="1.5" stroke-linecap="round"/>
  <path d="M2.5 17c1-.8 2-.8 3 0s2 .8 3 0 2-.8 3 0 2 .8 3 0 2-.8 3 0 2 .8 3 0" stroke="currentColor" stroke-width="1.5" stroke-linecap="round" stroke-linejoin="round"/>
</svg>
