<svg xmlns="http://www.w3.org/2000/svg" viewBox="0 0 24 24" fill="none">
  <path d="M12 8.5c-1.5 0-3.5-.25-5-.75C5.5 7.25 4.5 6.5 4 5.5l-.5-1 2.25-.75c1.25-.42 3-.75 6.25-.75s5 .33 6.25.75L20.5 4.5l-.5 1c-.5 1-1.5 1.75-3 2.25-1.5.5-3.5.75-5 .75Z" fill="var(--color-duotone-fill)"/>
  <path d="M12 21.5V8.5" stroke="currentColor" stroke-width="1.5" stroke-linecap="round"/>
  <path d="M12 8.5c-1.5 0-3.5-.25-5-.75C5.5 7.25 4.5 6.5 4 5.5l-.5-1 2.25-.75c1.25-.42 3-.75 6.25-.75s5 .33 6.25.75L20.5 4.5l-.5 1c-.5 1-1.5 1.75-3 2.25-1.5.5-3.5.75-5 .75Z" stroke="currentColor" stroke-width="1.5" stroke-linecap="round" stroke-linejoin="round"/>
</svg>
