<svg xmlns="http://www.w3.org/2000/svg" viewBox="0 0 24 24" fill="none">
  <path d="M7 11l3.5-8.5a1 1 0 0 1 1.84 0L13 5a3 3 0 0 1-.18 2.32L11.5 10H19a2 2 0 0 1 1.96 2.4l-1.25 6A2 2 0 0 1 17.75 20H7V11Z" fill="var(--color-duotone-fill)"/>
  <path d="M7 22V11l3.5-8.5a1 1 0 0 1 1.84 0L13 5a3 3 0 0 1-.18 2.32L11.5 10H19a2 2 0 0 1 1.96 2.4l-1.25 6A2 2 0 0 1 17.75 20H7Z" stroke="currentColor" stroke-width="1.5" stroke-linejoin="round"/>
  <path d="M7 11H4a1 1 0 0 0-1 1v9a1 1 0 0 0 1 1h3" stroke="currentColor" stroke-width="1.5" stroke-linejoin="round"/>
</svg>
