<svg xmlns="http://www.w3.org/2000/svg" viewBox="0 0 24 24" fill="none">
  <path d="M5 10c0-3.31 3.13-6 7-6s7 2.69 7 6v2.5c0 4.14-3.13 7.5-7 7.5s-7-3.36-7-7.5V10Z" fill="var(--color-duotone-fill)"/>
  <path d="M4.5 5L6 3l2 2.5M19.5 5L18 3l-2 2.5" stroke="currentColor" stroke-width="1.5" stroke-linecap="round" stroke-linejoin="round"/>
  <path d="M5 10c0-3.31 3.13-6 7-6s7 2.69 7 6v2.5c0 4.14-3.13 7.5-7 7.5s-7-3.36-7-7.5V10Z" stroke="currentColor" stroke-width="1.5" stroke-linejoin="round"/>
  <circle cx="9.5" cy="11" r="0.75" fill="currentColor"/>
  <circle cx="14.5" cy="11" r="0.75" fill="currentColor"/>
  <ellipse cx="12" cy="14.75" rx="2.5" ry="1.75" stroke="currentColor" stroke-width="1.5"/>
  <path d="M12 13v1.25" stroke="currentColor" stroke-width="1.5" stroke-linecap="round"/>
  <path d="M7.5 7.5L9 9.5M16.5 7.5L15 9.5M12 4v2" stroke="currentColor" stroke-width="1.5" stroke-linecap="round"/>
</svg>
