<svg xmlns="http://www.w3.org/2000/svg" viewBox="0 0 24 24" fill="none">
  <path d="M3 4.5c2 1.5 5.5 2.5 9 2.5s7-1 9-2.5c-2 1.5-3.5 4-5 5.5-1 1-2.25 2-2.75 3.5-.25.75-.5 2-.75 3-.25 1-.5 2.5-.5 3-.25 1.25.5 1.25.5 0 .25-1.5.5-2.5 1-3.5.5-1 1.5-2.25 2.5-3.25C17.5 8.75 19 6.5 21 4.5" fill="var(--color-duotone-fill)"/>
  <path d="M3 4.5c2 1.5 5.5 2.5 9 2.5s7-1 9-2.5" stroke="currentColor" stroke-width="1.5" stroke-linecap="round"/>
  <path d="M5 9c1.75 1.25 4.25 2 7 2s5.25-.75 7-2" stroke="currentColor" stroke-width="1.5" stroke-linecap="round"/>
  <path d="M7.5 13.5c1.25 1 3 1.5 4.75 1.5s3.25-.5 4.25-1.5" stroke="currentColor" stroke-width="1.5" stroke-linecap="round"/>
  <path d="M10 17.5c.5.5 1.25.75 2 .75s1.5-.25 2-.75" stroke="currentColor" stroke-width="1.5" stroke-linecap="round"/>
  <path d="M11.5 21.5l1-1" stroke="currentColor" stroke-width="1.5" stroke-linecap="round"/>
</svg>
