<svg xmlns="http://www.w3.org/2000/svg" viewBox="0 0 24 24" fill="none">
  <path d="M3 10.5c.5-1 1.25-1.75 2.25-2.25 1-.5 2.25-.75 3.5-.5 1 .25 1.75.75 2.75 1 1 .25 2 .25 3-.13.75-.25 1.5-.75 2-1 .75-.38 1.5-.25 1.75.25.25.63 0 1.38-.38 2-.5.75-1.25 1.38-1.75 2.13-.38.5-.5 1.13-.25 1.63.25.5.75.75 1 1.25.25.63 0 1.25-.5 1.75-.63.63-1.5 1-2.5 1.25-1.25.25-2.5.25-3.75 0-1-.25-1.88-.63-2.88-1-1-.38-2.13-.63-3.25-.5-.88.13-1.63.38-2.13-.13-.38-.38-.38-1 0-1.63.25-.5.63-1 .75-1.5.13-.38.13-.75-.13-1-.25-.38-.63-.5-.88-.75-.25-.25-.25-.5 0-.75Z" fill="var(--color-duotone-fill)"/>
  <path d="M16 4.5c.38-.25.88-.38 1.38-.25.5.13.88.5 1.25.88.25.25.38.63.25 1-.13.38-.5.63-.88.75-.5.13-1 0-1.38-.25-.38-.25-.63-.63-.75-1-.06-.38.06-.75.13-1.13Z" fill="var(--color-duotone-fill)"/>
  <path d="M3 10.5c.5-1 1.25-1.75 2.25-2.25 1-.5 2.25-.75 3.5-.5 1 .25 1.75.75 2.75 1 1 .25 2 .25 3-.13.75-.25 1.5-.75 2-1 .75-.38 1.5-.25 1.75.25.25.63 0 1.38-.38 2-.5.75-1.25 1.38-1.75 2.13-.38.5-.5 1.13-.25 1.63.25.5.75.75 1 1.25.25.63 0 1.25-.5 1.75-.63.63-1.5 1-2.5 1.25-1.25.25-2.5.25-3.75 0-1-.25-1.88-.63-2.88-1-1-.38-2.13-.63-3.25-.5-.88.13-1.63.38-2.13-.13-.38-.38-.38-1 0-1.63.25-.5.63-1 .75-1.5.13-.38.13-.75-.13-1-.25-.38-.63-.5-.88-.75-.25-.25-.25-.5 0-.75Z" stroke="currentColor" stroke-width="1.5" stroke-linejoin="round"/>
  <path d="M16 4.5c.38-.25.88-.38 1.38-.25.5.13.88.5 1.25.88.25.25.38.63.25 1-.13.38-.5.63-.88.75-.5.13-1 0-1.38-.25-.38-.25-.63-.63-.75-1-.06-.38.06-.75.13-1.13Z" stroke="currentColor" stroke-width="1.5" stroke-linejoin="round"/>
</svg>
