<svg xmlns="http://www.w3.org/2000/svg" viewBox="0 0 24 24" fill="none">
  <path d="M5 2.5h14a1 1 0 0 1 1 1v11a1 1 0 0 1-.42.81L16 18h-3.5L10 20v-2H5a1 1 0 0 1-1-1V3.5a1 1 0 0 1 1-1Z" fill="var(--color-duotone-fill)"/>
  <path d="M5 2.5h14a1 1 0 0 1 1 1v11a1 1 0 0 1-.42.81L16 18h-3.5L10 20v-2H5a1 1 0 0 1-1-1V3.5a1 1 0 0 1 1-1Z" stroke="currentColor" stroke-width="1.5" stroke-linecap="round" stroke-linejoin="round"/>
  <path d="M10.5 7.5v4M14.5 7.5v4" stroke="currentColor" stroke-width="1.5" stroke-linecap="round"/>
</svg>
