<svg xmlns="http://www.w3.org/2000/svg" viewBox="0 0 24 24" fill="none">
  <path d="M11 5.5L6.5 9H4a1 1 0 0 0-1 1v4a1 1 0 0 0 1 1h2.5L11 18.5a.5.5 0 0 0 .84-.37V5.87a.5.5 0 0 0-.84-.37Z" fill="var(--color-duotone-fill)"/>
  <path d="M11 5.5L6.5 9H4a1 1 0 0 0-1 1v4a1 1 0 0 0 1 1h2.5L11 18.5a.5.5 0 0 0 .84-.37V5.87a.5.5 0 0 0-.84-.37Z" stroke="currentColor" stroke-width="1.5" stroke-linecap="round" stroke-linejoin="round"/>
  <path d="M15.54 8.46a5 5 0 0 1 0 7.07" stroke="currentColor" stroke-width="1.5" stroke-linecap="round" stroke-linejoin="round"/>
</svg>
