<svg xmlns="http://www.w3.org/2000/svg" viewBox="0 0 24 24" fill="none">
  <path d="M5 2.5L3.5 9c-.25.75 0 1.5.5 2l2.5 2.5c.75.75 1.25 1.75 1.5 2.75l.5 2c.25 1 1 1.75 2 2l1 .25c.25.05.75.05 1 .05s.75 0 1-.05l1-.25c1-.25 1.75-1 2-2l.5-2c.25-1 .75-2 1.5-2.75L20 11c.5-.5.75-1.25.5-2L19 2.5l-3.5 4L12 8l-3.5-1.5L5 2.5Z" fill="var(--color-duotone-fill)"/>
  <path d="M5 2.5L3.5 9c-.25.75 0 1.5.5 2l2.5 2.5c.75.75 1.25 1.75 1.5 2.75l.5 2c.25 1 1 1.75 2 2l1 .25c.25.05.75.05 1 .05s.75 0 1-.05l1-.25c1-.25 1.75-1 2-2l.5-2c.25-1 .75-2 1.5-2.75L20 11c.5-.5.75-1.25.5-2L19 2.5l-3.5 4L12 8l-3.5-1.5L5 2.5Z" stroke="currentColor" stroke-width="1.5" stroke-linejoin="round"/>
  <circle cx="9" cy="10.5" r="0.75" stroke="currentColor" stroke-width="1"/>
  <circle cx="15" cy="10.5" r="0.75" stroke="currentColor" stroke-width="1"/>
  <path d="M10.5 14c.5.5 1 .75 1.5.75s1-.25 1.5-.75" stroke="currentColor" stroke-width="1.5" stroke-linecap="round" stroke-linejoin="round"/>
  <path d="M8 13l-2.5 1.5" stroke="currentColor" stroke-width="1.5" stroke-linecap="round"/>
  <path d="M16 13l2.5 1.5" stroke="currentColor" stroke-width="1.5" stroke-linecap="round"/>
</svg>
