<svg xmlns="http://www.w3.org/2000/svg" viewBox="0 0 24 24" fill="none">
  <path d="M14.7 3.29a5.5 5.5 0 0 0-6.88 6.88l-4.53 4.53a1.5 1.5 0 0 0 0 2.12l.89.89a1.5 1.5 0 0 0 2.12 0l4.53-4.53a5.5 5.5 0 0 0 6.88-6.88l-2.83 2.83-1.77-.35-.35-1.77 2.83-2.83Z" fill="var(--color-duotone-fill)"/>
  <path d="M14.7 3.29a5.5 5.5 0 0 0-6.88 6.88l-4.53 4.53a1.5 1.5 0 0 0 0 2.12l.89.89a1.5 1.5 0 0 0 2.12 0l4.53-4.53a5.5 5.5 0 0 0 6.88-6.88l-2.83 2.83-1.77-.35-.35-1.77 2.83-2.83Z" stroke="currentColor" stroke-width="1.5" stroke-linecap="round" stroke-linejoin="round"/>
</svg>
