<svg xmlns="http://www.w3.org/2000/svg" viewBox="0 0 24 24" fill="none">
  <path d="M2.47 7.17a.75.75 0 0 1 1.06.13c1.74 2.18 3.74 2.18 5.74.13 2.26-2.32 4.96-2.32 7.2-.02 1.74 1.79 3.44 2.18 5.06.13a.75.75 0 0 1 1.19.92c-2.26 2.86-4.96 2.47-7.2.17-2-2.05-3.74-2.05-5.74.02-2.26 2.32-4.96 2.32-7.44-.56a.75.75 0 0 1 .13-1.06Z" fill="currentColor"/>
  <path d="M2.47 11.17a.75.75 0 0 1 1.06.13c1.74 2.18 3.74 2.18 5.74.13 2.26-2.32 4.26-2.32 5.73.13a.75.75 0 0 1-1.2.92c-1-1.66-2.26-1.66-4.27.4-2.26 2.32-4.96 2.32-7.2-.65a.75.75 0 0 1 .14-1.06Z" fill="currentColor"/>
  <path d="M4.47 15.17a.75.75 0 0 1 1.06.13c1.18 1.47 2.43 1.47 3.97.13 1.8-1.56 3.55-1.56 5.06.13 1.18 1.32 2.43 1.47 3.97.13a.75.75 0 0 1 1.19.92c-2.04 1.77-3.85 1.56-5.39-.17-1.18-1.32-2.18-1.32-3.6.02-1.97 1.85-3.85 1.56-5.4-.23a.75.75 0 0 1 .14-1.06Z" fill="currentColor"/>
</svg>
