<svg xmlns="http://www.w3.org/2000/svg" viewBox="0 0 24 24" fill="none">
  <path fill-rule="evenodd" clip-rule="evenodd" d="M11.5 5.25a4.25 4.25 0 1 0 0 8.5 4.25 4.25 0 0 0 4.25-4.25V5.25h-1.5v1.19A4.23 4.23 0 0 0 11.5 5.25Zm0 1.75a2.5 2.5 0 1 0 0 5 2.5 2.5 0 0 0 0-5Z" fill="currentColor"/>
  <path d="M3.25 17.06a.75.75 0 0 0-.75 1.31c1.88 1.06 4.69 2 7.81 2 2.56 0 5.44-.63 8.06-2.13a.75.75 0 1 0-.75-1.3c-2.38 1.38-5 1.94-7.31 1.94-2.81 0-5.31-.81-7.06-1.82Z" fill="currentColor"/>
  <path d="M16.97 15.72a.75.75 0 0 0-.91.97l.75 2.5a.75.75 0 0 0 1.25.31l1.5-1.75a.75.75 0 0 0-.47-1.28l-2.12-.75Z" fill="currentColor"/>
</svg>
