<svg xmlns="http://www.w3.org/2000/svg" viewBox="0 0 24 24" fill="none">
  <path fill-rule="evenodd" clip-rule="evenodd" d="M11.5 5.25A4.25 4.25 0 0 0 7.25 9.5a.75.75 0 0 1-1.5 0 5.75 5.75 0 1 1 6.5 5.71v.54a.25.25 0 0 1-.25.25 4.25 4.25 0 0 1-4.25-4.25.75.75 0 0 1 1.5 0 2.75 2.75 0 0 0 2.03 2.65v-1.15a.75.75 0 0 1 .52-.71A4.25 4.25 0 0 0 11.5 5.25Z" fill="currentColor"/>
  <path d="M3.42 16.54a.75.75 0 0 0-.84 1.24c1.81 1.23 4.38 2.22 7.27 2.22 2.43 0 5.05-.63 7.48-2.09a.75.75 0 0 0-.66-1.35c-2.19 1.32-4.55 1.94-6.82 1.94-2.59 0-4.9-.87-6.43-1.96Z" fill="currentColor"/>
  <path d="M16.28 15.83a.75.75 0 0 0-.93.96l.5 2.5a.75.75 0 0 0 1.23.38l2-1.5a.75.75 0 0 0-.3-1.34l-2.5-.5Z" fill="currentColor"/>
</svg>
