<svg xmlns="http://www.w3.org/2000/svg" viewBox="0 0 24 24" fill="none">
  <path fill-rule="evenodd" clip-rule="evenodd" d="M9.25 5a2.75 2.75 0 1 1 5.5 0 2.75 2.75 0 0 1-5.5 0Zm1.5 0a1.25 1.25 0 1 1 2.5 0 1.25 1.25 0 0 1-2.5 0Z" fill="currentColor"/>
  <path fill-rule="evenodd" clip-rule="evenodd" d="M12.75 7.64V9.25H16a.75.75 0 0 1 0 1.5h-3.25V20.5c2.75-.33 4.75-1.63 4.75-3.5a.75.75 0 0 1 1.5 0c0 3-3.36 4.75-7 5-3.64-.25-7-2-7-5a.75.75 0 0 1 1.5 0c0 1.87 2 3.17 4.75 3.5V10.75H8a.75.75 0 0 1 0-1.5h3.25V7.64a.75.75 0 0 1 1.5 0Z" fill="currentColor"/>
</svg>
