<svg xmlns="http://www.w3.org/2000/svg" viewBox="0 0 24 24" fill="none">
  <path d="M5.5 11c.5-1.25 1.25-2.25 2.25-3 .88-.63 1.88-1 3-1.25 1-.25 2-.13 2.88.25.75.25 1.38.75 2 1.25.5.38.88.88 1.25 1.5.38.75.5 1.5.38 2.25-.13.88-.5 1.63-1.13 2.25-.5.5-1.13.88-1.75 1.25-.75.38-1.5.63-2.38.75-1.13.13-2.25 0-3.25-.5-.88-.38-1.63-1-2.13-1.75-.38-.63-.63-1.25-.63-2 0-.38.13-.75.25-1 .06-.25.13-.5.25-.75Z" fill="currentColor"/>
  <path d="M10.5 3.5c.5-.25 1.13-.38 1.75-.25.63.13 1.13.5 1.38 1 .13.25.13.63-.06.88-.25.38-.63.5-1.06.5-.5 0-1-.13-1.38-.38-.38-.25-.63-.63-.75-1 0-.25.06-.5.13-.75Z" fill="currentColor"/>
</svg>
