<svg xmlns="http://www.w3.org/2000/svg" viewBox="0 0 24 24" fill="none">
  <path fill-rule="evenodd" clip-rule="evenodd" d="M12 2.25a9.75 9.75 0 1 0 0 19.5 9.75 9.75 0 0 0 0-19.5ZM12.56 3.8a8.27 8.27 0 0 1 6.32 3.26l-3.91 1.02-2.41-4.28Zm-1.12 0L9.03 8.08 5.12 7.06a8.27 8.27 0 0 1 6.32-3.26ZM4.38 8.17l2.13 3.78-2.12 3.77a8.22 8.22 0 0 1 0-7.55Zm.74 8.77l3.91-1.02 2.41 4.28a8.27 8.27 0 0 1-6.32-3.26Zm7.44 3.26l2.41-4.28 3.91 1.02a8.27 8.27 0 0 1-6.32 3.26Zm7.06-4.37l-2.13-3.78 2.12-3.77a8.22 8.22 0 0 1 0 7.55ZM12 15a3 3 0 1 0 0-6 3 3 0 0 0 0 6Z" fill="currentColor"/>
</svg>
