<svg xmlns="http://www.w3.org/2000/svg" viewBox="0 0 24 24" fill="none">
  <path d="M14.84 2.15a.75.75 0 0 1 .01 1.06c-.5.53-1.25.94-2.16 1.13a.75.75 0 0 1-.31-1.47c.63-.13 1.06-.38 1.4-.73a.75.75 0 0 1 1.06.01Z" fill="currentColor"/>
  <path d="M12.25 5.5c-.88-.25-1.75-.5-2.75-.5C6.25 5 3.75 7.5 3.75 10.25c0 2.75.88 5.5 2.13 7.75C7.13 20 8.5 21.25 10 21.25c.75 0 1.25-.5 2-.5s1.25.5 2 .5c1.5 0 2.88-1.25 4.13-3.25.75-1.19 1.31-2.56 1.63-3.88a4 4 0 0 1-2.38-3.63c0-1.5.81-2.75 2-3.44C18.5 5.88 17 5.25 15.5 5.25c-.88 0-1.63.19-2.25.44-.38.13-.75.19-1 .19Z" fill="currentColor"/>
</svg>
