<svg xmlns="http://www.w3.org/2000/svg" viewBox="0 0 24 24" fill="none">
  <path fill-rule="evenodd" clip-rule="evenodd" d="M3 12A9 4 0 0 1 21 12A9 4 0 0 1 3 12ZM4.5 12A7.5 2.5 0 0 0 19.5 12A7.5 2.5 0 0 0 4.5 12Z" fill="currentColor"/>
  <path fill-rule="evenodd" clip-rule="evenodd" d="M3 12A9 4 0 0 1 21 12A9 4 0 0 1 3 12ZM4.5 12A7.5 2.5 0 0 0 19.5 12A7.5 2.5 0 0 0 4.5 12Z" fill="currentColor" transform="rotate(60 12 12)"/>
  <path fill-rule="evenodd" clip-rule="evenodd" d="M3 12A9 4 0 0 1 21 12A9 4 0 0 1 3 12ZM4.5 12A7.5 2.5 0 0 0 19.5 12A7.5 2.5 0 0 0 4.5 12Z" fill="currentColor" transform="rotate(120 12 12)"/>
  <circle cx="12" cy="12" r="2.75" fill="currentColor"/>
</svg>
