<svg xmlns="http://www.w3.org/2000/svg" viewBox="0 0 24 24" fill="none">
  <path fill-rule="evenodd" clip-rule="evenodd" d="M12 2.25a9.75 9.75 0 1 0 0 19.5 9.75 9.75 0 0 0 0-19.5ZM7 10.5a.75.75 0 0 1 .75-.75h2.5a.75.75 0 0 1 0 1.5h-2.5A.75.75 0 0 1 7 10.5Zm6 0a.75.75 0 0 1 .75-.75h2.5a.75.75 0 0 1 0 1.5h-2.5a.75.75 0 0 1-.75-.75ZM8.5 15.25C9.5 14.25 10.5 14.25 12 15.25 13.5 16.25 14.5 16.25 15.5 15.25A.75.75 0 0 1 15.5 16.75C14.5 17.75 13.5 17.75 12 16.75 10.5 15.75 9.5 15.75 8.5 16.75A.75.75 0 0 1 8.5 15.25Z" fill="currentColor"/>
</svg>
