<svg xmlns="http://www.w3.org/2000/svg" viewBox="0 0 24 24" fill="none">
  <path fill-rule="evenodd" clip-rule="evenodd" d="M16.24 2.86a2.75 2.75 0 0 1 3.89 0l1.01 1.01a2.75 2.75 0 0 1 0 3.89l-3.6 3.6-4.9-4.9 3.6-3.6Zm-4.9 3.6L7.76 10.04l6.2 6.2 3.58-3.58-6.2-6.2Zm2.28 5.54a.75.75 0 1 0-1.06-1.06.75.75 0 0 0 1.06 1.06Zm-2.03.97a.75.75 0 1 1-1.06 1.06.75.75 0 0 1 1.06-1.06Zm.97.97a.75.75 0 1 0-1.06-1.06.75.75 0 0 0 1.06 1.06Zm.97-2.91a.75.75 0 1 1-1.06 1.06.75.75 0 0 1 1.06-1.06ZM6.7 11.1l-3.6 3.6a2.75 2.75 0 0 0 0 3.89l1.01 1.01a2.75 2.75 0 0 0 3.89 0l3.6-3.6-4.9-4.9Z" fill="currentColor"/>
</svg>
