<svg xmlns="http://www.w3.org/2000/svg" viewBox="0 0 24 24" fill="none">
  <path fill-rule="evenodd" clip-rule="evenodd" d="M10 7.75a6.75 6.75 0 1 0 0 13.5 6.75 6.75 0 0 0 0-13.5Zm0 4.75a2 2 0 1 0 0 4 2 2 0 0 0 0-4Z" fill="currentColor"/>
  <path d="M14.78 8.72a.75.75 0 0 1 0-1.06l5.19-5.19a.75.75 0 0 1 1.06 1.06l-5.19 5.19a.75.75 0 0 1-1.06 0Z" fill="currentColor"/>
  <path d="M18.5 2.25a.75.75 0 0 0 0 1.5H20.19L20.25 5.5a.75.75 0 0 0 1.5 0v-2.5a.75.75 0 0 0-.75-.75h-2.5Z" fill="currentColor"/>
</svg>
