<svg xmlns="http://www.w3.org/2000/svg" viewBox="0 0 24 24" fill="none">
  <circle cx="12" cy="12" r="8.75" fill="currentColor"/>
  <rect x="11.45" y="3.5" width="1.1" height="17" fill="currentColor" rx=".55"/>
  <rect x="3.5" y="11.45" width="17" height="1.1" fill="currentColor" rx=".55"/>
  <path d="M6.35 6.95c2.2 1.55 3.4 3.25 3.4 5.05s-1.2 3.5-3.4 5.05l-.7-1c1.98-1.41 3-2.83 3-4.05s-1.02-2.64-3-4.05l.7-1Z" fill="currentColor"/>
  <path d="M17.65 6.95c-2.2 1.55-3.4 3.25-3.4 5.05s1.2 3.5 3.4 5.05l.7-1c-1.98-1.41-3-2.83-3-4.05s1.02-2.64 3-4.05l-.7-1Z" fill="currentColor"/>
</svg>
