<svg xmlns="http://www.w3.org/2000/svg" viewBox="0 0 24 24" fill="none">
  <path fill-rule="evenodd" clip-rule="evenodd" d="M7.5 8.25C5.17 8.25 3.25 9.95 3.25 12c0 1.17.58 2.2 1.46 2.89a.17.17 0 0 1 0 .22C3.83 15.8 3.25 16.83 3.25 18c0 2.05 1.92 3.75 4.25 3.75S11.75 20.05 11.75 18c0-1.17-.58-2.2-1.46-2.89a.17.17 0 0 1 0-.22c.88-.69 1.46-1.72 1.46-2.89 0-2.05-1.92-3.75-4.25-3.75ZM7.5 16a1.5 1.5 0 1 0 0 3 1.5 1.5 0 0 0 0-3Z" fill="currentColor"/>
  <path d="M11.53 11.47a.75.75 0 0 1 0-1.06l6.94-6.94a.75.75 0 0 1 1.06 1.06l-6.94 6.94a.75.75 0 0 1-1.06 0Z" fill="currentColor"/>
  <path d="M17.5 2.25a.75.75 0 0 0 0 1.5h2.25V6.5a.75.75 0 0 0 1.5 0V3a.75.75 0 0 0-.75-.75h-3Z" fill="currentColor"/>
  <path d="M18.47 6.53a.75.75 0 0 1 0-1.06l1.5-1.5a.75.75 0 0 1 1.06 1.06l-1.5 1.5a.75.75 0 0 1-1.06 0Z" fill="currentColor"/>
</svg>
