<svg xmlns="http://www.w3.org/2000/svg" viewBox="0 0 24 24" fill="none">
  <path fill-rule="evenodd" clip-rule="evenodd" d="M5.5 2.25a3.25 3.25 0 0 0-2.12 5.72C3.12 8.6 3 9.28 3 10v3.5C3 18.19 7.03 22 12 22s9-3.81 9-8.5V10c0-.72-.12-1.4-.38-2.03A3.25 3.25 0 0 0 18.5 2.25a3.25 3.25 0 0 0-3.1 2.28C14.37 4.18 13.22 4 12 4s-2.37.18-3.4.53A3.25 3.25 0 0 0 5.5 2.25ZM9 10.25a1.25 1.25 0 1 0 0 2.5 1.25 1.25 0 0 0 0-2.5Zm6 0a1.25 1.25 0 1 0 0 2.5 1.25 1.25 0 0 0 0-2.5ZM8.25 15c0-1.52 1.68-2.75 3.75-2.75s3.75 1.23 3.75 2.75-1.68 2.75-3.75 2.75S8.25 16.52 8.25 15Zm3 0a.75.75 0 0 1 1.5 0v.5a.75.75 0 0 1-1.5 0V15Z" fill="currentColor"/>
</svg>
