<svg xmlns="http://www.w3.org/2000/svg" viewBox="0 0 24 24" fill="none">
  <path fill-rule="evenodd" clip-rule="evenodd" d="M9.78 5.78c-1.82-.46-3.27.44-4.98 1.01-1.18.39-2.8.8-2.8 2.21 0 1.1.8 2.05 1.55 3.18.95 1.42 1.3 2.68 1.7 3.82.58 1.17 2.28 2.26 4.07 1.81 2.14-.54 3.23-2.58 4.7-3.55 1.4-.93 2.87-.71 4.3-1.42 1.1-.55 1.68-1.65 2.18-2.68.56-1.12.56-2.43-.23-3.22-1.18-1.18-2.92-.97-4.52-.65-2.34.47-3.27-.88-5.97-1.51ZM8.88 10a.75.75 0 0 1 .38.99c-.81 1.82-1.1 3.52-.64 4.56a.75.75 0 1 1-1.37.62c-.72-1.6-.26-3.67.64-5.79A.75.75 0 0 1 8.88 10Zm3.48-.75a.75.75 0 0 1 .45.96c-.73 2.05-.92 3.77-.24 5.14a.75.75 0 0 1-1.35.66c-.96-1.93-.62-4.1.18-6.31a.75.75 0 0 1 .96-.45Z" fill="currentColor"/>
</svg>
