<svg xmlns="http://www.w3.org/2000/svg" viewBox="0 0 24 24" fill="none">
  <path fill-rule="evenodd" clip-rule="evenodd" d="M9.56 4.97a.75.75 0 0 1 .47.95L9.56 7.25H12a.75.75 0 0 1 0 1.5H8.97l-.06.18-1.78 4.46A4.25 4.25 0 1 1 5.4 13.1l1.6-4.01.01-.02.65-1.82H8a.75.75 0 0 1 0-1.5h1.1l.49-1.31a.75.75 0 0 1 .97-.47ZM6.5 14a3.25 3.25 0 1 0 0 3 3.25 3.25 0 0 0 0-3Zm7.35-5.25h1.02l.48-.96a.75.75 0 0 1 1.34.67l-.72 1.44 2.87 5.49a4.25 4.25 0 1 1-1.34.7L14.88 10.7l-.34.65a.75.75 0 0 1-1.34-.67l.71-1.43a.75.75 0 0 1 .67-.42l.22-.01.01-.07ZM17.5 14a3.25 3.25 0 1 0 0 3 3.25 3.25 0 0 0 0-3Z" fill="currentColor"/>
</svg>
