<svg xmlns="http://www.w3.org/2000/svg" viewBox="0 0 24 24" fill="none">
  <circle cx="5.5" cy="16" r="4" fill="currentColor"/>
  <circle cx="18.5" cy="16" r="4" fill="currentColor"/>
  <path d="M9.25 16l1.93-4.82a.5.5 0 0 1 .46-.31h5.17a.5.5 0 0 1 .47.33l1.72 4.8" fill="currentColor"/>
  <path d="M11.17 10.87l-.92-2.31a.5.5 0 0 1 .46-.69h1.79a.5.5 0 0 1 0 1h-.97l.55 1.37-.91.63Z" fill="currentColor"/>
  <path d="M18 7a.5.5 0 0 1 .47.33l.78 2.17a.5.5 0 0 1-.94.34l-.78-2.17A.5.5 0 0 1 18 7Z" fill="currentColor"/>
  <rect x="14.5" y="12.75" width="4" height="1.5" rx=".75" fill="currentColor"/>
</svg>
