<svg xmlns="http://www.w3.org/2000/svg" viewBox="0 0 24 24" fill="none">
  <path fill-rule="evenodd" clip-rule="evenodd" d="M5.25 4.5a1.75 1.75 0 0 1 1.75-1.75h2a1.75 1.75 0 0 1 1.75 1.75v4.76a5.25 5.25 0 1 1-8.5 5.24 5.25 5.25 0 0 1 3-4.74V4.5Zm1 1a.75.75 0 0 1 1.5 0v3.75a.75.75 0 0 1-1.5 0V5.5ZM14.75 4.5a1.75 1.75 0 0 0-1.75 1.75v3.01a5.25 5.25 0 1 0 8.5 5.24 5.25 5.25 0 0 0-3-4.74V4.5a1.75 1.75 0 0 0-1.75-1.75h-2Zm2.75 1a.75.75 0 0 0-1.5 0v3.75a.75.75 0 0 0 1.5 0V5.5ZM10.5 10.75a.75.75 0 0 0 0 1.5h3a.75.75 0 0 0 0-1.5h-3Z" fill="currentColor"/>
</svg>
