<svg xmlns="http://www.w3.org/2000/svg" viewBox="0 0 24 24" fill="none">
  <path fill-rule="evenodd" clip-rule="evenodd" d="M12.5 2.25a.75.75 0 0 1 .75.75v1.34c.95-.37 1.85-.87 2.58-1.55a.75.75 0 1 1 1.04 1.08c-1.02.98-2.3 1.62-3.52 2.02A4.25 4.25 0 0 1 16.73 9.5a4.75 4.75 0 0 1 4.02 4.7v.3a4.75 4.75 0 0 1-4.75 4.75h-.45a4.75 4.75 0 0 1-3.41-1.44 4.75 4.75 0 0 1-3.09 1.44H8.6a4.75 4.75 0 0 1-4.35-4.75v-.3A4.75 4.75 0 0 1 8.27 9.5a4.25 4.25 0 0 1 3.48-3.62A4.25 4.25 0 0 1 11.75 3a.75.75 0 0 1 .75-.75Z" fill="currentColor"/>
</svg>
