<svg xmlns="http://www.w3.org/2000/svg" viewBox="0 0 24 24" fill="none">
  <path fill-rule="evenodd" clip-rule="evenodd" d="M8.5 5.5a2 2 0 0 1 2-2h3a2 2 0 0 1 2 2V6.25H20A2.25 2.25 0 0 1 22.25 8.5v3.25H14v-.75a.75.75 0 0 0-.75-.75h-2.5a.75.75 0 0 0-.75.75v.75H1.75V8.5A2.25 2.25 0 0 1 4 6.25h4.5V5.5Zm2 .75h3V5.5a.5.5 0 0 0-.5-.5h-2a.5.5 0 0 0-.5.5v.75Z" fill="currentColor"/>
  <path fill-rule="evenodd" clip-rule="evenodd" d="M1.75 13.25V19A2.25 2.25 0 0 0 4 21.25h16A2.25 2.25 0 0 0 22.25 19v-5.75H14v.75a.75.75 0 0 1-.75.75h-2.5a.75.75 0 0 1-.75-.75v-.75H1.75Z" fill="currentColor"/>
</svg>
