<svg xmlns="http://www.w3.org/2000/svg" viewBox="0 0 24 24" fill="none">
  <path fill-rule="evenodd" clip-rule="evenodd" d="M5.11 4.58a.75.75 0 0 0-1.06 1.06 9.75 9.75 0 0 0 0 12.73.75.75 0 0 0 1.06-1.06 8.25 8.25 0 0 1 0-10.61.75.75 0 0 0 0-1.06l-.53.53.53-.53Zm14.84 0a.75.75 0 0 0-1.06 0 .75.75 0 0 0 0 1.06 8.25 8.25 0 0 1 0 10.61.75.75 0 0 0 1.06 1.06 9.75 9.75 0 0 0 0-12.73ZM7.93 7.93a.75.75 0 0 0-1.06 1.06 4.25 4.25 0 0 0 0 6.01.75.75 0 0 0 1.06-1.06 2.75 2.75 0 0 1 0-3.89.75.75 0 0 0 0-1.06l-.53.53.53-.53Zm9.2 0a.75.75 0 0 0-1.06 0 .75.75 0 0 0 0 1.06 2.75 2.75 0 0 1 0 3.89.75.75 0 0 0 1.06 1.06 4.25 4.25 0 0 0 0-6.01ZM12 9.5a2.5 2.5 0 1 0 0 5 2.5 2.5 0 0 0 0-5Z" fill="currentColor"/>
</svg>
