<svg xmlns="http://www.w3.org/2000/svg" viewBox="0 0 24 24" fill="none">
  <path fill-rule="evenodd" clip-rule="evenodd" d="M12 5.25c-1.8 0-3.42 1.15-3.96 2.72a.75.75 0 0 1-.6.5c-.86.1-1.66.38-2.24.96-.58.58-.72 1.32-.42 2.12a.75.75 0 0 1-.14.73C4.21 12.77 3.25 13.54 3.25 14.5c0 1.07 1 2.07 2.72 2.82 1.6.69 3.74 1.12 6.03 1.12s4.43-.43 6.03-1.12c1.72-.75 2.72-1.75 2.72-2.82 0-.96-.96-1.73-1.39-2.22a.75.75 0 0 1-.14-.73c.3-.8.16-1.54-.42-2.12-.58-.58-1.38-.86-2.24-.96a.75.75 0 0 1-.6-.5C15.42 6.4 13.8 5.25 12 5.25ZM9 10.25a1.25 1.25 0 1 0 0 2.5 1.25 1.25 0 0 0 0-2.5Zm4.5-.75a1 1 0 1 0 0 2 1 1 0 0 0 0-2Zm-2.5 3a1 1 0 1 0 0 2 1 1 0 0 0 0-2Z" fill="currentColor"/>
</svg>
