<svg xmlns="http://www.w3.org/2000/svg" viewBox="0 0 24 24" fill="none">
  <path fill-rule="evenodd" clip-rule="evenodd" d="M5 2.25A1.75 1.75 0 0 0 3.25 4v16A1.75 1.75 0 0 0 5 21.75h4.25V17.5a1.75 1.75 0 0 1 1.75-1.75h2a1.75 1.75 0 0 1 1.75 1.75v4.25H19a1.75 1.75 0 0 0 1.75-1.75V4A1.75 1.75 0 0 0 19 2.25H5ZM7.25 7a.75.75 0 0 1 .75-.75h2a.75.75 0 0 1 0 1.5H8a.75.75 0 0 1-.75-.75Zm6 0a.75.75 0 0 1 .75-.75h2a.75.75 0 0 1 0 1.5h-2a.75.75 0 0 1-.75-.75Zm-6 4a.75.75 0 0 1 .75-.75h2a.75.75 0 0 1 0 1.5H8a.75.75 0 0 1-.75-.75Zm6 0a.75.75 0 0 1 .75-.75h2a.75.75 0 0 1 0 1.5h-2a.75.75 0 0 1-.75-.75Z" fill="currentColor"/>
</svg>
