<svg xmlns="http://www.w3.org/2000/svg" viewBox="0 0 24 24" fill="none">
  <path fill-rule="evenodd" clip-rule="evenodd" d="M8 2c0 0-1.25 1.42-1.25 2.5a1.25 1.25 0 0 0 2.5 0C9.25 3.42 8 2 8 2Zm4 0s-1.25 1.42-1.25 2.5a1.25 1.25 0 0 0 2.5 0C13.25 3.42 12 2 12 2Zm4 0s-1.25 1.42-1.25 2.5a1.25 1.25 0 0 0 2.5 0C17.25 3.42 16 2 16 2ZM7.25 7a.75.75 0 0 1 1.5 0v3.25h6.5V7a.75.75 0 0 1 1.5 0v3.25h3.75A1.5 1.5 0 0 1 22 11.75v3.5H2v-3.5a1.5 1.5 0 0 1 1.5-1.5h3.75V7Zm-5.25 9.5h20v2.75a1.5 1.5 0 0 1-1.5 1.5H3.5A1.5 1.5 0 0 1 2 19.25v-2.75Z" fill="currentColor"/>
</svg>
