<svg xmlns="http://www.w3.org/2000/svg" viewBox="0 0 24 24" fill="none">
  <path fill-rule="evenodd" clip-rule="evenodd" d="M6 2C4.34 2 3 3.34 3 5v14c0 1.66 1.34 3 3 3h12c1.66 0 3-1.34 3-3V5c0-1.66-1.34-3-3-3H6Zm1 3.5a1 1 0 0 0-1 1v3a1 1 0 0 0 1 1h10a1 1 0 0 0 1-1v-3a1 1 0 0 0-1-1H7ZM8 14a1.25 1.25 0 1 1 0-2.5A1.25 1.25 0 0 1 8 14Zm4-1.25a1.25 1.25 0 1 0 2.5 0 1.25 1.25 0 0 0-2.5 0ZM16 14a1.25 1.25 0 1 1 0-2.5 1.25 1.25 0 0 1 0 2.5ZM6.75 17a1.25 1.25 0 1 0 2.5 0 1.25 1.25 0 0 0-2.5 0ZM12 18.25a1.25 1.25 0 1 1 0-2.5 1.25 1.25 0 0 1 0 2.5Zm2.75-1.25a1.25 1.25 0 1 0 2.5 0 1.25 1.25 0 0 0-2.5 0Z" fill="currentColor"/>
</svg>
