<svg xmlns="http://www.w3.org/2000/svg" viewBox="0 0 24 24" fill="none">
  <path fill-rule="evenodd" clip-rule="evenodd" d="M8 2.5a.75.75 0 0 1 .75.75V5h6.5V3.25a.75.75 0 0 1 1.5 0V5H19a2 2 0 0 1 2 2v12a2 2 0 0 1-2 2H5a2 2 0 0 1-2-2V7a2 2 0 0 1 2-2h2.25V3.25A.75.75 0 0 1 8 2.5ZM3 10.5V19a2 2 0 0 0 2 2h14a2 2 0 0 0 2-2v-8.5H3Zm5.75 3.5a.75.75 0 1 1-1.5 0 .75.75 0 0 1 1.5 0Zm3.5.75a.75.75 0 1 0 0-1.5.75.75 0 0 0 0 1.5ZM16.75 14a.75.75 0 1 1-1.5 0 .75.75 0 0 1 1.5 0ZM8 18.25a.75.75 0 1 0 0-1.5.75.75 0 0 0 0 1.5Zm4.75-.75a.75.75 0 1 1-1.5 0 .75.75 0 0 1 1.5 0Z" fill="currentColor"/>
</svg>
