<svg xmlns="http://www.w3.org/2000/svg" viewBox="0 0 24 24" fill="none">
  <path fill-rule="evenodd" clip-rule="evenodd" d="M4.5 5.25A2.25 2.25 0 0 0 2.25 7.5V18A2.25 2.25 0 0 0 4.5 20.25h15A2.25 2.25 0 0 0 21.75 18V7.5a2.25 2.25 0 0 0-2.25-2.25h-2.09a.75.75 0 0 1-.65-.38l-.91-1.5A2.25 2.25 0 0 0 13.9 2.25h-3.8a2.25 2.25 0 0 0-1.94 1.12l-.91 1.5a.75.75 0 0 1-.65.38H4.5ZM12 16.75a4.25 4.25 0 1 0 0-8.5 4.25 4.25 0 0 0 0 8.5Zm0-1.5a2.75 2.75 0 1 0 0-5.5 2.75 2.75 0 0 0 0 5.5Z" fill="currentColor"/>
</svg>
