<svg xmlns="http://www.w3.org/2000/svg" viewBox="0 0 24 24" fill="none">
  <path fill-rule="evenodd" clip-rule="evenodd" d="M6.14 5.72A1.5 1.5 0 0 1 7.43 5h7.14a1.5 1.5 0 0 1 1.3.74L18.17 9.5h.83a1.5 1.5 0 0 1 1.2.6l1.5 2a1.5 1.5 0 0 1 .3.9v4a1.5 1.5 0 0 1-1.5 1.5h-.57a2.75 2.75 0 0 1-5.36 0h-5.14a2.75 2.75 0 0 1-5.36 0H3.5A1.5 1.5 0 0 1 2 17v-3a1.5 1.5 0 0 1 .08-.49L4 10l2.14-4.28ZM7.5 16.75a1.25 1.25 0 1 0 0 2.5 1.25 1.25 0 0 0 0-2.5Zm9 0a1.25 1.25 0 1 0 0 2.5 1.25 1.25 0 0 0 0-2.5ZM7.38 10h9.24L14.88 7H8.62L7.38 10Z" fill="currentColor"/>
</svg>
