<svg xmlns="http://www.w3.org/2000/svg" viewBox="0 0 24 24" fill="none">
  <path fill-rule="evenodd" clip-rule="evenodd" d="M4.5 2.75a.75.75 0 0 0-1.25.56V7a8.25 8.25 0 0 0 2.69 6.09c.02.01.04.03.06.05V15a6 6 0 0 0 12 0v-1.86l.06-.05A8.25 8.25 0 0 0 20.75 7V3.31a.75.75 0 0 0-1.25-.56L16.16 6H7.84L4.5 2.75ZM9 9.5a1.25 1.25 0 1 0 0 2.5 1.25 1.25 0 0 0 0-2.5Zm6 0a1.25 1.25 0 1 0 0 2.5 1.25 1.25 0 0 0 0-2.5Zm-3 4a.75.75 0 0 1 .75.75v.5a.75.75 0 0 1-1.5 0v-.5a.75.75 0 0 1 .75-.75Zm-1.7 2.6a.75.75 0 0 1 1.05.15c.17.23.9.5 1.65 0a.75.75 0 0 1 .9 1.2c-1.35 1.01-3.1.62-3.75-.3a.75.75 0 0 1 .15-1.05Z" fill="currentColor"/>
  <path d="M2.5 11.5l3 .5M21.5 11.5l-3 .5M2.5 14l3-.5M21.5 14l-3-.5" stroke="currentColor" stroke-width="1.5" stroke-linecap="round"/>
</svg>
