<svg xmlns="http://www.w3.org/2000/svg" viewBox="0 0 24 24" fill="none">
  <path fill-rule="evenodd" clip-rule="evenodd" d="M2.25 11c0-2.07 3.8-3.75 9.75-3.75S21.75 8.93 21.75 11c0 .26-.02.52-.05.78a.75.75 0 0 1-.24.46c-.04.04-.08.08-.13.11C20.36 16.88 16.69 20.75 12 20.75c-4.69 0-8.36-3.87-9.33-8.4a.75.75 0 0 1-.12-.13 1.2 1.2 0 0 1-.25-.45c-.03-.25-.05-.51-.05-.77Zm5.25-.5a1 1 0 1 1 2 0 1 1 0 0 1-2 0Zm4.5-.75a1 1 0 1 1 0 2 1 1 0 0 1 0-2Zm2.5.75a1 1 0 1 1 2 0 1 1 0 0 1-2 0Zm5.28 3.07c.97.82 1.62 1.94 1.29 3.38a.75.75 0 1 1-1.46-.35c.2-.85-.13-1.5-.82-2.08a.75.75 0 0 1 .99-1.12v.17Z" fill="currentColor"/>
</svg>
