<svg xmlns="http://www.w3.org/2000/svg" viewBox="0 0 24 24" fill="none">
  <path fill-rule="evenodd" clip-rule="evenodd" d="M9.5 1.75A1.75 1.75 0 0 0 8.28 3.25H6.5A2.25 2.25 0 0 0 4.25 5.5v14A2.25 2.25 0 0 0 6.5 21.75h11a2.25 2.25 0 0 0 2.25-2.25v-14a2.25 2.25 0 0 0-2.25-2.25h-1.78a1.75 1.75 0 0 0-1.22-.75h-5ZM10 3a.25.25 0 0 0-.25.25v.5c0 .14.11.25.25.25h4a.25.25 0 0 0 .25-.25v-.5A.25.25 0 0 0 14 3h-4Zm-1.75 8a.75.75 0 0 1 .75-.75h6a.75.75 0 0 1 0 1.5H9a.75.75 0 0 1-.75-.75Zm.75 2.75a.75.75 0 0 0 0 1.5h4a.75.75 0 0 0 0-1.5H9Z" fill="currentColor"/>
</svg>
