<svg xmlns="http://www.w3.org/2000/svg" viewBox="0 0 24 24" fill="none">
  <path fill-rule="evenodd" clip-rule="evenodd" d="M9 1.25a.75.75 0 0 1 .75.75v2.25H14.25V2a.75.75 0 0 1 1.5 0v2.25H16a2 2 0 0 1 2 2v.25H20.25V6a.75.75 0 0 1 1.5 0v3a.75.75 0 0 1-1.5 0v-.25H18v6.5h2.25V15a.75.75 0 0 1 1.5 0v3a.75.75 0 0 1-1.5 0v-.25H18V18a2 2 0 0 1-2 2h-.25V22a.75.75 0 0 1-1.5 0v-2H9.75v2a.75.75 0 0 1-1.5 0v-2.25H8a2 2 0 0 1-2-2v-.25H3.75V18a.75.75 0 0 1-1.5 0v-3a.75.75 0 0 1 1.5 0v.25H6v-6.5H3.75V9a.75.75 0 0 1-1.5 0V6a.75.75 0 0 1 1.5 0v.5H6V6a2 2 0 0 1 2-2h.25V2A.75.75 0 0 1 9 1.25ZM8 7.25a.75.75 0 0 0-.75.75v8c0 .41.34.75.75.75h8a.75.75 0 0 0 .75-.75V8a.75.75 0 0 0-.75-.75H8Z" fill="currentColor"/>
</svg>
