<svg xmlns="http://www.w3.org/2000/svg" viewBox="0 0 24 24" fill="none">
  <path fill-rule="evenodd" clip-rule="evenodd" d="M5.68 3a.75.75 0 0 1 .73-.57h7.18a.75.75 0 0 1 .73.57l1 4a.75.75 0 0 1-.07.57H15.75v4.18h1.69l1.7-2.56a.75.75 0 0 1 .63-.34H22a.75.75 0 0 1 .63 1.16l-2 3a.75.75 0 0 1-.14.16l.5 3.58a.75.75 0 0 1-.74.87h-3a.75.75 0 0 1-.74-.63l-.38-2.62H15.75V19.5a2.25 2.25 0 0 1-2.25 2.25h-7A2.25 2.25 0 0 1 4.25 19.5V8.25h-.93a.75.75 0 0 1-.07-.57l1-4ZM4.25 12.5v-2.75h10v2.75h-10Z" fill="currentColor"/>
</svg>
