<svg xmlns="http://www.w3.org/2000/svg" viewBox="0 0 24 24" fill="none">
  <path fill-rule="evenodd" clip-rule="evenodd" d="M12 3.25c-2.3 0-4.5 1.65-6.12 4.88l-.1.22L8.14 14.3a.75.75 0 0 1-.4.86c-1.6.7-3.4 2.15-4.35 3.58a.75.75 0 0 1-.22.22c-1.64-1.25-2.56-3.43-2.03-6.08.55-2.75 2.72-4.52 4.42-5.13L5.7 7.7C7.33 4.44 9.58 3.25 12 3.25s4.67 1.19 6.3 4.45l.14.05c1.7.61 3.87 2.38 4.42 5.13.53 2.65-.39 4.83-2.03 6.08a.75.75 0 0 1-.22-.22c-.95-1.43-2.75-2.88-4.35-3.58a.75.75 0 0 1-.4-.86l2.36-5.95-.1-.22C16.5 4.9 14.3 3.25 12 3.25Zm-3.3 12.2c1.06-.3 2.14-.45 3.3-.45s2.24.15 3.3.45c2 .84 4.07 2.53 5.08 4.13-2.53 1.47-5.2 2.07-8.38 2.07s-5.85-.6-8.38-2.07c1.01-1.6 3.08-3.29 5.08-4.13Z" fill="currentColor"/>
</svg>
