<svg xmlns="http://www.w3.org/2000/svg" viewBox="0 0 24 24" fill="none">
  <path d="M19.75 5.5c0 1.85-3.33 3.25-7.75 3.25S4.25 7.35 4.25 5.5 7.58 2.25 12 2.25s7.75 1.4 7.75 3.25Z" fill="currentColor"/>
  <path d="M4.25 7.5v4c0 1.66 2.93 3.02 6.75 3.22.33.02.66.03 1 .03s.67-.01 1-.03c3.82-.2 6.75-1.56 6.75-3.22v-4c-1.32 1.2-4.18 2-7.75 2s-6.43-.8-7.75-2Z" fill="currentColor"/>
  <path d="M4.25 13.5v5c0 1.85 3.33 3.25 7.75 3.25s7.75-1.4 7.75-3.25v-5c-1.32 1.2-4.18 2-7.75 2s-6.43-.8-7.75-2Z" fill="currentColor"/>
</svg>
