<svg xmlns="http://www.w3.org/2000/svg" viewBox="0 0 24 24" fill="none">
  <path fill-rule="evenodd" clip-rule="evenodd" d="M9.75 1.75a.75.75 0 0 0-1.4-.1L7.05 4.2 5.6 5.85 4.25 7.75a.75.75 0 0 0-.05.1L3.75 9.6l-.4 1.55a.75.75 0 0 0 .1.6l.55.75-.5.5c-.5.5-.75 1.25-.75 2v.5c0 2.75 1.5 5.1 3.75 5.95.75.3 1.65.45 2.5.55h3c.85-.1 1.75-.25 2.5-.55 2.25-.85 3.75-3.2 3.75-5.95V15c0-.75-.25-1.5-.75-2l-.5-.5.55-.75a.75.75 0 0 0 .1-.6l-.4-1.55-.45-1.75a.75.75 0 0 0-.05-.1L15.95 5.85 14.5 4.2l-1.3-2.55a.75.75 0 0 0-1.4.1l-.35 1.2L12 3.8l-.55-.85-.35-1.2ZM10.5 16a1 1 0 1 0 0 1.25.75.75 0 0 1 0-1.25Zm3 0a1 1 0 1 1 0 1.25.75.75 0 0 1 0-1.25Zm-2.25 3c.25.25.5.25.75.25s.5 0 .75-.25a.75.75 0 0 1 1 1.1c-.45.4-1.05.65-1.75.65s-1.3-.25-1.75-.65a.75.75 0 0 1 1-1.1Z" fill="currentColor"/>
</svg>
