<svg xmlns="http://www.w3.org/2000/svg" viewBox="0 0 24 24" fill="none">
  <path fill-rule="evenodd" clip-rule="evenodd" d="M9.08 2.89a.75.75 0 0 0-.45-.11c-1.6.42-3.03 1.2-4.17 2.34a1.5 1.5 0 0 0-.42.78c-.52 3.58-1.05 7.58-.26 11.23a1.5 1.5 0 0 0 .6.9c1.31 1.05 2.89 1.84 4.42 2.17a1.25 1.25 0 0 0 1.27-.52l.38-.65a12.3 12.3 0 0 0 1.55.1c.53 0 1.05-.04 1.55-.1l.38.65a1.25 1.25 0 0 0 1.27.52c1.53-.33 3.1-1.12 4.42-2.17a1.5 1.5 0 0 0 .6-.9c.79-3.65.26-7.65-.26-11.23a1.5 1.5 0 0 0-.42-.78c-1.14-1.14-2.57-1.92-4.17-2.34a.75.75 0 0 0-.82.37l-.3.55A12.58 12.58 0 0 0 12 3.75c-.86 0-1.68.08-2.45.24l-.3-.55a.75.75 0 0 0-.37-.26l.2-.29ZM9.25 10.25a2.25 2.25 0 1 0 0 4.5 2.25 2.25 0 0 0 0-4.5Zm5.5 0a2.25 2.25 0 1 0 0 4.5 2.25 2.25 0 0 0 0-4.5Z" fill="currentColor"/>
</svg>
