<svg xmlns="http://www.w3.org/2000/svg" viewBox="0 0 24 24" fill="none">
  <path fill-rule="evenodd" clip-rule="evenodd" d="M9.08 3.25a.75.75 0 0 1 .67-.5h4.5a.75.75 0 0 1 .67.42l.7 1.39A8.25 8.25 0 0 1 20.25 12v.5c0 1.15-.28 2.27-.82 3.27L18 18l-.44 2.18a1.75 1.75 0 0 1-1.72 1.42h-1.5a1.75 1.75 0 0 1-1.72-1.42L12 17.5l-.62 2.68a1.75 1.75 0 0 1-1.72 1.42h-1.5a1.75 1.75 0 0 1-1.72-1.42L5.99 18l-1.43-2.23A6.4 6.4 0 0 1 3.75 12.5V12a8.25 8.25 0 0 1 4.63-7.44l.7-1.31ZM9.5 9a1.25 1.25 0 1 0 0 2.5 1.25 1.25 0 0 0 0-2.5Zm5 0a1.25 1.25 0 1 0 0 2.5 1.25 1.25 0 0 0 0-2.5ZM10 14c-1.1 0-2.75.56-2.75 1.75S10.9 17.5 12 17.5s4.75-1.56 4.75-2.75S15.1 14 14 14h-4Z" fill="currentColor"/>
  <path d="M4.5 6L3 4.5" stroke="currentColor" stroke-width="1.5" stroke-linecap="round"/>
  <path d="M19.5 6L21 4.5" stroke="currentColor" stroke-width="1.5" stroke-linecap="round"/>
</svg>
