<svg xmlns="http://www.w3.org/2000/svg" viewBox="0 0 24 24" fill="none">
  <path fill-rule="evenodd" clip-rule="evenodd" d="M12 1.25a.75.75 0 0 1 .75.75v1.79A4.25 4.25 0 0 1 17 4.75a.75.75 0 0 1 0 1.5h-4.25V11h2.75a4.25 4.25 0 0 1 .28 8.49l-.03.01v1.75a.75.75 0 0 1-1.5 0v-1.75H7a.75.75 0 0 1 0-1.5h4.25V13H8.5a4.25 4.25 0 0 1-.28-8.49l.03-.01V2a.75.75 0 0 1 .75-.75Zm-.75 4.79V11H8.5a2.75 2.75 0 0 1 0-5.5h.02l2.73.04Zm1.5 7.46V18h2.75a2.75 2.75 0 0 0 0-5.5h-.02l-2.73.5Z" fill="currentColor"/>
</svg>
