<svg xmlns="http://www.w3.org/2000/svg" viewBox="0 0 24 24" fill="none">
  <path fill-rule="evenodd" clip-rule="evenodd" d="M15.25 5.5c-1.62-1.12-3.62-1.37-5.5-.68C7.25 5.87 5.37 7.75 4.75 10.12v.13c-.25 1.75.5 3.25 1.75 4.62l-1.12 2c-.5.87.37 1.75 1.25 1.25l2.12-1.62c.75.62 1.62 1.12 2.62 1.37 1.62.5 3.5.75 5.25.25 2.5-.5 4.37-2 5.5-3.75.87-1.5.87-3.5 0-5C21.12 7.87 19.5 6.87 18 6.37c.37-.87.62-2 .62-2.87 0-.87-.87-1.25-1.25-.37L15.25 5.5ZM16 9a1.25 1.25 0 1 0 0 2.5A1.25 1.25 0 0 0 16 9Zm-5.87 3.62a.75.75 0 0 0-.37 1c.12.25.5.37.75.25 1.37-.87 3.37-1 4.87-.5a.75.75 0 0 0 .5-1.37c-1.87-.62-4.25-.5-5.75.62Z" fill="currentColor"/>
</svg>
