<svg xmlns="http://www.w3.org/2000/svg" viewBox="0 0 24 24" fill="none">
  <path d="M11.5 2.5c.75-.13 1.5.13 2 .63.63.5 1 1.25 1.38 2 .38.88.63 1.75.75 2.75.13 1 .06 2-.13 3-.25 1.13-.63 2.25-1.13 3.25-.5 1-1.13 1.88-1.88 2.63-.63.63-1.38 1.13-2.13 1.63-.5.38-1.13.63-1.75.63-.5 0-.88-.25-1.13-.63-.38-.5-.5-1.13-.5-1.75 0-.75.13-1.5.38-2.25.25-.63.5-1.25.63-2 .13-.63.06-1.25-.06-1.88-.13-.5-.06-1 .13-1.5.25-.63.63-1.13 1.13-1.63.38-.38.88-.75 1.38-1 .38-.25.75-.5 1.13-.63.25-.13.5-.19.75-.25Z" fill="currentColor"/>
</svg>
