<svg xmlns="http://www.w3.org/2000/svg" viewBox="0 0 24 24" fill="none">
  <path d="M2.5 9c.75-.63 1.75-1 2.75-1.25 1.25-.25 2.5-.13 3.75.13 1.25.25 2.38.63 3.63.75 1.25.13 2.5 0 3.63-.25.88-.19 1.75-.5 2.5-.25.63.19 1 .63 1.25 1.13.25.63.25 1.25 0 1.88-.25.5-.63.88-.88 1.38-.25.5-.38 1-.13 1.5.25.63.75.88 1 1.38.25.5.13 1-.25 1.38-.5.5-1.13.63-1.88.75-1 .13-2 0-3-.25-1.25-.25-2.38-.5-3.63-.5-1.13 0-2.25.13-3.25.38-1 .25-1.88.63-2.63.38-.63-.19-1-.63-1.25-1.13-.25-.63-.13-1.25.13-1.75.25-.5.63-.88.75-1.38.13-.5-.06-1-.38-1.38-.38-.38-.88-.63-1.13-1.13-.25-.5-.13-1 .13-1.38.13-.13.25-.25.38-.38Z" fill="currentColor"/>
</svg>
