<svg xmlns="http://www.w3.org/2000/svg" viewBox="0 0 24 24" fill="none">
  <path fill-rule="evenodd" clip-rule="evenodd" d="M12 1.75C6.34 1.75 1.75 6.34 1.75 12S6.34 22.25 12 22.25 22.25 17.66 22.25 12 17.66 1.75 12 1.75ZM9.18 3.68a.75.75 0 0 0-1.24.84c3.68 4.96 6.16 9.87 7.49 16.27a.75.75 0 1 0 1.47-.29c-1.38-6.63-3.96-11.72-7.72-16.82Zm5.64 0a.75.75 0 0 1 1.24.84c-3.68 4.96-6.16 9.87-7.49 16.27a.75.75 0 1 1-1.47-.29c1.38-6.63 3.96-11.72 7.72-16.82ZM2.34 13.14a.75.75 0 0 1 .42-.98c3.56-1.63 8-1.75 11.36-.25 3.36 1.5 5.64 1.13 7.36.5a.75.75 0 0 1 .52 1.41c-1.97.72-4.52 1.16-8.14-.45-3.01-1.33-7.04-1.26-10.54.35a.75.75 0 0 1-.98-.58Z" fill="currentColor"/>
</svg>
