<svg xmlns="http://www.w3.org/2000/svg" viewBox="0 0 24 24" fill="none">
  <path d="M2.47 3.47a.75.75 0 0 1 1.06 0l6.25 6.25a.75.75 0 0 1-1.06 1.06L2.47 4.53a.75.75 0 0 1 0-1.06Z" fill="currentColor"/>
  <path d="M21.53 3.47a.75.75 0 0 0-1.06 0l-6.25 6.25a.75.75 0 0 0 1.06 1.06l6.25-6.25a.75.75 0 0 0 0-1.06Z" fill="currentColor"/>
  <circle cx="2.5" cy="3.5" r="1" fill="currentColor"/>
  <circle cx="21.5" cy="3.5" r="1" fill="currentColor"/>
  <path d="M3.25 9c0-1.93 3.92-3.5 8.75-3.5s8.75 1.57 8.75 3.5v7c0 1.93-3.92 3.5-8.75 3.5S3.25 17.93 3.25 16V9Z" fill="currentColor"/>
</svg>
