<svg xmlns="http://www.w3.org/2000/svg" viewBox="0 0 24 24" fill="none">
  <path fill-rule="evenodd" clip-rule="evenodd" d="M12 2a10 10 0 1 0 0 20 10 10 0 0 0 0-20ZM4.07 11.25h2.56c.1-2.16.6-4.16 1.43-5.78A8.52 8.52 0 0 0 4.07 11.25Zm0 1.5a8.52 8.52 0 0 0 3.99 5.78c-.83-1.62-1.33-3.62-1.43-5.78H4.07Zm4.06 0c.1 2.14.64 4.07 1.52 5.48.72 1.16 1.51 1.77 2.35 1.77s1.63-.61 2.35-1.77c.88-1.41 1.42-3.34 1.52-5.48H8.13Zm7.74-1.5c-.1-2.14-.64-4.07-1.52-5.48C13.63 4.61 12.84 4 12 4s-1.63.61-2.35 1.77c-.88 1.41-1.42 3.34-1.52 5.48h7.74Zm1.5 1.5c-.1 2.16-.6 4.16-1.43 5.78a8.52 8.52 0 0 0 3.99-5.78h-2.56Zm2.56-1.5a8.52 8.52 0 0 0-3.99-5.78c.83 1.62 1.33 3.62 1.43 5.78h2.56Z" fill="currentColor"/>
</svg>
