<svg xmlns="http://www.w3.org/2000/svg" viewBox="0 0 24 24" fill="none">
  <path fill-rule="evenodd" clip-rule="evenodd" d="M12.04 2.82a.75.75 0 0 1 .96.46c.26.73.62 1.17 1.08 1.44.47.28 1.1.4 1.96.35a.75.75 0 0 1 .09 1.5c-.67.04-1.34.02-1.93-.12C16.31 7.63 18 10.22 18 13c0 3.72-2.18 6.63-5.37 7.27-3.19.63-6.88-1.36-8.48-5.09C2.55 11.46 3.41 7.57 6.09 5.82l.04-.03c1.73-1.17 3.87-1.32 5.91-.97Zm-3.08 5.41a.75.75 0 0 0-.42-.97c-.98-.35-2.12.06-2.77 1.13a.75.75 0 1 0 1.3.75c.27-.47.65-.63.92-.54a.75.75 0 0 0 .97-.37ZM9 12.73a.75.75 0 0 1 .42.97c-.27.72-.1 1.19.12 1.41a.75.75 0 1 1-1.08 1.04c-.72-.74-.87-1.85-.43-3.01a.75.75 0 0 1 .97-.41Zm3.54-1.46a.75.75 0 0 0-.42-.97c-.98-.35-2.12.06-2.77 1.13a.75.75 0 1 0 1.3.75c.27-.47.65-.63.92-.54a.75.75 0 0 0 .97-.37Zm-1.08 3.46a.75.75 0 0 1 .42.97c-.27.72-.1 1.19.12 1.41a.75.75 0 1 1-1.08 1.04c-.72-.74-.87-1.85-.43-3.01a.75.75 0 0 1 .97-.41Z" fill="currentColor"/>
</svg>
