<svg xmlns="http://www.w3.org/2000/svg" viewBox="0 0 24 24" fill="none">
  <path fill-rule="evenodd" clip-rule="evenodd" d="M14 2.25C17.87 2.25 21.75 5 21.75 9C21.75 12.25 20.1 14.5 18.75 15.5V20.5A.75.75 0 0 1 18 21.25H16A.75.75 0 0 1 15.25 20.5V16.25H12.75V20.5A.75.75 0 0 1 12 21.25H10A.75.75 0 0 1 9.25 20.5V15.25L9.25 14.4C8.25 14.55 7.35 15.25 6.95 16.25C6.45 17.5 6 18.25 5.35 18.75C5 19 4.25 19.25 3.75 18.75C3 18 3 16.5 3.5 15C4 13 5.25 11.25 6 10C6 8.25 6.5 6.75 7.25 5.5C8.5 3.5 10.5 2.5 14 2.25ZM9.5 8C9.5 8.55 9.95 9 10.5 9C11.05 9 11.5 8.55 11.5 8C11.5 7.45 11.05 7 10.5 7C9.95 7 9.5 7.45 9.5 8ZM8.75 9.5C8 7.75 8.5 6 11 5C9.5 6 9 7.25 9 9C9 10.5 9.75 11.25 11 11C10 11.5 8.75 11 8.25 10L8.75 9.5ZM21 9L22 6" fill="currentColor"/>
</svg>
