<svg xmlns="http://www.w3.org/2000/svg" viewBox="0 0 24 24" fill="none">
  <path fill-rule="evenodd" clip-rule="evenodd" d="M12 1.25c-3.73 0-6.75 3.21-6.75 6.25v.38C3.47 8.52 1.75 10.2 1.75 12.25c0 2.08 1.75 3.75 4 3.75h.5v.25c0 1.01.56 2.38 1.44 3.26a.75.75 0 0 0 1.06-1.06c-.88-.88-1-2.06-1-2.7v-2.5l-1.5-1.5c-.5-.5-1-1.25-1-2.25 0-1.5 1.25-2.75 2.75-2.75v-.25c0-2.76 2.46-4.75 5-4.75s5 1.99 5 4.75v.5h1.5c.83 0 1.5.67 1.5 1.5s-.67 1.5-1.5 1.5H17.5v4.25c0 2.76-2.46 5-5.5 5H9.5a.75.75 0 0 1 0-1.5H12c2.35 0 4-1.7 4-3.5V7.5c0-2.76-1.65-6.25-4-6.25Zm3 5.5a1.25 1.25 0 1 0 0 2.5 1.25 1.25 0 0 0 0-2.5Z" fill="currentColor"/>
</svg>
