<svg xmlns="http://www.w3.org/2000/svg" viewBox="0 0 24 24" fill="none">
  <path fill-rule="evenodd" clip-rule="evenodd" d="M13.5 3.25a8.72 8.72 0 0 0-7.27 3.93A9.23 9.23 0 0 0 4.81 9.75H3a.75.75 0 0 0 0 1.5h1.5c-.02.25-.03.5-.03.75s.01.5.03.75H3a.75.75 0 0 0 0 1.5h1.81a9.23 9.23 0 0 0 1.42 2.57 8.72 8.72 0 0 0 7.27 3.93 8.7 8.7 0 0 0 5.89-2.3.75.75 0 0 0-1.02-1.1A7.2 7.2 0 0 1 13.5 19.2a7.22 7.22 0 0 1-6.04-3.26 7.74 7.74 0 0 1-.88-1.69H16a.75.75 0 0 0 0-1.5H6.18a7.76 7.76 0 0 1-.18-1.5H16a.75.75 0 0 0 0-1.5H6.18c.12-.52.28-1.02.5-1.5.21-.43.47-.84.78-1.22A7.22 7.22 0 0 1 13.5 4.75a7.2 7.2 0 0 1 4.87 1.9.75.75 0 0 0 1.02-1.1 8.7 8.7 0 0 0-5.89-2.3Z" fill="currentColor"/>
</svg>
