<svg xmlns="http://www.w3.org/2000/svg" viewBox="0 0 24 24" fill="none">
  <path fill-rule="evenodd" clip-rule="evenodd" d="M5.5 5.25A.75.75 0 0 0 4.75 6v12.5c0 .41.34.75.75.75h11a.75.75 0 0 0 .75-.75v-5a.75.75 0 0 1 1.5 0v5a2.25 2.25 0 0 1-2.25 2.25h-11A2.25 2.25 0 0 1 3.25 18.5V6a2.25 2.25 0 0 1 2.25-2.25h5a.75.75 0 0 1 0 1.5h-5Z" fill="currentColor"/>
  <path fill-rule="evenodd" clip-rule="evenodd" d="M14.25 3a.75.75 0 0 1 .75-.75h6a.75.75 0 0 1 .75.75v6a.75.75 0 0 1-1.5 0V4.81L10.53 14.53a.75.75 0 0 1-1.06-1.06L19.19 3.75H15a.75.75 0 0 1-.75-.75Z" fill="currentColor"/>
</svg>
