<svg xmlns="http://www.w3.org/2000/svg" viewBox="0 0 24 24" fill="none">
  <path fill-rule="evenodd" clip-rule="evenodd" d="M1.47 1.47a.75.75 0 0 1 1.06 0l20 20a.75.75 0 1 1-1.06 1.06l-3.68-3.68A10.55 10.55 0 0 1 12 20.25c-5.42 0-9.22-4.76-10.28-7.43a.75.75 0 0 1 0-.64C2.53 10.03 4.6 7.27 7.39 5.85L1.47 2.53a.75.75 0 0 1 0-1.06Zm7.01 5.47a4.5 4.5 0 0 0 6.08 6.08l-1.12-1.12a3 3 0 0 1-3.84-3.84L8.48 6.94ZM12 3.75c5.42 0 9.22 4.76 10.28 7.43a.75.75 0 0 1 0 .64 13.33 13.33 0 0 1-2.42 3.73l-3.42-3.42a4.5 4.5 0 0 0-5.57-5.57l-1.6-1.6c.87-.14 1.78-.21 2.73-.21Z" fill="currentColor"/>
</svg>
