<svg xmlns="http://www.w3.org/2000/svg" viewBox="0 0 24 24" fill="none">
  <path fill-rule="evenodd" clip-rule="evenodd" d="M6 2.25A1.75 1.75 0 0 0 4.25 4v16c0 .97.78 1.75 1.75 1.75h12A1.75 1.75 0 0 0 19.75 20V8.5c0-.46-.18-.9-.51-1.24l-4.5-4.5a1.75 1.75 0 0 0-1.24-.51H6Zm7.25 1.5V7.5c0 .97.78 1.75 1.75 1.75h2.75V20a.25.25 0 0 1-.25.25H6a.25.25 0 0 1-.25-.25V4A.25.25 0 0 1 6 3.75h7.25ZM12 10.25a.75.75 0 0 1 .75.75v2.25H15a.75.75 0 0 1 0 1.5h-2.25V17a.75.75 0 0 1-1.5 0v-2.25H9a.75.75 0 0 1 0-1.5h2.25V11a.75.75 0 0 1 .75-.75Z" fill="currentColor"/>
</svg>
