<svg xmlns="http://www.w3.org/2000/svg" viewBox="0 0 24 24" fill="none">
  <path fill-rule="evenodd" clip-rule="evenodd" d="M4 3.5A1.5 1.5 0 0 0 2.5 5v14A1.5 1.5 0 0 0 4 20.5h16a1.5 1.5 0 0 0 1.5-1.5V5A1.5 1.5 0 0 0 20 3.5H4ZM5 7a1 1 0 0 1 1-1h1a1 1 0 0 1 1 1v1a1 1 0 0 1-1 1H6a1 1 0 0 1-1-1V7Zm0 4a1 1 0 0 1 1-1h1a1 1 0 0 1 1 1v1a1 1 0 0 1-1 1H6a1 1 0 0 1-1-1v-1Zm1 3a1 1 0 0 0-1 1v1a1 1 0 0 0 1 1h1a1 1 0 0 0 1-1v-1a1 1 0 0 0-1-1H6Zm10-8a1 1 0 0 1 1-1h1a1 1 0 0 1 1 1v1a1 1 0 0 1-1 1h-1a1 1 0 0 1-1-1V7Zm1 3a1 1 0 0 0-1 1v1a1 1 0 0 0 1 1h1a1 1 0 0 0 1-1v-1a1 1 0 0 0-1-1h-1Zm-1 5a1 1 0 0 1 1-1h1a1 1 0 0 1 1 1v1a1 1 0 0 1-1 1h-1a1 1 0 0 1-1-1v-1ZM10.75 4a.75.75 0 0 0-.75.75v14.5a.75.75 0 0 0 1.5 0V4.75a.75.75 0 0 0-.75-.75Zm3.25.75a.75.75 0 0 1 1.5 0v14.5a.75.75 0 0 1-1.5 0V4.75Z" fill="currentColor"/>
</svg>
