<svg xmlns="http://www.w3.org/2000/svg" viewBox="0 0 24 24" fill="none">
  <path d="M12 1.75a8.25 8.25 0 0 0-8.25 8.25c0 2.6.52 5.2 1.56 7.8a.75.75 0 0 0 1.38-.6c-0.96-2.4-1.44-4.8-1.44-7.2a6.75 6.75 0 0 1 13.5 0 .75.75 0 0 0 1.5 0A8.25 8.25 0 0 0 12 1.75Z" fill="currentColor"/>
  <path d="M15.75 2.88a.75.75 0 0 0-.75 1.3A6.73 6.73 0 0 1 18.75 10a.75.75 0 0 0 1.5 0 8.23 8.23 0 0 0-4.5-7.12Z" fill="currentColor"/>
  <path d="M12 5.75A4.25 4.25 0 0 0 7.75 10c0 3.12-.52 6.24-2.08 9.36a.75.75 0 0 0 1.36.64c1.68-3.36 2.22-6.72 2.22-10a2.75 2.75 0 0 1 5.5 0c0 3.12-.52 6.24-2.08 9.36a.75.75 0 0 0 1.36.64c1.68-3.36 2.22-6.72 2.22-10A4.25 4.25 0 0 0 12 5.75Z" fill="currentColor"/>
  <path d="M12 9.25a.75.75 0 0 0-.75.75v1.5c0 3.64-1.04 6.76-2.58 9.36a.75.75 0 0 0 1.3.76c1.68-2.84 2.78-6.24 2.78-10.12V10a.75.75 0 0 0-.75-.75Z" fill="currentColor"/>
  <path d="M19.72 12.68a.75.75 0 0 0-1.44.42c-0.52 3.12-1.56 5.72-3.12 8.32a.75.75 0 0 0 1.3.76c1.68-2.84 2.78-5.64 3.26-9.5Z" fill="currentColor"/>
</svg>
