<svg xmlns="http://www.w3.org/2000/svg" viewBox="0 0 24 24" fill="none">
  <path fill-rule="evenodd" clip-rule="evenodd" d="M14.25 4.75c-3.25-1-5.87-.75-8.25.75C3.75 7 2.25 9.25 2.25 12s1.5 5 3.75 6.5c2.38 1.5 5 1.75 8.25.75 2.25-.87 3.87-2.5 4.75-4.75.12-.37.25-.75.37-1.12l2.88 3.5a.75.75 0 0 0 1.33-.5V13a.75.75 0 0 0 0-.12V7.63a.75.75 0 0 0-1.33-.5l-2.88 3.5c-.12-.38-.25-.75-.37-1.13-.88-2.25-2.5-3.87-4.75-4.75ZM7.75 9.75a1.25 1.25 0 1 0 0 2.5 1.25 1.25 0 0 0 0-2.5Z" fill="currentColor"/>
</svg>
