<svg xmlns="http://www.w3.org/2000/svg" viewBox="0 0 24 24" fill="none">
  <path fill-rule="evenodd" clip-rule="evenodd" d="M12 1.75a.75.75 0 0 1 .72.54c.43 1.5.98 2.56 1.63 3.42.65.87 1.39 1.55 2.06 2.33.86 1 1.34 2.35 1.34 3.96 0 4-2.49 8.75-5.75 8.75S6.25 16 6.25 13c0-1.38.38-2.67 1.11-3.72.65-1.09 1.44-1.98 2.08-2.94.66-.98 1.2-2.04 1.84-3.88a.75.75 0 0 1 .72-.71Zm0 9.5c-.37.93-.89 1.66-1.35 2.18A3.66 3.66 0 0 0 9.75 16c0 1.76 1.01 3.25 2.25 3.25S14.25 17.76 14.25 16c0-.83-.27-1.55-.75-2.07-.46-.52-.98-1.25-1.5-2.68Z" fill="currentColor"/>
</svg>
