<svg xmlns="http://www.w3.org/2000/svg" viewBox="0 0 24 24" fill="none">
  <path fill-rule="evenodd" clip-rule="evenodd" d="M12 4.25C6.2 4.25 1.5 7.7 1.5 12s4.7 7.75 10.5 7.75S22.5 16.3 22.5 12 17.8 4.25 12 4.25ZM5.25 12.75c.82-.62 1.87-.91 2.92-.8.72.06 1.28.42 1.8.93.44.44.82.69 1.28.69 1 0 1.63-.62 2.38-1.37.82-.82 1.81-1.63 3.87-1.63.41 0 .75.34.75.75s-.34.75-.75.75c-1.56 0-2.13.56-2.88 1.31-.81.81-1.72 1.69-3.12 1.69-.88 0-1.5-.44-2-1-.5-.5-.88-.75-1.47-.8-.81-.08-1.62.15-2.28.55a.75.75 0 0 1-.5-1.07Zm2.88-4c.5-.63 1.18-1 2.12-1 .62 0 1.12.31 1.56.63a.75.75 0 1 1-.87 1.22c-.31-.22-.5-.35-.69-.35-.38 0-.69.25-.94.63a.75.75 0 0 1-1.31-.72l.13-.41Z" fill="currentColor"/>
</svg>
