<svg xmlns="http://www.w3.org/2000/svg" viewBox="0 0 24 24" fill="none">
  <path fill-rule="evenodd" clip-rule="evenodd" d="M5.1 2.35a.75.75 0 0 1 1.35.15L8.7 7.15 12 8.5l3.3-1.35 2.25-4.65a.75.75 0 0 1 1.35-.15l3.5 7c.35.7.1 1.75-.5 2.35L18.5 15c-.85.7-1.65 1.5-2.15 2.5l-.75 1.5c-.6 1-1.5 1.75-2.6 1.75h-.5c-1.1 0-2-.75-2.6-1.75L9.15 17.5C8.65 16.5 7.85 15.7 7 15L3.6 11.85c-.6-.6-.85-1.65-.5-2.35l2-4.15 0-3ZM9.5 10a1.25 1.25 0 1 0 0 2.5 1.25 1.25 0 0 0 0-2.5Zm5 0a1.25 1.25 0 1 0 0 2.5 1.25 1.25 0 0 0 0-2.5ZM11 14.5c.25.5.75.75 1 .75s.75-.25 1-.75a.75.75 0 0 1 1.3.75c-.5.9-1.25 1.5-2.3 1.5s-1.8-.6-2.3-1.5a.75.75 0 0 1 1.3-.75Z" fill="currentColor"/>
</svg>
