<svg xmlns="http://www.w3.org/2000/svg" viewBox="0 0 24 24" fill="none">
  <path fill-rule="evenodd" clip-rule="evenodd" d="M9.5 3.02c-.77.15-1.63.58-2.36 1.15C6.27 4.88 5.5 5.88 5.5 6.75h-.25A2.25 2.25 0 0 0 3 9v2.25h8.25V6.75c-.58-1.06-1.37-2.28-2.26-3.02a2.71 2.71 0 0 0-.63-.46 1.18 1.18 0 0 0-.57-.13c-.07 0-.15 0-.29.04v-.16ZM12.75 6.75v4.5H21V9a2.25 2.25 0 0 0-2.25-2.25h-.25c0-.87-.77-1.87-1.64-2.58a7.41 7.41 0 0 0-2.36-1.15c-.14-.04-.22-.04-.29-.04-.22 0-.41.07-.57.13-.24.1-.45.26-.63.46-.89.74-1.68 1.96-2.26 3.02v-.84Zm8.25 5.5H12.75v9.25h6A2.25 2.25 0 0 0 21 19.25v-7Zm-9.75 9.25v-9.25H3v7a2.25 2.25 0 0 0 2.25 2.25h6Z" fill="currentColor"/>
</svg>
