<svg xmlns="http://www.w3.org/2000/svg" viewBox="0 0 24 24" fill="none">
  <path fill-rule="evenodd" clip-rule="evenodd" d="M12 2a10 10 0 0 0-3.16 19.49c.5.1.68-.22.68-.48v-1.7c-2.78.6-3.37-1.34-3.37-1.34a2.65 2.65 0 0 0-1.11-1.46c-.91-.62.07-.61.07-.61a2.1 2.1 0 0 1 1.53 1.03 2.13 2.13 0 0 0 2.91.83 2.14 2.14 0 0 1 .63-1.34c-2.22-.25-4.56-1.11-4.56-4.94a3.87 3.87 0 0 1 1.03-2.68 3.6 3.6 0 0 1 .1-2.65s.84-.27 2.75 1.03a9.47 9.47 0 0 1 5.02 0c1.91-1.3 2.75-1.03 2.75-1.03a3.6 3.6 0 0 1 .1 2.65 3.87 3.87 0 0 1 1.03 2.68c0 3.84-2.34 4.69-4.57 4.93a2.39 2.39 0 0 1 .68 1.86v2.75c0 .27.18.58.69.48A10 10 0 0 0 12 2Z" fill="currentColor"/>
</svg>
