<svg xmlns="http://www.w3.org/2000/svg" viewBox="0 0 24 24" fill="none">
  <path fill-rule="evenodd" clip-rule="evenodd" d="M12 2a10 10 0 1 0 0 20 10 10 0 0 0 0-20Zm-1 1.08A8.51 8.51 0 0 0 3.68 8.25H8.1c.27-1.83.72-3.42 1.33-4.61.18-.36.37-.67.57-.93V2.7Zm0 6.67H3.5a8.5 8.5 0 0 0 0 2.5H11V9.75Zm0 4H3.68A8.51 8.51 0 0 0 11 18.92V13.75Zm2 5.17A8.51 8.51 0 0 0 20.32 13.75H15.9a16.56 16.56 0 0 1-1.33 4.61c-.18.36-.37.67-.57.93v-.37Zm0-5.17h7.5a8.5 8.5 0 0 0 0-2.5H13v2.5Zm0-4h7.32A8.51 8.51 0 0 0 13 3.08v6.67Z" fill="currentColor"/>
</svg>
