<svg xmlns="http://www.w3.org/2000/svg" viewBox="0 0 24 24" fill="none">
  <circle cx="5.5" cy="8" r="2.5" fill="currentColor"/>
  <circle cx="18.5" cy="8" r="2.5" fill="currentColor"/>
  <path fill-rule="evenodd" clip-rule="evenodd" d="M12 5C8.13 5 5 8.58 5 13c0 4.42 3.13 8 7 8s7-3.58 7-8c0-4.42-3.13-8-7-8ZM9.5 9a2.5 2.5 0 1 0 0 5 2.5 2.5 0 0 0 0-5Zm5 0a2.5 2.5 0 1 0 0 5 2.5 2.5 0 0 0 0-5Zm-4.75 2a.75.75 0 1 1 1.5 0 .75.75 0 0 1-1.5 0Zm5 0a.75.75 0 1 1 1.5 0 .75.75 0 0 1-1.5 0ZM10 16.25a.75.75 0 0 0-.03 1.06c.55.58 1.28.94 2.03.94s1.48-.36 2.03-.94.52-1.05-.03-1.06c-.5.5-1.25.75-2 .75s-1.5-.25-2-.75Z" fill="currentColor"/>
</svg>
