<svg xmlns="http://www.w3.org/2000/svg" viewBox="0 0 24 24" fill="none">
  <path d="M17.5 3.5c1.25.25 2.25 1 2.75 2 .38.75.38 1.5 0 2.25-.25.5-.63.88-.75 1.38-.13.5.13 1 .5 1.38.5.5 1 .88 1.13 1.5.13.63-.13 1.13-.5 1.63-.38.5-.75.88-.75 1.38 0 .38.25.63.38.88l.25.63c-1-.25-1.75-.13-2.5.13-.63.25-1.13.63-1.75.63-.5 0-.88-.25-1.25-.63-.38-.38-.63-.88-1.13-1-.5-.13-1 .13-1.38.5-.5.5-.75 1.13-1.25 1.5-.5.38-1.13.38-1.63.13-.63-.25-1-.75-1.38-1.25-.25-.38-.5-.75-.88-.88-.5-.19-1 0-1.5.25-.63.31-1.13.75-1.75.63-.5-.13-.88-.5-1-1-.25-.63 0-1.25.38-1.75.38-.5.88-.88 1-1.5.13-.5-.13-1-.5-1.38-.38-.38-.88-.63-1-1.13-.13-.63.25-1.13.75-1.5.5-.38 1.13-.5 1.63-.88.5-.38.88-.88 1.5-1.13.75-.25 1.5-.13 2.25.06.63.13 1.13.38 1.75.25.5-.13.88-.5 1.25-.88.5-.5.88-1 1.5-1.25.75-.25 1.5-.13 2.13 0 .5.06.88.19 1.25-.13.25-.19.38-.5.5-.88Z" fill="currentColor"/>
</svg>
