<svg xmlns="http://www.w3.org/2000/svg" viewBox="0 0 24 24" fill="none">
  <path fill-rule="evenodd" clip-rule="evenodd" d="M9.25 2a.75.75 0 0 0-.75.75V4.5H8A2.75 2.75 0 0 0 5.25 7.25v1.5h13.5v-1.5A2.75 2.75 0 0 0 16 4.5h-.5V2.75a.75.75 0 0 0-.75-.75h-5.5Zm1 1.5h3.5V4.5h-3.5V3.5Z" fill="currentColor"/>
  <path fill-rule="evenodd" clip-rule="evenodd" d="M5.25 10.25h13.5V18.5a2.75 2.75 0 0 1-2.75 2.75h-8A2.75 2.75 0 0 1 5.25 18.5v-8.25ZM12 11s-2.5 1.5-2.5 3c0 1.38 1.12 2.5 2.5 2.5s2.5-1.12 2.5-2.5c0-1.5-2.5-3-2.5-3Z" fill="currentColor"/>
</svg>
