<svg xmlns="http://www.w3.org/2000/svg" viewBox="0 0 24 24" fill="none">
  <path fill-rule="evenodd" clip-rule="evenodd" d="M4.22 4.22C6.72 1.72 10.65 2.58 12 5.85c1.35-3.27 5.28-4.13 7.78-1.63 2.72 2.72 2.58 6.82-.12 9.53L12 21.5l-7.66-7.75c-2.7-2.71-2.84-6.81-.12-9.53ZM4 11.25h2.53l1.82-3.04a.75.75 0 0 1 1.3.08l2.35 4.71 1.8-3.15a.75.75 0 0 1 1.17-.18l1.28 1.08H20a.75.75 0 0 1 0 1.5h-4a.75.75 0 0 1-.48-.18l-.87-.73-1.95 3.41a.75.75 0 0 1-1.32-.07l-2.47-4.93-1.11 1.85a.75.75 0 0 1-.64.39H4a.75.75 0 0 1 0-1.5Z" fill="currentColor"/>
</svg>
