<svg xmlns="http://www.w3.org/2000/svg" viewBox="0 0 24 24" fill="none">
  <path fill-rule="evenodd" clip-rule="evenodd" d="M2.25 5.5a.75.75 0 0 1 .75-.75h18a.75.75 0 0 1 0 1.5H12.75V8.5H13a3.75 3.75 0 0 1 3.73 3.25H19.5a2.75 2.75 0 0 1 0 5.5h-2.77A3.75 3.75 0 0 1 13 15.75v.5H16a.75.75 0 0 1 0 1.5h-2.75v.5H14.5a.75.75 0 0 1 0 1.5h-10a.75.75 0 0 1 0-1.5h1.25v-.5H4a.75.75 0 0 1 0-1.5h3v-.5H4a1.75 1.75 0 0 1-1.75-1.75v-5A1.75 1.75 0 0 1 4 8.25h7.25V6.25H3a.75.75 0 0 1-.75-.75Zm4.5 13.25h5.5v-.5H6.75v.5Z" fill="currentColor"/>
</svg>
