<svg xmlns="http://www.w3.org/2000/svg" viewBox="0 0 24 24" fill="none">
  <path fill-rule="evenodd" clip-rule="evenodd" d="M12 2.25a9.75 9.75 0 1 0 0 19.5 9.75 9.75 0 0 0 0-19.5ZM12.25 6.5a3.25 3.25 0 0 0-3.22 2.78.75.75 0 0 0 1.48.22A1.75 1.75 0 0 1 12.25 8a1.75 1.75 0 0 1 1.75 1.75c0 .72-.47 1.13-1.13 1.57-.35.23-.74.5-1.04.87-.3.38-.45.84-.45 1.39a.75.75 0 0 0 1.5 0c0-.31.08-.48.18-.61.11-.14.28-.28.57-.47.71-.47 1.87-1.24 1.87-2.75A3.25 3.25 0 0 0 12.25 6.5ZM12 15.13a1.13 1.13 0 1 0 0 2.25 1.13 1.13 0 0 0 0-2.25Z" fill="currentColor"/>
</svg>
