<svg xmlns="http://www.w3.org/2000/svg" viewBox="0 0 24 24" fill="none">
  <path fill-rule="evenodd" clip-rule="evenodd" d="M12 3.25a8.75 8.75 0 1 0 0 17.5 8.75 8.75 0 0 0 0-17.5ZM12.75 7.5a.75.75 0 0 0-1.5 0V12c0 .24.11.46.3.6l3 2a.75.75 0 1 0 .9-1.2l-2.7-1.8V7.5Z" fill="currentColor"/>
  <path d="M5.25 3.75a.75.75 0 0 0-1.5 0v5c0 .41.34.75.75.75h5a.75.75 0 0 0 0-1.5H6.02A8.22 8.22 0 0 1 12 4.75c.26 0 .51.01.76.04a.75.75 0 0 0 .17-1.49 9.75 9.75 0 0 0-7.68 5.2V3.75Z" fill="currentColor"/>
</svg>
