<svg xmlns="http://www.w3.org/2000/svg" viewBox="0 0 24 24" fill="none">
  <path fill-rule="evenodd" clip-rule="evenodd" d="M7.75 4.5a1.75 1.75 0 0 1 1.75-1.75h5a1.75 1.75 0 0 1 1.75 1.75v.75h1.25a2.75 2.75 0 0 1 2.75 2.75v1.5a1.75 1.75 0 0 1-1.75 1.75 1.75 1.75 0 0 1-1.75-1.75V8h-.2c.13.75.2 1.58.2 2.5v6.5a3.75 3.75 0 0 1-3.75 3.75h-4A3.75 3.75 0 0 1 6.25 17v-6.5c0-3.08 1.82-4.72 5.75-4.74V5.25h-2.5v.5A1.75 1.75 0 0 1 7.75 7.5v-3Zm2.5 8.25a.75.75 0 0 0 0 1.5h3.5a.75.75 0 0 0 0-1.5h-3.5Z" fill="currentColor"/>
</svg>
