<svg xmlns="http://www.w3.org/2000/svg" viewBox="0 0 24 24" fill="none">
  <path fill-rule="evenodd" clip-rule="evenodd" d="M8.65 1.4C8.85 1.15 9.2 1.1 9.5 1.25L10.5 3.25L11.5 2.5C11.7 2.3 12 2.3 12.25 2.4L13.5 1.5C13.75 1.25 14.15 1.25 14.4 1.5C15.3 2.5 15.85 4.75 16.3 7C17.15 11 18 15.75 18.25 20.25L18.35 21.5C18.35 21.9 18.05 22.25 17.65 22.25H15.5C15.15 22.25 14.85 22 14.8 21.65L14.55 19.5C13.5 16.75 12.75 14.25 12 12.25C10.75 11.5 9.25 11 7.75 11.5C6.5 12 5.5 12 4.75 11.75C3.75 11.5 3 10.5 3.5 9.5C4 8.5 5 7 6.25 5.75C7.15 4.5 8 3 8.5 1.75L8.65 1.4ZM7.5 6.25C7.78 6.25 8 6.47 8 6.75C8 7.3 7.55 7.75 7 7.75C6.72 7.75 6.5 7.53 6.5 7.25C6.5 6.7 6.95 6.25 7.5 6.25Z" fill="currentColor"/>
</svg>
