<svg xmlns="http://www.w3.org/2000/svg" viewBox="0 0 24 24" fill="none">
  <path fill-rule="evenodd" clip-rule="evenodd" d="M17.25 2.25c-.4 0-.75.2-1 .5-.4.6-1.1 1.35-2.1 1.75-.9.3-1.75.85-2.35 1.75L10.3 8.75C9.65 9.85 8.55 10.5 7.25 10.65v-.15c0-1.5-1.2-2.75-2.75-2.75H4a.75.75 0 0 0-.75.75v6c0 1.65.55 3.25 1.6 4.5l2 2.25c.35.35.65.55 1 .7v1.75a.75.75 0 0 0 1.5 0v-2.25c0-.15-.05-.3-.1-.45-.1-.2-.25-.35-.4-.55l-2-2.25A5.75 5.75 0 0 1 5.75 15.5V14c.4.35.9.55 1.45.65l.5 1.25c.55 1.15 1.25 2.15 2.15 2.85l.4.5v2.5a.75.75 0 0 0 1.5 0v-2.75c0-.2-.05-.35-.15-.5l-.5-.65c-.7-.55-1.3-1.4-1.75-2.35l-.3-.65c.85-.35 1.65-.95 2.25-1.75l1-1.6 1 1.75c.85 1.15 1.25 2.55 1.25 4v2.5a.75.75 0 0 0 1.5 0v-2.5c0-1.75-.5-3.45-1.5-4.85l-1.25-1.85 1.35-2.15c.55-1 1.4-1.65 2.35-1.95l2.1-.7c.7-.25 1-.95.6-1.6l-1.35-2.15c-.5-.75-1.25-1.3-2.1-1.3ZM17 5.75a1 1 0 1 1 0 2 1 1 0 0 1 0-2Z" fill="currentColor"/>
</svg>
