<svg xmlns="http://www.w3.org/2000/svg" viewBox="0 0 24 24" fill="none">
  <path fill-rule="evenodd" clip-rule="evenodd" d="M12 2.25a.75.75 0 0 1 .75.75v2.19l1.28-1.28a.75.75 0 0 1 1.06 1.06L12.75 7.3V11l3.22-1.86.37-3.59a.75.75 0 0 1 1.49.15l-.27 2.61 1.9-1.1a.75.75 0 0 1 .75 1.3l-1.9 1.1 2.38.83a.75.75 0 0 1-.5 1.42l-3.27-1.14L13.5 12l3.42 1.97 3.27-1.14a.75.75 0 0 1 .5 1.42l-2.38.83 1.9 1.1a.75.75 0 0 1-.75 1.3l-1.9-1.1.27 2.61a.75.75 0 0 1-1.49.15l-.37-3.59L12.75 13v3.69l2.34 2.34a.75.75 0 0 1-1.06 1.06l-1.28-1.28V21a.75.75 0 0 1-1.5 0v-2.19l-1.28 1.28a.75.75 0 0 1-1.06-1.06l2.34-2.34V13l-3.22 1.86-.37 3.59a.75.75 0 0 1-1.49-.15l.27-2.61-1.9 1.1a.75.75 0 0 1-.75-1.3l1.9-1.1-2.38-.83a.75.75 0 0 1 .5-1.42l3.27 1.14L10.5 12 7.08 10.03l-3.27 1.14a.75.75 0 0 1-.5-1.42l2.38-.83-1.9-1.1a.75.75 0 0 1 .75-1.3l1.9 1.1-.27-2.61a.75.75 0 0 1 1.49-.15l.37 3.59L11.25 11V7.3L8.91 4.97a.75.75 0 0 1 1.06-1.06l1.28 1.28V3a.75.75 0 0 1 .75-.75Z" fill="currentColor"/>
</svg>
