<svg xmlns="http://www.w3.org/2000/svg" viewBox="0 0 24 24" fill="none">
  <path fill-rule="evenodd" clip-rule="evenodd" d="M2.5 4.5A1.5 1.5 0 0 1 4 3h13.5a1.5 1.5 0 0 1 1.5 1.5V5.5h-12A1.5 1.5 0 0 0 5.5 7v10H4a1.5 1.5 0 0 1-1.5-1.5v-11ZM7 5.5A1.5 1.5 0 0 0 5.5 7v12A1.5 1.5 0 0 0 7 20.5h14a1.5 1.5 0 0 0 1.5-1.5V7A1.5 1.5 0 0 0 21 5.5H7Zm8.5 3.25a2 2 0 1 0 0 4 2 2 0 0 0 0-4ZM7.47 17.53l3.75-4.25a.75.75 0 0 1 1.06-.06l2.47 2.28 2.03-2.03a.75.75 0 0 1 1.06 0l3.66 3.66V19a.5.5 0 0 1-.5.5H7a.5.5 0 0 1-.5-.5v-.47l.97-1Z" fill="currentColor"/>
</svg>
