<svg xmlns="http://www.w3.org/2000/svg" viewBox="0 0 24 24" fill="none">
  <path fill-rule="evenodd" clip-rule="evenodd" d="M5 2.25A2.75 2.75 0 0 0 2.25 5v14A2.75 2.75 0 0 0 5 21.75h14A2.75 2.75 0 0 0 21.75 19V5A2.75 2.75 0 0 0 19 2.25H5ZM4.5 6a1 1 0 0 1 1-1H7a1 1 0 0 1 1 1v3.5a1 1 0 0 1-1 1H5.5a1 1 0 0 1-1-1V6Zm0 7a1 1 0 0 1 1-1H7a1 1 0 0 1 1 1v2a1 1 0 0 1-1 1H5.5a1 1 0 0 1-1-1v-2Zm6.5-8a1 1 0 0 0-1 1v4.5a1 1 0 0 0 1 1h1.5a1 1 0 0 0 1-1V6a1 1 0 0 0-1-1H11Zm5.5 0a1 1 0 0 0-1 1v2.5a1 1 0 0 0 1 1H18a1 1 0 0 0 1-1V6a1 1 0 0 0-1-1h-1.5Zm-1 6.5a1 1 0 0 1 1-1H18a1 1 0 0 1 1 1V15a1 1 0 0 1-1 1h-1.5a1 1 0 0 1-1-1v-3.5Z" fill="currentColor"/>
</svg>
