<svg xmlns="http://www.w3.org/2000/svg" viewBox="0 0 24 24" fill="none">
  <path fill-rule="evenodd" clip-rule="evenodd" d="M7.25 2.5a.75.75 0 0 1 .75-.75h8a.75.75 0 0 1 .75.75v3a.75.75 0 0 1-.08.34l-.76 1.41h.34a.75.75 0 0 1 .75.75v12a2.75 2.75 0 0 1-2.75 2.75h-2A2.75 2.75 0 0 1 9.25 20V8a.75.75 0 0 1 .75-.75h.34l-.76-1.41a.75.75 0 0 1-.08-.34V2.5ZM11 11.25a1.5 1.5 0 1 0 0 1.5 1.5 1.5 0 0 0 0-1.5Zm2 2.75a1.5 1.5 0 1 0 0 1.5 1.5 1.5 0 0 0 0-1.5Zm-1.5 3.75a1.5 1.5 0 1 0 0 1.5 1.5 1.5 0 0 0 0-1.5Z" fill="currentColor"/>
</svg>
