<svg xmlns="http://www.w3.org/2000/svg" viewBox="0 0 24 24" fill="none">
  <path fill-rule="evenodd" clip-rule="evenodd" d="M4 4.75A2.25 2.25 0 0 0 1.75 7v10A2.25 2.25 0 0 0 4 19.25h16A2.25 2.25 0 0 0 22.25 17V7A2.25 2.25 0 0 0 20 4.75H4ZM6 9.75a.75.75 0 1 0 0-1.5.75.75 0 0 0 0 1.5Zm3 0a.75.75 0 1 0 0-1.5.75.75 0 0 0 0 1.5Zm3 0a.75.75 0 1 0 0-1.5.75.75 0 0 0 0 1.5Zm3 0a.75.75 0 1 0 0-1.5.75.75 0 0 0 0 1.5Zm3 0a.75.75 0 1 0 0-1.5.75.75 0 0 0 0 1.5ZM6 12.75a.75.75 0 1 0 0-1.5.75.75 0 0 0 0 1.5Zm3 0a.75.75 0 1 0 0-1.5.75.75 0 0 0 0 1.5Zm3 0a.75.75 0 1 0 0-1.5.75.75 0 0 0 0 1.5Zm3 0a.75.75 0 1 0 0-1.5.75.75 0 0 0 0 1.5Zm3 0a.75.75 0 1 0 0-1.5.75.75 0 0 0 0 1.5ZM7.25 15a.75.75 0 0 1 .75-.75h8a.75.75 0 0 1 0 1.5H8a.75.75 0 0 1-.75-.75Z" fill="currentColor"/>
</svg>
