<svg xmlns="http://www.w3.org/2000/svg" viewBox="0 0 24 24" fill="none">
  <path fill-rule="evenodd" clip-rule="evenodd" d="M5.94 7.56C7.67 0.15 17.73 0.16 19.75 7.53 20.04 8.61 21.18 13.85 18.35 18.98 17.06 21.31 13.48 23.56 12.53 20.55 9.28 23.23 4.87 22.08 6.94 17.51L6.67 17.63C3.7 18.71 3.45 16.62 4.03 15.53 4.4 14.83 4.63 14.42 4.81 13.95 5.1 13.14 5.19 12.65 5.3 11.87 5.53 10.34 5.53 8.86 5.94 7.56ZM12.92 7.57A0.77 0.77 0 0 0 12.24 7.93C12.06 8.2 11.97 8.62 11.97 9.15 11.97 9.74 12.09 10.72 12.92 10.72H12.92C13.55 10.72 13.93 10.14 13.93 9.15 13.93 8.63 13.83 8.21 13.63 7.94A0.84 0.84 0 0 0 12.92 7.57ZM16.32 7.57A0.77 0.77 0 0 0 15.64 7.93C15.46 8.2 15.37 8.62 15.37 9.15 15.37 9.74 15.49 10.72 16.32 10.72H16.32C16.95 10.72 17.33 10.14 17.33 9.15 17.33 8.63 17.23 8.21 17.03 7.94A0.84 0.84 0 0 0 16.32 7.57Z" fill="currentColor"/>
</svg>
