<svg xmlns="http://www.w3.org/2000/svg" viewBox="0 0 24 24" fill="none">
  <path fill-rule="evenodd" clip-rule="evenodd" d="M12.37 5.1a4.25 4.25 0 0 1 6.01 6.01l-2.83 2.83a4.25 4.25 0 0 1-6.01 0 .75.75 0 1 1 1.06-1.06 2.75 2.75 0 0 0 3.89 0l2.83-2.83a2.75 2.75 0 0 0-3.89-3.89l-1.59 1.59a.75.75 0 0 1-1.06-1.06L12.37 5.1ZM8.46 9.01a4.25 4.25 0 0 1 6.01 0 .75.75 0 1 1-1.06 1.06 2.75 2.75 0 0 0-3.89 0l-2.83 2.83a2.75 2.75 0 0 0 3.89 3.89l1.59-1.59a.75.75 0 1 1 1.06 1.06l-1.59 1.59a4.25 4.25 0 0 1-6.01-6.01l2.83-2.83Z" fill="currentColor"/>
</svg>
