<svg xmlns="http://www.w3.org/2000/svg" viewBox="0 0 24 24" fill="none">
  <path fill-rule="evenodd" clip-rule="evenodd" d="M6 2.25A3.75 3.75 0 0 0 2.25 6v12A3.75 3.75 0 0 0 6 21.75h12A3.75 3.75 0 0 0 21.75 18V6A3.75 3.75 0 0 0 18 2.25H6ZM7.5 9.25a1.25 1.25 0 1 0 0-2.5 1.25 1.25 0 0 0 0 2.5Zm.75 1.25a.75.75 0 0 0-1.5 0v5.5a.75.75 0 0 0 1.5 0v-5.5Zm2.75-.75a.75.75 0 0 0-.75.75v5.5a.75.75 0 0 0 1.5 0v-2.5a1.75 1.75 0 0 1 3.5 0V16a.75.75 0 0 0 1.5 0v-2.5a3.25 3.25 0 0 0-5.5-2.34v-.41a.75.75 0 0 0-.75-.75Z" fill="currentColor"/>
</svg>
