<svg xmlns="http://www.w3.org/2000/svg" viewBox="0 0 24 24" fill="none">
  <path fill-rule="evenodd" clip-rule="evenodd" d="M10.25 3.42C10.71 2.54 11.32 2 12 2s1.29.54 1.75 1.42C14.3 4.53 14.75 6.2 14.75 8c0 .73-.06 1.43-.17 2.07C16.36 11.04 18 12.87 18 15c0 3.59-2.69 6.5-6 6.5S6 18.59 6 15c0-2.13 1.64-3.96 3.42-4.93A14.2 14.2 0 0 1 9.25 8c0-1.8.45-3.47 1-4.58ZM10.5 8a1 1 0 1 1 0-1 1 1 0 0 1 0 1Zm3 0a1 1 0 1 1 0-1 1 1 0 0 1 0 1Zm-4 8c0-1.93 1.12-3.5 2.5-3.5s2.5 1.57 2.5 3.5-1.12 3.5-2.5 3.5S9.5 17.93 9.5 16Z" fill="currentColor"/>
  <path d="M7.5 19l-1.5 2" stroke="currentColor" stroke-width="1.5" stroke-linecap="round"/>
  <path d="M16.5 19l1.5 2" stroke="currentColor" stroke-width="1.5" stroke-linecap="round"/>
</svg>
