<svg xmlns="http://www.w3.org/2000/svg" viewBox="0 0 24 24" fill="none">
  <path fill-rule="evenodd" clip-rule="evenodd" d="M8.5 4C7 3.5 5.25 3.75 4.25 5c-1 1.25-.75 3 0 4-.75 1-1.25 2.25-1 3.75.25 1.5 1.25 2.5 2.25 3C6 17 7 18.5 8.75 19.25c.5.75 1.5 2.25 3.25 2.25s2.75-1.5 3.25-2.25c1.75-.75 2.75-2.25 3.25-3.5 1-.5 2-1.5 2.25-3 .25-1.5-.25-2.75-1-3.75.75-1 1-2.75 0-4-1-1.25-2.75-1.5-4.25-1C14.75 3.25 13.5 2.5 12 2.5c-1.5 0-2.75.75-3.5 1.5ZM12 6.75c-2.07 0-3.75 1.25-3.75 2.75v2.5c0 2.35 1.68 4.25 3.75 4.25s3.75-1.9 3.75-4.25V9.5c0-1.5-1.68-2.75-3.75-2.75ZM10 9.75a1.25 1.25 0 1 0 0 2.5 1.25 1.25 0 0 0 0-2.5Zm4 0a1.25 1.25 0 1 0 0 2.5 1.25 1.25 0 0 0 0-2.5Zm-2.75 3a.75.75 0 0 0-.75.75v.75a.75.75 0 0 0 .25.56c.38.34 1.12.5 1.75.19a.75.75 0 0 0 .25-.19.75.75 0 0 0 .25-.56v-.75a.75.75 0 0 0-.75-.75h-1Z" fill="currentColor"/>
</svg>
