<svg xmlns="http://www.w3.org/2000/svg" viewBox="0 0 24 24" fill="none">
  <path fill-rule="evenodd" clip-rule="evenodd" d="M2.5 4.25C2.5 3.56 3.06 3 3.75 3h2.5c.69 0 1.25.56 1.25 1.25v2.5c0 .69-.56 1.25-1.25 1.25h-2.5C3.06 8 2.5 7.44 2.5 6.75v-2.5Zm4.03-.72a.75.75 0 0 0-1.06.04l-1.22 1.3-.35-.36a.75.75 0 1 0-1.08 1.04l.88.92a.75.75 0 0 0 1.07.01l1.75-1.88a.75.75 0 0 0-.01-1.07Z" fill="currentColor"/>
  <rect x="10" y="5" width="11.5" height="2" rx="1" fill="currentColor"/>
  <path fill-rule="evenodd" clip-rule="evenodd" d="M2.5 10.25c0-.69.56-1.25 1.25-1.25h2.5c.69 0 1.25.56 1.25 1.25v2.5c0 .69-.56 1.25-1.25 1.25h-2.5c-.69 0-1.25-.56-1.25-1.25v-2.5Zm4.03-.72a.75.75 0 0 0-1.06.04l-1.22 1.3-.35-.36a.75.75 0 1 0-1.08 1.04l.88.92a.75.75 0 0 0 1.07.01l1.75-1.88a.75.75 0 0 0-.01-1.07Z" fill="currentColor"/>
  <rect x="10" y="11" width="11.5" height="2" rx="1" fill="currentColor"/>
  <rect x="2.5" y="15" width="5" height="5" rx="1.25" fill="currentColor"/>
  <rect x="10" y="17" width="11.5" height="2" rx="1" fill="currentColor"/>
</svg>
