<svg xmlns="http://www.w3.org/2000/svg" viewBox="0 0 24 24" fill="none">
  <path d="M7.53 4.47a.75.75 0 0 1 0 1.06l-2.5 3a.75.75 0 0 1-1.1.04l-1.5-1.5a.75.75 0 1 1 1.06-1.06l.93.93 1.99-2.39a.75.75 0 0 1 1.06-.12l.06.04Z" fill="currentColor"/>
  <rect x="9" y="5" width="12" height="2" rx="1" fill="currentColor"/>
  <path d="M7.53 10.47a.75.75 0 0 1 0 1.06l-2.5 3a.75.75 0 0 1-1.1.04l-1.5-1.5a.75.75 0 1 1 1.06-1.06l.93.93 1.99-2.39a.75.75 0 0 1 1.06-.12l.06.04Z" fill="currentColor"/>
  <rect x="9" y="11" width="12" height="2" rx="1" fill="currentColor"/>
  <path d="M7.53 16.47a.75.75 0 0 1 0 1.06l-2.5 3a.75.75 0 0 1-1.1.04l-1.5-1.5a.75.75 0 1 1 1.06-1.06l.93.93 1.99-2.39a.75.75 0 0 1 1.06-.12l.06.04Z" fill="currentColor"/>
  <rect x="9" y="17" width="12" height="2" rx="1" fill="currentColor"/>
</svg>
