<svg xmlns="http://www.w3.org/2000/svg" viewBox="0 0 24 24" fill="none">
  <path fill-rule="evenodd" clip-rule="evenodd" d="M4.75 4a.75.75 0 0 0-1.5 0v4a.75.75 0 0 0 0 0H3a.75.75 0 0 0 0 1.5h2a.75.75 0 0 0 0-1.5v0h-.25V4Z" fill="currentColor"/>
  <rect x="9" y="5" width="12" height="2" rx="1" fill="currentColor"/>
  <path d="M4.5 9.75a.75.75 0 0 0-.75.75.75.75 0 0 1-1.5 0A2.25 2.25 0 0 1 4.5 8.25 2.25 2.25 0 0 1 6.75 10.5c0 .7-.38 1.28-.87 1.82l-.2.21L4.37 13.75H6a.75.75 0 0 1 0 1.5H3a.75.75 0 0 1-.54-1.27l2.32-2.54c.36-.4.47-.59.47-.94a.75.75 0 0 0-.75-.75Z" fill="currentColor"/>
  <rect x="9" y="11" width="12" height="2" rx="1" fill="currentColor"/>
  <path d="M4.5 15.75a.75.75 0 0 0-.75.75.75.75 0 0 1-1.5 0 2.25 2.25 0 0 1 3.86-1.57 2 2 0 0 1 .14 2.28 1.75 1.75 0 0 1-.36 2.04 2.25 2.25 0 0 1-3.64-1.75.75.75 0 0 1 1.5 0 .75.75 0 0 0 1.35.45.25.25 0 0 0-.1-.35h0a.75.75 0 0 1 0-1.3.5.5 0 0 0 .2-.55.75.75 0 0 0-.75-.75Z" fill="currentColor"/>
  <rect x="9" y="17" width="12" height="2" rx="1" fill="currentColor"/>
</svg>
