<svg xmlns="http://www.w3.org/2000/svg" viewBox="0 0 24 24" fill="none">
  <path fill-rule="evenodd" clip-rule="evenodd" d="M9.75 3.5A1.25 1.25 0 0 1 11 2.25h2A1.25 1.25 0 0 1 14.25 3.5V6.25h2.25A2.75 2.75 0 0 1 19.25 9v9A2.75 2.75 0 0 1 16.5 20.75h-9A2.75 2.75 0 0 1 4.75 18V9A2.75 2.75 0 0 1 7.5 6.25h2.25V3.5Zm1.5.25v2.5h1.5V3.75h-1.5ZM8.25 12a.75.75 0 0 1 .75-.75h6a.75.75 0 0 1 0 1.5H9a.75.75 0 0 1-.75-.75Z" fill="currentColor"/>
  <circle cx="8.5" cy="22" r="1" fill="currentColor"/>
  <circle cx="15.5" cy="22" r="1" fill="currentColor"/>
</svg>
