<svg xmlns="http://www.w3.org/2000/svg" viewBox="0 0 24 24" fill="none">
  <path fill-rule="evenodd" clip-rule="evenodd" d="M13.63 4.13c-2.66-.03-5.2.27-6.67.95 0 0-2.93 1.31-2.93 5.78 0 .02 0 .04 0 .07-.01.72-.03 1.58.02 2.49.15 3.04.99 6.03 3.68 6.77 1.7.47 3.16.57 4.34.5 2.13-.12 3.33-.76 3.33-.76l-.07-1.53s-1.52.48-3.23.42c-1.69-.06-3.48-.18-3.75-2.3a4.2 4.2 0 0 1-.04-.59s1.66.41 3.77.5c1.29.06 2.49-.07 3.72-.22 2.36-.28 4.41-1.74 4.67-3.07.4-2.1.37-5.12.37-5.12 0-4.47-2.93-5.78-2.93-5.78-1.48-.68-4.01-.98-6.67-.95h-.07.06Zm-4.88 5.62c0-.86.7-1.55 1.55-1.55.86 0 1.55.69 1.55 1.55V14a.75.75 0 0 1-1.5 0v-3.5a.05.05 0 0 0-.05-.05.05.05 0 0 0-.05.05V14a.75.75 0 0 1-1.5 0v-4.25Zm4.9-.75c.86 0 1.55.69 1.55 1.55V14a.75.75 0 0 1-1.5 0v-3.45a.05.05 0 0 0-.1 0V14a.75.75 0 0 1-1.5 0V10a1.55 1.55 0 0 1 1.55-1.55v.55-.55Z" fill="currentColor"/>
</svg>
