<svg xmlns="http://www.w3.org/2000/svg" viewBox="0 0 24 24" fill="none">
  <path fill-rule="evenodd" clip-rule="evenodd" d="M3 6.25A1.75 1.75 0 0 0 1.25 8v8c0 .97.78 1.75 1.75 1.75h.5v1.5a.75.75 0 0 0 1.5 0v-1.5h2v1.5a.75.75 0 0 0 1.5 0v-1.5h2v1.5a.75.75 0 0 0 1.5 0v-1.5h2v1.5a.75.75 0 0 0 1.5 0v-1.5h2v1.5a.75.75 0 0 0 1.5 0v-1.5h2v1.5a.75.75 0 0 0 1.5 0v-1.5h.5A1.75 1.75 0 0 0 22.75 16V8A1.75 1.75 0 0 0 21 6.25H3Zm3.75 4a.75.75 0 0 0-1.5 0v3.5a.75.75 0 0 0 1.5 0v-3.5Zm4 0a.75.75 0 0 0-1.5 0v3.5a.75.75 0 0 0 1.5 0v-3.5Zm4 0a.75.75 0 0 0-1.5 0v3.5a.75.75 0 0 0 1.5 0v-3.5Zm4 0a.75.75 0 0 0-1.5 0v3.5a.75.75 0 0 0 1.5 0v-3.5Z" fill="currentColor"/>
</svg>
