<svg xmlns="http://www.w3.org/2000/svg" viewBox="0 0 24 24" fill="none">
  <path fill-rule="evenodd" clip-rule="evenodd" d="M7.25 5.25C5.1 5.25 2.25 7.6 2.25 12s2.85 6.75 5 6.75c2.05 0 3.5-1.55 5.33-5.42l.18-.39c.17-.36.34-.72.51-1.06l.18-.38C15.4 7.36 16.95 5.25 19.5 5.25 21.65 5.25 24 7.6 24 12s-2.35 6.75-4.5 6.75c-2.55 0-4.1-2.11-5.93-5.94l-.05-.11C11.67 8.38 10.04 5.25 7.25 5.25Zm.5 2.5c-.8 0-2.5 1.2-2.5 4.25s1.7 4.25 2.5 4.25c.7 0 1.55-.8 3.2-4.25C9.3 8.55 8.45 7.75 7.75 7.75Zm8.5 8.5c.8 0 2.5-1.2 2.5-4.25s-1.7-4.25-2.5-4.25c-.7 0-1.55.8-3.2 4.25 1.65 3.45 2.5 4.25 3.2 4.25Z" fill="currentColor"/>
</svg>
