<svg xmlns="http://www.w3.org/2000/svg" viewBox="0 0 24 24" fill="none">
  <path d="M19.5 2.25c1.75 0 3.25 1.25 3.25 3.25 0 1.75-1 3.5-3.25 4.5-1.12.5-2.75.87-4.5.62-1-.12-2-.62-2.75-1.37-1-1-1.38-2.37-1.12-3.75.18-1.12.87-2.25 1.75-3.12 1-.88 2.88-1.38 4.88-1.25l.24.01.25.01c.42.03.75.07 1.25.1Z" fill="currentColor"/>
  <path d="M12.65 10.6a.75.75 0 0 1 0 1.06L3.03 21.28a.75.75 0 1 1-1.06-1.06l9.62-9.62a.75.75 0 0 1 1.06 0Z" fill="currentColor"/>
  <path d="M15.15 11.1a.75.75 0 0 1 0 1.06L8.53 18.78a.75.75 0 0 1-1.06-1.06l6.62-6.62a.75.75 0 0 1 1.06 0Z" fill="currentColor"/>
  <path d="M11.78 8.53a.75.75 0 0 1 .44.97l-5.75 13.5a.75.75 0 0 1-1.38-.58l5.75-13.5a.75.75 0 0 1 .94-.39Z" fill="currentColor"/>
</svg>
