<svg xmlns="http://www.w3.org/2000/svg" viewBox="0 0 24 24" fill="none">
  <path d="M15.25 2.75c1.87-.25 3.87.37 5.25 1.75s2 3.37 1.75 5.25c-.25 1.37-1 2.5-2 3.37-1.12.87-2.5 1.25-3.87 1.12-1.75-.12-3.25-1-4.25-2.37-.87-1.12-1.25-2.5-1.12-3.87.12-1.5.75-2.87 1.75-3.87.75-.75 1.5-1.12 2.5-1.38Z" fill="currentColor"/>
  <path d="M12.12 13.12a.75.75 0 0 1 0 1.06l-7.72 7.72a.75.75 0 0 1-1.06-1.06l7.72-7.72a.75.75 0 0 1 1.06 0Z" fill="currentColor"/>
  <path d="M14.62 13.62a.75.75 0 0 1 0 1.06l-5 5a.75.75 0 0 1-1.06-1.06l5-5a.75.75 0 0 1 1.06 0Z" fill="currentColor"/>
  <path d="M10.87 11.12a.75.75 0 0 1 .38.97l-3.25 6.5a.75.75 0 0 1-1.34-.67l3.25-6.5a.75.75 0 0 1 .96-.3Z" fill="currentColor"/>
</svg>
