<svg xmlns="http://www.w3.org/2000/svg" viewBox="0 0 24 24" fill="none">
  <path d="M12.53 2.47a.75.75 0 0 0-1.06 0l-3.5 3.5a.75.75 0 0 0 1.06 1.06L11.25 4.81V11.25H4.81l2.22-2.22a.75.75 0 0 0-1.06-1.06l-3.5 3.5a.75.75 0 0 0 0 1.06l3.5 3.5a.75.75 0 0 0 1.06-1.06L4.81 12.75h6.44v6.44l-2.22-2.22a.75.75 0 0 0-1.06 1.06l3.5 3.5a.75.75 0 0 0 1.06 0l3.5-3.5a.75.75 0 0 0-1.06-1.06l-2.22 2.22V12.75h6.44l-2.22 2.22a.75.75 0 0 0 1.06 1.06l3.5-3.5a.75.75 0 0 0 0-1.06l-3.5-3.5a.75.75 0 0 0-1.06 1.06l2.22 2.22H12.75V4.81l2.22 2.22a.75.75 0 0 0 1.06-1.06l-3.5-3.5Z" fill="currentColor"/>
</svg>
