<svg xmlns="http://www.w3.org/2000/svg" viewBox="0 0 24 24" fill="none">
  <path fill-rule="evenodd" clip-rule="evenodd" d="M4 2.75A1.75 1.75 0 0 0 2.25 4.5v15a1.75 1.75 0 0 0 1.75 1.75h16a1.75 1.75 0 0 0 1.75-1.75v-15A1.75 1.75 0 0 0 20 2.75H4ZM6.25 7.5a.75.75 0 0 1 .75-.75h4a.75.75 0 0 1 .75.75v4a.75.75 0 0 1-.75.75H7a.75.75 0 0 1-.75-.75v-4Zm7 .75a.75.75 0 0 1 .75-.75h3a.75.75 0 0 1 0 1.5h-3a.75.75 0 0 1-.75-.75Zm0 3a.75.75 0 0 1 .75-.75h3a.75.75 0 0 1 0 1.5h-3a.75.75 0 0 1-.75-.75ZM7 13.75a.75.75 0 0 0 0 1.5h10a.75.75 0 0 0 0-1.5H7ZM6.25 17.5a.75.75 0 0 1 .75-.75h10a.75.75 0 0 1 0 1.5H7a.75.75 0 0 1-.75-.75Z" fill="currentColor"/>
</svg>
