<svg xmlns="http://www.w3.org/2000/svg" viewBox="0 0 24 24" fill="none">
  <path fill-rule="evenodd" clip-rule="evenodd" d="M7 2.25A2.25 2.25 0 0 0 4.75 4.5v15A2.25 2.25 0 0 0 7 21.75h12A2.25 2.25 0 0 0 21.25 19.5v-15A2.25 2.25 0 0 0 19 2.25H7ZM9.25 8a.75.75 0 0 1 .75-.75h6a.75.75 0 0 1 0 1.5h-6A.75.75 0 0 1 9.25 8Zm.75 3.25a.75.75 0 0 0 0 1.5h6a.75.75 0 0 0 0-1.5h-6Zm0 4a.75.75 0 0 0 0 1.5h4a.75.75 0 0 0 0-1.5h-4Z" fill="currentColor"/>
  <path d="M3.5 7a.75.75 0 0 0 0 1.5H6a.75.75 0 0 0 0-1.5H3.5ZM2.75 12a.75.75 0 0 1 .75-.75H6a.75.75 0 0 1 0 1.5H3.5a.75.75 0 0 1-.75-.75ZM3.5 15.5a.75.75 0 0 0 0 1.5H6a.75.75 0 0 0 0-1.5H3.5Z" fill="currentColor"/>
</svg>
