<svg xmlns="http://www.w3.org/2000/svg" viewBox="0 0 24 24" fill="none">
  <path fill-rule="evenodd" clip-rule="evenodd" d="M3.25 3.5a.75.75 0 0 1 .75-.75h16a.75.75 0 0 1 0 1.5h-.19c-.03.52-.25 1.13-.72 1.67C18.52 6.52 17.64 7 16.5 7a.75.75 0 0 1 0-1.5c.64 0 1.02-.27 1.28-.56.2-.22.32-.47.38-.69H12.75V20.25H14.5a.75.75 0 0 1 0 1.5h-5a.75.75 0 0 1 0-1.5h1.75V4.25H5.84c.06.22.18.47.38.69.26.29.64.56 1.28.56a.75.75 0 0 1 0 1.5c-1.14 0-2.02-.48-2.59-1.09a3.48 3.48 0 0 1-.72-1.67H4a.75.75 0 0 1-.75-.75Z" fill="currentColor"/>
</svg>
