<svg xmlns="http://www.w3.org/2000/svg" viewBox="0 0 24 24" fill="none">
  <path fill-rule="evenodd" clip-rule="evenodd" d="M12.53 2.47a.75.75 0 0 0-1.06 0l-.22.22c-.12.12-.2.28-.22.44L10.25 6.5c-.87 1.75-2.62 3.12-4.87 4L2.25 11.88a.75.75 0 0 0 .12 1.43l4.88.25c.5 0 1 .18 1.37.55l1 1V19a.75.75 0 0 0 .13.42l1.5 2a.75.75 0 0 0 1.25-.17l.5-1.5.5 1.5a.75.75 0 0 0 1.25.17l1.5-2a.75.75 0 0 0 .13-.42v-3.87l1-1c.37-.37.87-.55 1.37-.55l4.88-.25a.75.75 0 0 0 .12-1.43L20.62 10.5c-2.25-.87-4-2.25-4.87-4l-.78-3.37a.75.75 0 0 0-.22-.44l-.22-.22Z" fill="currentColor"/>
</svg>
