<svg xmlns="http://www.w3.org/2000/svg" viewBox="0 0 24 24" fill="none">
  <path d="M17 3c-1 1.5-2 3.5-3 5.5C13 10.5 11.5 12 9.5 13L5 15.5c-1 .5-1 1.5 0 1.75 1.5.25 3.5-.25 5.5-1C10 17.5 9.5 19 9 20c-.25.75.25 1.25.75 1L13 19c.75-.5 1.5-.75 2.25-.5.5.25.75-.25.5-.75-.5-1-1.25-2.25-2-3.25 1.75 0 3.5.5 5 1.25.5.25 1-.25.75-.75-.5-1-1.75-2-3.5-3l2-3.5c1-1.75 1.75-3.5 2.25-5 .25-.5-.25-1-.75-.75-.75.5-1.5 1.25-2 2 .25-1.25.25-2.5.25-3 0-.5-.5-.75-.75-.5Z" fill="currentColor"/>
  <path d="M6 19L4.5 21.5M9 18.5l-.75 2.5" stroke="currentColor" stroke-width="1.5" stroke-linecap="round"/>
</svg>
