<svg xmlns="http://www.w3.org/2000/svg" viewBox="0 0 24 24" fill="none">
  <path fill-rule="evenodd" clip-rule="evenodd" d="M8.5 2.5a.75.75 0 0 0-.62 1.12L9.5 6.12C7.62 6.62 5.87 7.75 5 9.25 3.87 10.75 3.25 12.75 3.25 14.75c0 4 3.87 7.25 8.75 7.25s8.75-3.25 8.75-7.25c0-2-.62-4-1.75-5.5-.87-1.5-2.62-2.62-4.5-3.12l1.62-2.5A.75.75 0 0 0 15.5 2.5h-1l-1.5 2.25h-2L9.5 2.5h-1ZM9 9.5a3 3 0 1 0 0 6 3 3 0 0 0 0-6Zm6 0a3 3 0 1 0 0 6 3 3 0 0 0 0-6Zm-6 3a1 1 0 1 1 2 0 1 1 0 0 1-2 0Zm6 0a1 1 0 1 1 2 0 1 1 0 0 1-2 0Zm-4.5 4.75a.75.75 0 0 0-.12 1.05c.62.87 1.5 1.25 2.62 1.25s2-.38 2.62-1.25a.75.75 0 1 0-1.25-.87c-.25.37-.75.62-1.37.62s-1.12-.25-1.37-.62a.75.75 0 0 0-1.13-.18Z" fill="currentColor"/>
</svg>
