<svg xmlns="http://www.w3.org/2000/svg" viewBox="0 0 24 24" fill="none">
  <path fill-rule="evenodd" clip-rule="evenodd" d="M7.75 2.5A1.75 1.75 0 0 0 6.28 3.25H4.5A1.75 1.75 0 0 0 2.75 5v14c0 .97.78 1.75 1.75 1.75h6.75V8a1.75 1.75 0 0 1 1.75-1.75h1.75V5A1.75 1.75 0 0 0 11.75 3.25h-1.47A1.75 1.75 0 0 0 8.75 2.5h-1ZM8 3.75a.25.25 0 0 0-.25.25v.25c0 .14.11.25.25.25h.5a.25.25 0 0 0 .25-.25V4a.25.25 0 0 0-.25-.25H8Zm5 4.5a.25.25 0 0 0-.25.25v12.25c0 .14.11.25.25.25h7.5a.25.25 0 0 0 .25-.25V8.25a.25.25 0 0 0-.25-.25H13Zm-.25 4a.75.75 0 0 1 .75-.75h4a.75.75 0 0 1 0 1.5h-4a.75.75 0 0 1-.75-.75Zm.75 2.25a.75.75 0 0 0 0 1.5h3a.75.75 0 0 0 0-1.5h-3Z" fill="currentColor"/>
</svg>
