<svg xmlns="http://www.w3.org/2000/svg" viewBox="0 0 24 24" fill="none">
  <ellipse cx="7.5" cy="6.5" rx="2.75" ry="3.25" fill="currentColor"/>
  <ellipse cx="12" cy="5" rx="2.5" ry="3" fill="currentColor"/>
  <ellipse cx="16.5" cy="6.5" rx="2.75" ry="3.25" fill="currentColor"/>
  <ellipse cx="19" cy="11.5" rx="2.25" ry="2.75" fill="currentColor"/>
  <ellipse cx="5" cy="11.5" rx="2.25" ry="2.75" fill="currentColor"/>
  <path d="M7.25 14C6.25 15.5 6 17.25 6.75 18.75c.75 1.5 2.25 2.25 3.75 1.75.5-.25.75-.75 1-1.25.25-.75 1-.75 1.25 0 .25.5.5 1 1 1.25 1 .5 2.25.25 3.25-.75.75-1 1.25-2.5.75-4-.5-1.5-1.75-2.25-3-1.75-1 .25-2 .5-3 .5s-2-.25-2.75-.5c-.5-.25-1-.25-1.25 0Z" fill="currentColor"/>
</svg>
