<svg xmlns="http://www.w3.org/2000/svg" viewBox="0 0 24 24" fill="none">
  <path fill-rule="evenodd" clip-rule="evenodd" d="M8.5 1.75a.75.75 0 0 0-.75.75V4h-.25A2.25 2.25 0 0 0 5.25 6.25V8h13.5V6.25A2.25 2.25 0 0 0 16.5 4h-.25V2.5a.75.75 0 0 0-.75-.75h-7Zm1 1.5h5V4h-5V3.25Z" fill="currentColor"/>
  <path fill-rule="evenodd" clip-rule="evenodd" d="M5.25 9.5h13.5V19a2.75 2.75 0 0 1-2.75 2.75H8A2.75 2.75 0 0 1 5.25 19V9.5Zm4.5 2.5a2.25 2.25 0 1 1 3.38 1.95v1.1a2.25 2.25 0 1 1-2.25 0v-1.1A2.25 2.25 0 0 1 9.75 12Zm2.25-.75a.75.75 0 1 0 0 1.5.75.75 0 0 0 0-1.5Zm-.75 5.25a.75.75 0 1 1 1.5 0 .75.75 0 0 1-1.5 0Z" fill="currentColor"/>
</svg>
