<svg xmlns="http://www.w3.org/2000/svg" viewBox="0 0 24 24" fill="none">
  <path d="M15.19 4.53a2.75 2.75 0 0 1 3.89 0l.92.92a2.75 2.75 0 0 1 0 3.89L8.34 21H2.25v-2.72a.75.75 0 0 1 .22-.53L15.19 4.53Z" fill="currentColor"/>
  <path fill-rule="evenodd" clip-rule="evenodd" d="M20.75 12.75v8.5a.75.75 0 0 1-.75.75H8.75a.75.75 0 0 1 0-1.5h2v-1.25a.75.75 0 0 1 1.5 0v1.25h2.5v-1.25a.75.75 0 0 1 1.5 0v1.25h3v-2.25h-1.25a.75.75 0 0 1 0-1.5h1.25v-2.25h-1.25a.75.75 0 0 1 0-1.5h1.25v-.75a.75.75 0 0 1 1.5 0Z" fill="currentColor"/>
</svg>
