<svg xmlns="http://www.w3.org/2000/svg" viewBox="0 0 24 24" fill="none">
  <path fill-rule="evenodd" clip-rule="evenodd" d="M13.3 2.75a.75.75 0 0 1 .75-.75 9.71 9.71 0 0 1 9.7 9.7.75.75 0 0 1-1.5 0A8.21 8.21 0 0 0 14.05 3.5a.75.75 0 0 1-.75-.75Zm0 4a.75.75 0 0 1 .75-.75 5.71 5.71 0 0 1 5.7 5.7.75.75 0 0 1-1.5 0A4.21 4.21 0 0 0 14.05 7.5a.75.75 0 0 1-.75-.75Z" fill="currentColor"/>
  <path d="M6.62 10.79a15.05 15.05 0 0 0 6.59 6.59l2.2-2.2a1 1 0 0 1 1.01-.24 11.36 11.36 0 0 0 3.58.57 1 1 0 0 1 1 1V20a1 1 0 0 1-1 1A17 17 0 0 1 3 4a1 1 0 0 1 1-1h3.5a1 1 0 0 1 1 1 11.36 11.36 0 0 0 .57 3.58 1 1 0 0 1-.24 1.01l-2.21 2.2Z" fill="currentColor"/>
</svg>
