<svg xmlns="http://www.w3.org/2000/svg" viewBox="0 0 24 24" fill="none">
  <path fill-rule="evenodd" clip-rule="evenodd" d="M1.75 12C1.75 6.34 6.34 1.75 12 1.75S22.25 6.34 22.25 12 17.66 22.25 12 22.25 1.75 17.66 1.75 12Zm9.25-5a4.25 4.25 0 0 0-.75 8.43l-1.31 4.59a.75.75 0 0 0 1.44.42l1.37-4.8c.09 0 .17.01.25.01a4.25 4.25 0 0 0 0-8.5v-.15Zm0 1.5a2.75 2.75 0 1 0 0 5.5 2.75 2.75 0 0 0 0-5.5Zm-2.66 7.78a.75.75 0 0 0-.9 1.2c.71-.54 1.66-.85 3.06-.85 1.32 0 2.47-.37 3.13-1.38a.75.75 0 0 0-1.26-.82c-.34.53-1.05.7-1.87.7-1.44 0-2.56.35-3.46 1l1.3.15Z" fill="currentColor"/>
</svg>
