<svg xmlns="http://www.w3.org/2000/svg" viewBox="0 0 24 24" fill="none">
  <path fill-rule="evenodd" clip-rule="evenodd" d="M3.25 3.75h17.5V9c0 5.25-3.5 10.5-8 12.5l-.75.33-.75-.33c-4.5-2-8-7.25-8-12.5V3.75ZM4.75 9.75h5.5V5.25h-5.5V9h.01v.75Zm9 0h5.5V9h.01V5.25h-5.5v4.5Zm-1.5 0V5.25h-1.5v4.5h1.5Zm.53 2.5c-.28.21-.41.52-.38.83.13.42.13.81-.06 1.16l-.09.15c-.16.25-.25.55-.25.86 0 .47.18.88.49 1.16.28.25.65.4 1.06.4.97 0 1.75-.69 1.75-1.75 0-.63-.28-1.06-.56-1.47-.19-.27-.31-.47-.31-.78 0-.26.14-.53.39-.73.44-.33.69-.88.44-1.47a1.72 1.72 0 0 0-1.22-.69 1.66 1.66 0 0 0-1.26.33Z" fill="currentColor"/>
</svg>
