<svg xmlns="http://www.w3.org/2000/svg" viewBox="0 0 24 24" fill="none">
  <path d="M10.18 3.77C8.04 4.2 6.25 5.77 5.32 7.88c-.37.85-.1 1.63.6 2.36.82.85 2.13 1.47 3.53 1.47 1.18 0 2.49-.51 3.26-1.44.63-.76.96-1.86.69-3.26-.37-1.88-1.63-2.89-3.22-3.24Z" fill="currentColor"/>
  <path d="M13.3 9.38c-.4.48-.92.86-1.48 1.13.27.75.73 1.37 1.38 1.78.3-.63.45-1.32.45-2 0-.32-.06-.62-.14-.91h-.01c-.06-.01-.13-.01-.2 0ZM12.83 12.78c-.14-.13-.28-.27-.4-.43-.56.46-1.22.8-1.93 1-.02.18-.02.37 0 .56.17.42.47.81.87 1.12 1.23-.33 2.13-1.09 2.55-1.9a3.9 3.9 0 0 0-1.09-.35Z" fill="currentColor"/>
  <path d="M13.02 8.7a3.83 3.83 0 0 1 .32-.67c1.35-.52 2.82-1.19 4.26-.71 1.99.66 2.84 2.77 2.3 4.91-.49 1.93-2.12 3.3-4.28 3.3-1.23 0-2.24-.48-2.96-1.18.69-.87 1.06-1.98 1.06-3.1 0-.88-.22-1.7-.63-2.42l-.07-.13Z" fill="currentColor"/>
  <path d="M8.23 12.98c-.2.62-.22 1.29-.07 1.97.08.39.22.76.4 1.1-.22.77-.16 1.6.18 2.45.57 1.42 1.78 2.61 3.42 3.07.24.07.48.12.72.14 1.56.16 2.95-.36 3.96-1.5.85-1 1.02-2.15.66-3.18.44-.45.78-.96 1.02-1.51-.03.01-.07.01-.1.02-1.3.28-2.63-.08-3.64-.95-.35.31-.75.56-1.18.73-.51.21-1.04.31-1.56.31-.62 0-1.17-.12-1.68-.35a4.52 4.52 0 0 1-1.34-.94c-.3-.33-.55-.7-.72-1.1l-.07-.26Z" fill="currentColor"/>
</svg>
