<svg xmlns="http://www.w3.org/2000/svg" viewBox="0 0 24 24" fill="none">
  <path fill-rule="evenodd" clip-rule="evenodd" d="M12 1.25C7.5 1.25 6.75 3.25 6.75 5v2.5H12v1.75H5.5C3.1 9.5 1.25 11.5 1.25 13.5c0 3 1.5 5.25 4.25 5.25H7v-3.25C7 13.1 8.9 11.25 10.5 11.25h3c1.9 0 3.25-1.35 3.25-2.75V5c0-1.75-1.5-3.75-4.75-3.75Zm-2.5 3a1 1 0 1 1 0 2 1 1 0 0 1 0-2Z" fill="currentColor"/>
  <path fill-rule="evenodd" clip-rule="evenodd" d="M12 22.75c4.5 0 5.25-2 5.25-3.75v-2.5H12v-1.75h6.5c2.4 0 4.25-2 4.25-4 0-3-1.5-5.25-4.25-5.25H17v3.25c0 2.4-1.9 4.25-3.5 4.25h-3c-1.9 0-3.25 1.35-3.25 2.75V19c0 1.75 1.5 3.75 4.75 3.75Zm2.5-3a1 1 0 1 1 0-2 1 1 0 0 1 0 2Z" fill="currentColor"/>
</svg>
