<svg xmlns="http://www.w3.org/2000/svg" viewBox="0 0 24 24" fill="none">
  <path fill-rule="evenodd" clip-rule="evenodd" d="M8.5 2c-1.5 0-2.5 1.25-2.25 3.5.14 1.2.38 2.75.62 4.22A6.75 6.75 0 0 0 5.75 15c0 3.73 2.8 6.75 6.25 6.75s6.25-3.02 6.25-6.75c0-1.9-.82-3.63-2.12-5.03.24-1.47.48-3.02.62-4.22C17 2.5 16 1.25 14.5 1.25S12.75 2.5 13 4.5l.25 1.75c-.4-.1-.82-.15-1.25-.15s-.85.05-1.25.15L11 4.5C11.25 2.5 10 1.25 8.5 1.25v.75Zm1.25 10.25a1.25 1.25 0 1 0 0 2.5 1.25 1.25 0 0 0 0-2.5Zm4.5 0a1.25 1.25 0 1 0 0 2.5 1.25 1.25 0 0 0 0-2.5ZM12 16a.75.75 0 0 1 .75.75v.5a.75.75 0 0 1-1.5 0v-.5A.75.75 0 0 1 12 16Zm-1.63 2.25a.75.75 0 0 1 .88.6c.08.4.38.4.75.4s.67 0 .75-.4a.75.75 0 0 1 1.48.28c-.3 1.32-1.28 1.62-2.23 1.62s-1.93-.3-2.23-1.62a.75.75 0 0 1 .6-.88Z" fill="currentColor"/>
</svg>
