<svg xmlns="http://www.w3.org/2000/svg" viewBox="0 0 24 24" fill="none">
  <path fill-rule="evenodd" clip-rule="evenodd" d="M6 3.25a1.25 1.25 0 0 0-1.25 1.25v1.25c0 .41.34.75.75.75h.25V6a1.75 1.75 0 0 1 1.75-1.75h8.5A1.75 1.75 0 0 1 17.75 6v.5h.25c.41 0 .75-.34.75-.75V4.5c0-.69-.56-1.25-1.25-1.25H6Z" fill="currentColor"/>
  <path fill-rule="evenodd" clip-rule="evenodd" d="M4.75 8.5c0-.41.34-.75.75-.75h13c.41 0 .75.34.75.75v12a1.75 1.75 0 0 1-1.75 1.75H6.5a1.75 1.75 0 0 1-1.75-1.75v-12Zm6.25 3.25a1.5 1.5 0 1 0 0 3 1.5 1.5 0 0 0 0-3Zm2 0a1.5 1.5 0 1 0 0 3 1.5 1.5 0 0 0 0-3Zm-1-1.75a1.5 1.5 0 1 0 0 3 1.5 1.5 0 0 0 0-3Zm0 3.5a1.5 1.5 0 1 0 0 3 1.5 1.5 0 0 0 0-3Z" fill="currentColor"/>
  <path d="M7.75 7.75V6a.75.75 0 0 1 .75-.75h7a.75.75 0 0 1 .75.75v1.75" fill="currentColor"/>
</svg>
