<svg xmlns="http://www.w3.org/2000/svg" viewBox="0 0 24 24" fill="none">
  <path fill-rule="evenodd" clip-rule="evenodd" d="M4.25 3.5A1.75 1.75 0 0 1 6 1.75h12a1.75 1.75 0 0 1 1.75 1.75V20a.75.75 0 0 1-1.13.65L16.5 19.23l-2.37 1.42a.75.75 0 0 1-.76 0L12 19.73l-1.37.92a.75.75 0 0 1-.76 0L7.5 19.23l-2.12 1.42A.75.75 0 0 1 4.25 20V3.5ZM8.25 7a.75.75 0 0 1 .75-.75h6a.75.75 0 0 1 0 1.5H9A.75.75 0 0 1 8.25 7Zm0 3.5a.75.75 0 0 1 .75-.75h6a.75.75 0 0 1 0 1.5H9a.75.75 0 0 1-.75-.75Zm0 3.5a.75.75 0 0 1 .75-.75h4a.75.75 0 0 1 0 1.5H9a.75.75 0 0 1-.75-.75Z" fill="currentColor"/>
</svg>
