<svg xmlns="http://www.w3.org/2000/svg" viewBox="0 0 24 24" fill="none">
  <path fill-rule="evenodd" clip-rule="evenodd" d="M12 1.25a1.75 1.75 0 0 0-.75 3.33V6.5a7.75 7.75 0 1 0 6.55 1.17 2.75 2.75 0 1 0-3.15-3.08 1.75 1.75 0 0 0-.65-3.34ZM9 11a1.5 1.5 0 1 0 0 3 1.5 1.5 0 0 0 0-3Zm6 0a1.5 1.5 0 1 0 0 3 1.5 1.5 0 0 0 0-3Zm-5.97 5.53a.75.75 0 0 1 1.06-.06c.7.7 1.4.88 1.91.88s1.21-.18 1.91-.88a.75.75 0 1 1 1 1.12c-.97.97-2.05 1.26-2.91 1.26s-1.94-.29-2.91-1.26a.75.75 0 0 1-.06-1.06Z" fill="currentColor"/>
</svg>
