<svg xmlns="http://www.w3.org/2000/svg" viewBox="0 0 24 24" fill="none">
  <path fill-rule="evenodd" clip-rule="evenodd" d="M12 3.25a8.75 8.75 0 0 0-7.54 4.33l-.38.66H8a.75.75 0 0 1 0 1.5H3.25a.75.75 0 0 1-.75-.75V4a.75.75 0 0 1 1.5 0v3.05A10.24 10.24 0 0 1 12 2.25c5.38 0 9.75 4.37 9.75 9.75a.75.75 0 0 1-1.5 0A8.25 8.25 0 0 0 12 3.25ZM2.25 12a.75.75 0 0 1 1.5 0 8.25 8.25 0 0 0 15.54 3.92l.38-.66H16a.75.75 0 0 1 0-1.5h4.75a.75.75 0 0 1 .75.75V20a.75.75 0 0 1-1.5 0v-3.05A10.24 10.24 0 0 1 12 21.75c-5.38 0-9.75-4.37-9.75-9.75Z" fill="currentColor"/>
</svg>
