<svg xmlns="http://www.w3.org/2000/svg" viewBox="0 0 24 24" fill="none">
  <path fill-rule="evenodd" clip-rule="evenodd" d="M16.47 1.47a.75.75 0 0 1 1.06 0l3 3a.75.75 0 0 1 0 1.06l-3 3a.75.75 0 1 1-1.06-1.06l1.72-1.72H6.5a1.75 1.75 0 0 0-1.75 1.75.75.75 0 0 1-1.5 0A3.25 3.25 0 0 1 6.5 4.25h11.69l-1.72-1.72a.75.75 0 0 1 0-1.06ZM20.75 16.5a3.25 3.25 0 0 1-3.25 3.25H5.81l1.72 1.72a.75.75 0 1 1-1.06 1.06l-3-3a.75.75 0 0 1 0-1.06l3-3a.75.75 0 1 1 1.06 1.06l-1.72 1.72H17.5a1.75 1.75 0 0 0 1.75-1.75.75.75 0 0 1 1.5 0Z" fill="currentColor"/>
</svg>
