<svg xmlns="http://www.w3.org/2000/svg" viewBox="0 0 24 24" fill="none">
  <path fill-rule="evenodd" clip-rule="evenodd" d="M10.25 2a1.75 1.75 0 0 0-1.75 1.75v.5c0 .14.02.27.05.4H6a2.75 2.75 0 0 0-2.75 2.75v13A2.75 2.75 0 0 0 6 23.15h12a2.75 2.75 0 0 0 2.75-2.75v-13A2.75 2.75 0 0 0 18 4.65h-2.55c.03-.13.05-.26.05-.4v-.5A1.75 1.75 0 0 0 13.75 2h-3.5ZM9 14.75a1.75 1.75 0 1 0 0-3.5 1.75 1.75 0 0 0 0 3.5Zm6 0a1.75 1.75 0 1 0 0-3.5 1.75 1.75 0 0 0 0 3.5Zm-6.25 2a.75.75 0 0 0 0 1.5h6.5a.75.75 0 0 0 0-1.5h-6.5Z" fill="currentColor"/>
</svg>
