<svg xmlns="http://www.w3.org/2000/svg" viewBox="0 0 24 24" fill="none">
  <path fill-rule="evenodd" clip-rule="evenodd" d="M12 1.75a.75.75 0 0 1 .66.39C14.27 5.08 15.25 7.73 15.25 11.5c0 .88-.1 1.72-.3 2.5h1.3l.14-.15 2.36-2.35a.75.75 0 0 1 1.28.53v5a.75.75 0 0 1-.22.53l-1.56 1.57v1.62a.75.75 0 0 1-1.5 0v-2a.75.75 0 0 1 .22-.53L18.25 17v-1.94l-.97.97a.75.75 0 0 1-.53.22h-1.43c-.31.63-.69 1.16-1.07 1.5V20.5a1.75 1.75 0 0 1-1.75 1.75h-1a1.75 1.75 0 0 1-1.75-1.75v-2.75c-.38-.34-.76-.87-1.07-1.5H7.25a.75.75 0 0 1-.53-.22l-.97-.97V17l1.28 1.28a.75.75 0 0 1 .22.53v2a.75.75 0 0 1-1.5 0v-1.62l-1.56-1.57a.75.75 0 0 1-.22-.53v-5a.75.75 0 0 1 1.28-.53l2.36 2.35.14.15h1.3c-.2-.78-.3-1.62-.3-2.5 0-3.77.98-6.42 2.59-9.36A.75.75 0 0 1 12 1.75Zm0 6.5a1.25 1.25 0 1 0 0 2.5 1.25 1.25 0 0 0 0-2.5Z" fill="currentColor"/>
</svg>
