<svg xmlns="http://www.w3.org/2000/svg" viewBox="0 0 24 24" fill="none">
  <path fill-rule="evenodd" clip-rule="evenodd" d="M2.75 8A1.75 1.75 0 0 1 4.5 6.25h15A1.75 1.75 0 0 1 21.25 8v8a1.75 1.75 0 0 1-1.75 1.75h-15A1.75 1.75 0 0 1 2.75 16V8Zm3 .75a.75.75 0 0 1 .75.75v2.25a.75.75 0 0 1-1.5 0V9.5a.75.75 0 0 1 .75-.75Zm3.75.75a.75.75 0 0 0-1.5 0v3.75a.75.75 0 0 0 1.5 0V9.5Zm2.25-.75a.75.75 0 0 1 .75.75v2.25a.75.75 0 0 1-1.5 0V9.5a.75.75 0 0 1 .75-.75Zm3.75.75a.75.75 0 0 0-1.5 0v3.75a.75.75 0 0 0 1.5 0V9.5Zm2.25-.75a.75.75 0 0 1 .75.75v2.25a.75.75 0 0 1-1.5 0V9.5a.75.75 0 0 1 .75-.75Z" fill="currentColor"/>
</svg>
