<svg xmlns="http://www.w3.org/2000/svg" viewBox="0 0 24 24" fill="none">
  <circle cx="15.5" cy="4.5" r="2.75" fill="currentColor"/>
  <path fill-rule="evenodd" clip-rule="evenodd" d="M9.16 8.82a.75.75 0 0 1 .68-.07l3.5 1.5a.75.75 0 0 1 .36.31l2 3a.75.75 0 0 1-.14.97l-3.5 3a.75.75 0 0 1-.14.1l-1.42 3.55a.75.75 0 1 1-1.39-.56l1.5-3.75a.75.75 0 0 1 .18-.26l2.83-2.43-1.28-1.92-3.3 1.65a.75.75 0 0 1-.93-.25l-2.5-3.5a.75.75 0 0 1 .18-1.04l3-2.16a.75.75 0 0 1 .37-.14ZM7.5 12.1l1.58 2.21 2.68-1.34-1.4-2.1L7.5 12.1ZM13.32 13.58a.75.75 0 0 1 1.04.16l3 3.75 2.5 3.75a.75.75 0 0 1-1.25.83l-2.44-3.66-2.94-3.68a.75.75 0 0 1 .09-1.15Z" fill="currentColor"/>
</svg>
