<svg xmlns="http://www.w3.org/2000/svg" viewBox="0 0 24 24" fill="none">
  <path fill-rule="evenodd" clip-rule="evenodd" d="M10.5 2a.75.75 0 0 0-.75.75v1.68a7.75 7.75 0 0 0-2.36 1l-1.2-1.2a.75.75 0 0 0-1.06 0l-2.12 2.12a.75.75 0 0 0 0 1.06l1.2 1.2a7.75 7.75 0 0 0-1 2.36H2.25a.75.75 0 0 0-.75.75v3c0 .41.34.75.75.75h1.46a7.75 7.75 0 0 0 1 2.36l-1.2 1.2a.75.75 0 0 0 0 1.06l2.12 2.12a.75.75 0 0 0 1.06 0l1.2-1.2a7.75 7.75 0 0 0 2.36 1v1.68c0 .41.34.75.75.75h3a.75.75 0 0 0 .75-.75v-1.68a7.75 7.75 0 0 0 2.36-1l1.2 1.2a.75.75 0 0 0 1.06 0l2.12-2.12a.75.75 0 0 0 0-1.06l-1.2-1.2a7.75 7.75 0 0 0 1-2.36h1.46a.75.75 0 0 0 .75-.75v-3a.75.75 0 0 0-.75-.75h-1.46a7.75 7.75 0 0 0-1-2.36l1.2-1.2a.75.75 0 0 0 0-1.06l-2.12-2.12a.75.75 0 0 0-1.06 0l-1.2 1.2a7.75 7.75 0 0 0-2.36-1V2.75a.75.75 0 0 0-.75-.75h-3ZM12 8.5a3.5 3.5 0 1 0 0 7 3.5 3.5 0 0 0 0-7Z" fill="currentColor"/>
</svg>
