<svg xmlns="http://www.w3.org/2000/svg" viewBox="0 0 24 24" fill="none">
  <path fill-rule="evenodd" clip-rule="evenodd" d="M1.75 9.5A2.25 2.25 0 0 1 4 7.25h9.5l1.62-2.83a1.75 1.75 0 0 1 2.1-.56l3.17 1.58a1.75 1.75 0 0 1 .44 2.93L18.25 11v7.5A2.25 2.25 0 0 1 16 20.75H4A2.25 2.25 0 0 1 1.75 18.5v-9Zm3.75 2c.75-.62 2-.93 3-.62.75.22 1.5.72 1.5 1.62 0 .62-.75 1.62-2 2.12-.37.15-.8.22-1.25.22-1.75 0-2.75-1.09-2.75-2.34 0-.62.5-1.22 1.5-1Zm.5.75a.5.5 0 1 0 0 1 .5.5 0 0 0 0-1Zm5.5.75l2-1.5-.5.75-1.5 1.25v-.5ZM5.5 16c.75-.62 2-.93 3-.62.75.22 1.5.72 1.5 1.62 0 .62-.75 1.62-2 2.12-.37.15-.8.22-1.25.22-1.75 0-2.75-1.09-2.75-2.34 0-.62.5-1.22 1.5-1Zm.5.75a.5.5 0 1 0 0 1 .5.5 0 0 0 0-1Zm5.5.75l2-1.5-.5.75-1.5 1.25v-.5Z" fill="currentColor"/>
</svg>
