<svg xmlns="http://www.w3.org/2000/svg" viewBox="0 0 24 24" fill="none">
  <path fill-rule="evenodd" clip-rule="evenodd" d="M12 3.25a1.75 1.75 0 0 0-.75 3.33V8.75h-2A1.5 1.5 0 0 0 7.75 10v.25H3a1.25 1.25 0 0 0-1.25 1.25v1.5A1.25 1.25 0 0 0 3 14.25h4.75V14.5a1.5 1.5 0 0 0 1.5 1.5h5.5a1.5 1.5 0 0 0 1.5-1.5v-.25H21a1.25 1.25 0 0 0 1.25-1.25v-1.5A1.25 1.25 0 0 0 21 10.25h-4.75V10a1.5 1.5 0 0 0-1.5-1.5h-2V6.58A1.75 1.75 0 0 0 12 3.25ZM4.25 9.75a.75.75 0 0 0-1.5 0v.5a.75.75 0 0 0 1.5 0v-.5Zm2 0a.75.75 0 0 0-1.5 0v.5a.75.75 0 0 0 1.5 0v-.5Zm14 0a.75.75 0 0 0-1.5 0v.5a.75.75 0 0 0 1.5 0v-.5Zm2 0a.75.75 0 0 0-1.5 0v.5a.75.75 0 0 0 1.5 0v-.5Z" fill="currentColor"/>
</svg>
