<svg xmlns="http://www.w3.org/2000/svg" viewBox="0 0 24 24" fill="none">
  <path fill-rule="evenodd" clip-rule="evenodd" d="M12 1.25a.75.75 0 0 1 .75.75v.69l2.56 2.99a.75.75 0 0 1 .19.5V9.25h5.75a.75.75 0 0 1 .75.75v11a.75.75 0 0 1-.75.75H2.75a.75.75 0 0 1-.75-.75V10a.75.75 0 0 1 .75-.75H8.5V5.18a.75.75 0 0 1 .19-.5L11.25 1.69V2a.75.75 0 0 1 .75-.75ZM5.25 14.75a.75.75 0 0 1 .75-.75h2a.75.75 0 0 1 0 1.5H6a.75.75 0 0 1-.75-.75Zm10 0a.75.75 0 0 1 .75-.75h2a.75.75 0 0 1 0 1.5h-2a.75.75 0 0 1-.75-.75ZM12 15a2.75 2.75 0 0 0-2.75 2.75V21h5.5v-3.25A2.75 2.75 0 0 0 12 15Z" fill="currentColor"/>
</svg>
