<svg xmlns="http://www.w3.org/2000/svg" viewBox="0 0 24 24" fill="none">
  <path fill-rule="evenodd" clip-rule="evenodd" d="M9.25 4a.75.75 0 0 1 .75-.75h2a.75.75 0 0 1 .75.75v2.25h3.75A1.5 1.5 0 0 1 18 7.75v5H6V7.75A1.5 1.5 0 0 1 7.5 6.25h1.75V4Zm.5 6.25a.75.75 0 0 1 .75-.75h3a.75.75 0 0 1 0 1.5h-3a.75.75 0 0 1-.75-.75ZM4.88 13.5l-1.35 3.38a.75.75 0 0 0 .55 1.03c1.18.19 2.04-.46 3.17-.46 1.5 0 2 1 3.5 1s2.25-1 3.5-1c1.13 0 1.99.65 3.17.46a.75.75 0 0 0 .55-1.03l-1.35-3.38H4.88Z" fill="currentColor"/>
  <path d="M2.5 20.5c1.5 0 2.25-1 3.5-1s2 1 3.5 1 2.25-1 3.5-1 2 1 3.5 1 2.25-1 3.5-1" stroke="currentColor" stroke-width="1.5" stroke-linecap="round" stroke-linejoin="round"/>
</svg>
