<svg xmlns="http://www.w3.org/2000/svg" viewBox="0 0 24 24" fill="none">
  <path fill-rule="evenodd" clip-rule="evenodd" d="M5 2.25A2.75 2.75 0 0 0 2.25 5v14A2.75 2.75 0 0 0 5 21.75h4a.75.75 0 0 0 0-1.5H5A1.25 1.25 0 0 1 3.75 19V5A1.25 1.25 0 0 1 5 3.75h4a.75.75 0 0 0 0-1.5H5Z" fill="currentColor"/>
  <path fill-rule="evenodd" clip-rule="evenodd" d="M15.47 6.47a.75.75 0 0 1 1.06 0l5 5a.75.75 0 0 1 0 1.06l-5 5a.75.75 0 1 1-1.06-1.06l3.72-3.72H9a.75.75 0 0 1 0-1.5h10.19l-3.72-3.72a.75.75 0 0 1 0-1.06Z" fill="currentColor"/>
</svg>
