<svg xmlns="http://www.w3.org/2000/svg" viewBox="0 0 24 24" fill="none">
  <path d="M14.5 2.25a2.25 2.25 0 0 0-2.25 2.25V6h2.25a2.25 2.25 0 0 0 0-4.5Z" fill="currentColor"/>
  <path d="M14.5 7.25h4.5a2.25 2.25 0 0 1 0 4.5h-4.5a.25.25 0 0 1-.25-.25v-4a.25.25 0 0 1 .25-.25Z" fill="currentColor"/>
  <path d="M21.75 14.5a2.25 2.25 0 0 0-2.25-2.25H18v2.25a2.25 2.25 0 0 0 4.5 0h-.75Z" fill="currentColor"/>
  <path d="M16.75 14.5V19a2.25 2.25 0 0 1-4.5 0v-4.5a.25.25 0 0 1 .25-.25h4a.25.25 0 0 1 .25.25Z" fill="currentColor"/>
  <path d="M9.5 21.75a2.25 2.25 0 0 0 2.25-2.25V18H9.5a2.25 2.25 0 0 0 0 4.5v-.75Z" fill="currentColor"/>
  <path d="M9.5 16.75H5a2.25 2.25 0 0 1 0-4.5h4.5a.25.25 0 0 1 .25.25v4a.25.25 0 0 1-.25.25Z" fill="currentColor"/>
  <path d="M2.25 9.5a2.25 2.25 0 0 0 2.25 2.25H6V9.5a2.25 2.25 0 0 0-4.5 0h.75Z" fill="currentColor"/>
  <path d="M7.25 9.5V5a2.25 2.25 0 0 1 4.5 0v4.5a.25.25 0 0 1-.25.25h-4a.25.25 0 0 1-.25-.25Z" fill="currentColor"/>
</svg>
