<svg xmlns="http://www.w3.org/2000/svg" viewBox="0 0 24 24" fill="none">
  <path fill-rule="evenodd" clip-rule="evenodd" d="M2.25 7a.75.75 0 0 1 .75-.75h1.75a2.75 2.75 0 0 1 5.25 0H21a.75.75 0 0 1 0 1.5H10a2.75 2.75 0 0 1-5.25 0H3A.75.75 0 0 1 2.25 7Zm2 5a.75.75 0 0 1 .75-.75h8.25a2.75 2.75 0 0 1 5.25 0H21a.75.75 0 0 1 0 1.5h-1.5a2.75 2.75 0 0 1-5.25 0H5a.75.75 0 0 1-.75-.75Zm0 5a.75.75 0 0 1 .75-.75h3.75a2.75 2.75 0 0 1 5.25 0H21a.75.75 0 0 1 0 1.5h-6a2.75 2.75 0 0 1-5.25 0H5a.75.75 0 0 1-.75-.75Z" fill="currentColor"/>
</svg>
