<svg xmlns="http://www.w3.org/2000/svg" viewBox="0 0 24 24" fill="none">
  <path fill-rule="evenodd" clip-rule="evenodd" d="M12 2.25c-5.38 0-9.75 4.37-9.75 9.75s4.37 9.75 9.75 9.75 9.75-4.37 9.75-9.75S17.38 2.25 12 2.25ZM7.47 8.87a.75.75 0 0 1 1.06-.03c1.37 1.09 3.04 1.53 4.73.6a.75.75 0 1 1 .72 1.32c-2.27 1.24-4.48.65-6.18-.63a.75.75 0 0 1-.1-1.06l-.23-.2Zm2.03 4.38a.75.75 0 0 0-.47 1.33c1.34.89 3.25 1.25 5.1-.02a.75.75 0 1 0-.86-1.23c-1.28.88-2.54.63-3.56-.02a.75.75 0 0 0-.21-.06ZM13.72 7.6a.75.75 0 0 0-1.44.41c.46 1.6.15 3.2-.55 4.65a.75.75 0 0 0 1.35.66c.83-1.7 1.18-3.68.64-5.72Z" fill="currentColor"/>
</svg>
