<svg xmlns="http://www.w3.org/2000/svg" viewBox="0 0 24 24" fill="none">
  <path fill-rule="evenodd" clip-rule="evenodd" d="M12 2.25a9.75 9.75 0 1 0 0 19.5 9.75 9.75 0 0 0 0-19.5ZM7.5 11a1.5 1.5 0 0 1 3 0 6 6 0 0 1-3 0Zm6 0a1.5 1.5 0 0 1 3 0 6 6 0 0 1-3 0Zm-4 4.5a.75.75 0 0 1 .75-.75h5a.75.75 0 0 1 0 1.5h-5a.75.75 0 0 1-.75-.75Z" fill="currentColor"/>
  <path d="M17.75 3.38h2.5a.63.63 0 0 1 .47 1.04l-2.06 2.34h2.09a.63.63 0 0 1 0 1.25h-2.5a.63.63 0 0 1-.47-1.04l2.06-2.34h-2.09a.63.63 0 0 1 0-1.25Z" fill="currentColor"/>
</svg>
