<svg xmlns="http://www.w3.org/2000/svg" viewBox="0 0 24 24" fill="none">
  <path fill-rule="evenodd" clip-rule="evenodd" d="M5 6.25A1.75 1.75 0 0 0 3.25 8v1.06a2.25 2.25 0 0 0-2 2.19v3.75a1.25 1.25 0 0 0 1.25 1.25h.75v1a2.25 2.25 0 0 0 1.25 2.01v.99a.75.75 0 0 0 1.5 0v-.75h9v.75a.75.75 0 0 0 1.5 0v-.99a2.25 2.25 0 0 0 1.25-2.01v-1h.75A1.25 1.25 0 0 0 22.75 15v-3.75a2.25 2.25 0 0 0-2-2.19V8A1.75 1.75 0 0 0 19 6.25H5Zm14.25 3.13V8a.25.25 0 0 0-.25-.25H5a.25.25 0 0 0-.25.25v1.38a2.25 2.25 0 0 0 1.5 2.12v2.75h11.5v-2.75a2.25 2.25 0 0 0 1.5-2.12Zm-7 2.37a.75.75 0 0 0-1.5 0v2.5a.75.75 0 0 0 1.5 0v-2.5Z" fill="currentColor"/>
</svg>
