<svg xmlns="http://www.w3.org/2000/svg" viewBox="0 0 24 24" fill="none">
  <path fill-rule="evenodd" clip-rule="evenodd" d="M3 2.25A1.75 1.75 0 0 0 1.25 4v10A1.75 1.75 0 0 0 3 15.75h8.25V18H9.75a.75.75 0 0 0 0 1.5h4.5a.75.75 0 0 0 0-1.5H12.75v-2.25H21a1.75 1.75 0 0 0 1.75-1.75V4A1.75 1.75 0 0 0 21 2.25H3Zm5.67 2.5H2.75V7h5.92V4.75Zm1.5 0V7h3.66V4.75H10.17Zm5.16 0V7h5.92V4.75h-5.92ZM21.25 8.5h-5.92V11h5.92V8.5Zm0 4h-5.92v2.25h5.92V12.5Zm-7.42 2.25V12.5h-3.66v2.25h3.66Zm0-4V8.5h-3.66V11h3.66ZM8.67 8.5H2.75V11h5.92V8.5Zm0 4H2.75v2.25h5.92V12.5ZM8 20.25a.75.75 0 0 0 0 1.5h8a.75.75 0 0 0 0-1.5H8Z" fill="currentColor"/>
</svg>
