<svg xmlns="http://www.w3.org/2000/svg" viewBox="0 0 24 24" fill="none">
  <path fill-rule="evenodd" clip-rule="evenodd" d="M12 1.75C6.34 1.75 1.75 6.34 1.75 12S6.34 22.25 12 22.25 22.25 17.66 22.25 12 17.66 1.75 12 1.75ZM7.22 8.82a.75.75 0 0 1 .96-.46c2.63-1 5.69-.97 9.08.59a.75.75 0 1 1-.64 1.36c-3.06-1.4-5.78-1.43-8.15-.53a.75.75 0 0 1-.96-.46l-.29-.5Zm.27 3.26a.75.75 0 0 1 1-.39c2.08-.72 4.62-.68 7.01.61a.75.75 0 0 1-.72 1.32c-2.07-1.12-4.28-1.15-6.07-.53a.75.75 0 0 1-.94-.49l-.28-.52Zm1.01 2.87a.75.75 0 0 1 1-.35c1.56-.51 3.58-.44 5.54.58a.75.75 0 0 1-.7 1.33c-1.65-.86-3.32-.91-4.6-.5a.75.75 0 0 1-.95-.41l-.29-.65Z" fill="currentColor"/>
</svg>
