<svg xmlns="http://www.w3.org/2000/svg" viewBox="0 0 24 24" fill="none">
  <path fill-rule="evenodd" clip-rule="evenodd" d="M4.25 13.25a.75.75 0 0 1 .75.75v6.25h14V14a.75.75 0 0 1 1.5 0v7.75H3.5V14a.75.75 0 0 1 .75-.75Zm3.03 4a.75.75 0 0 1 .75-.75h8a.75.75 0 0 1 0 1.5h-8a.75.75 0 0 1-.75-.75Zm0-3a.75.75 0 0 1 .75-.75h8a.75.75 0 0 1 0 1.5h-8a.75.75 0 0 1-.75-.75Z" fill="currentColor"/>
  <path d="M8.5 12l7.78 1.5" stroke="currentColor" stroke-width="1.5" stroke-linecap="round"/>
  <path d="M10 9.25l7.25 3.5" stroke="currentColor" stroke-width="1.5" stroke-linecap="round"/>
  <path d="M12.5 6.5l5.75 5.5" stroke="currentColor" stroke-width="1.5" stroke-linecap="round"/>
  <path d="M15.5 4l4 6.5" stroke="currentColor" stroke-width="1.5" stroke-linecap="round"/>
</svg>
