<svg xmlns="http://www.w3.org/2000/svg" viewBox="0 0 24 24" fill="none">
  <path fill-rule="evenodd" clip-rule="evenodd" d="M4.28 2.25a.75.75 0 0 0-.72.54l-1 4a.75.75 0 0 0 .03.47A3.75 3.75 0 0 0 6 9.75c.87 0 1.67-.3 2.3-.8a3.74 3.74 0 0 0 3.7 0 3.74 3.74 0 0 0 3.7 0c.63.5 1.43.8 2.3.8a3.75 3.75 0 0 0 3.41-2.49.75.75 0 0 0 .03-.47l-1-4a.75.75 0 0 0-.72-.54H4.28ZM20 10.83a4.47 4.47 0 0 1-2-.47c-.98.6-2.16.8-3.3.47a4.48 4.48 0 0 1-2.7.93 4.48 4.48 0 0 1-2.7-.93 4.48 4.48 0 0 1-3.3-.47 4.47 4.47 0 0 1-2 .47v9.42a1.75 1.75 0 0 0 1.75 1.75H9v-6.25c0-.97.78-1.75 1.75-1.75h2.5c.97 0 1.75.78 1.75 1.75v6.25h3.25a1.75 1.75 0 0 0 1.75-1.75v-9.42Z" fill="currentColor"/>
</svg>
