<svg xmlns="http://www.w3.org/2000/svg" viewBox="0 0 24 24" fill="none">
  <path d="M2.5 17.75c2.3-4.55 6.16-6.95 10.77-6.95 4.37 0 7.23 2.45 7.23 5.78 0 2.4-1.66 4.17-4.2 4.17-1.95 0-3.25-1.24-3.25-2.94 0-1.47 1-2.47 2.38-2.7-.78-1.42-2.47-2.31-4.75-2.31-3.2 0-6.01 1.53-8.18 4.95Z" fill="currentColor"/>
  <path d="M9.9 7.5c2.91 1.44 4.97 4.36 5.77 8.33-3.3-.12-6.01-1.31-7.92-3.78.25-1.98 1.13-3.58 2.15-4.55Z" fill="currentColor"/>
  <rect x="11.45" y="10.2" width="1" height="4" fill="currentColor" rx=".5" transform="rotate(-34 11.45 10.2)"/>
</svg>
