<svg xmlns="http://www.w3.org/2000/svg" viewBox="0 0 24 24" fill="none">
  <path d="M12 2.75c3.94 2.57 6.25 6.72 6.25 11.25 0 4.2-2.18 7.65-6.25 9.25-4.07-1.6-6.25-5.05-6.25-9.25 0-4.53 2.31-8.68 6.25-11.25Z" fill="currentColor"/>
  <rect x="11.35" y="6" width="1.3" height="12" fill="currentColor" rx=".65"/>
  <path d="M2.5 17.75c.6-.48 1.2-.75 2-.75.81 0 1.41.27 2 .75.6.48 1.2.75 2 .75s1.4-.27 2-.75c.59-.48 1.19-.75 2-.75s1.41.27 2 .75c.6.48 1.2.75 2 .75s1.4-.27 2-.75c.59-.48 1.19-.75 2-.75s1.41.27 2 .75v1.5c-.59-.48-1.19-.75-2-.75s-1.41.27-2 .75c-.6.48-1.2.75-2 .75s-1.4-.27-2-.75c-.59-.48-1.19-.75-2-.75s-1.41.27-2 .75c-.6.48-1.2.75-2 .75s-1.4-.27-2-.75c-.59-.48-1.19-.75-2-.75s-1.4.27-2 .75v-1.5Z" fill="currentColor"/>
</svg>
