<svg xmlns="http://www.w3.org/2000/svg" viewBox="0 0 24 24" fill="none">
  <path fill-rule="evenodd" clip-rule="evenodd" d="M18.78 2.22a.75.75 0 0 1 1.06 0l3 3a.75.75 0 0 1-1.06 1.06l-3-3a.75.75 0 0 1 0-1.06Zm-3.81 2.22a.75.75 0 0 1 1.06 0l3 3a.75.75 0 0 1-1.06 1.06l-3-3a.75.75 0 0 1 0-1.06ZM8.82 6.76a1.25 1.25 0 0 1 1.77 0l7.65 7.65a1.25 1.25 0 0 1 0 1.77l-1.3 1.3a1.25 1.25 0 0 1-1.77 0L7.52 9.83a1.25 1.25 0 0 1 0-1.77l1.3-1.3ZM6.17 15.77a.75.75 0 0 1 1.06 0l1.06 1.06a.75.75 0 0 1 0 1.06l-1.05 1.05a.25.25 0 0 0 0 .35l.59.59a.25.25 0 0 0 .35 0l1.05-1.05a.75.75 0 0 1 1.06 1.06l-1.05 1.05a1.75 1.75 0 0 1-2.47 0l-.59-.59a1.75 1.75 0 0 1 0-2.47l1.05-1.05a.75.75 0 0 1-.06-.06ZM2.47 20.47a.75.75 0 0 1 1.06 0l2 2a.75.75 0 0 1-1.06 1.06l-2-2a.75.75 0 0 1 0-1.06Z" fill="currentColor"/>
</svg>
