<svg xmlns="http://www.w3.org/2000/svg" viewBox="0 0 24 24" fill="none">
  <path fill-rule="evenodd" clip-rule="evenodd" d="M8.03 4.4a.75.75 0 0 1 .7-.48h.04a.75.75 0 0 1 .7.48l4.5 10.85a.75.75 0 0 1-1.39.58L11.41 13H5.09l-1.17 2.83a.75.75 0 1 1-1.39-.58L7.03 4.4ZM5.71 11.5h5.08L8.25 5.32 5.71 11.5ZM17.5 9.75a2.25 2.25 0 0 0-2.25 2.25v.5a.75.75 0 0 1-1.5 0V9.75a.75.75 0 0 1 1.5 0 3.75 3.75 0 1 1 0 7.15v.6a.75.75 0 0 1-1.5 0V9.75a.75.75 0 0 1 1.5 0v.24A3.75 3.75 0 0 1 17.5 9.75Zm0 6a2.25 2.25 0 1 0 0-4.5 2.25 2.25 0 0 0 0 4.5Z" fill="currentColor"/>
</svg>
