<svg xmlns="http://www.w3.org/2000/svg" viewBox="0 0 24 24" fill="none">
  <path fill-rule="evenodd" clip-rule="evenodd" d="M12 2C6.48 2 2.75 5.83 2.75 12S6.48 22 12 22s9.25-3.83 9.25-10S17.52 2 12 2Zm4.37 11.82c-.08 2.53-1.45 4.43-3.3 5.18a7.06 7.06 0 0 1-2.57.5c-3.8 0-6.25-2.68-6.25-6v-.5-.5c0-3.32 2.45-6 6.25-6a6.36 6.36 0 0 1 4.93 2.25.75.75 0 1 1-1.16.96A4.88 4.88 0 0 0 10.5 7.5C7.87 7.5 5.75 9.53 5.75 12v.5c0 .17.01.34.02.5.15 2.7 2.16 4.5 4.73 4.5a3.43 3.43 0 0 0 3.05-1.73c.47-.78.49-1.73.04-2.55a2.38 2.38 0 0 0-2.09-1.15c-.57 0-1.03.23-1.36.62a1.5 1.5 0 0 0 .04 1.56c.28.42.72.63 1.22.63a1.4 1.4 0 0 0 .92-.33.75.75 0 1 1 .96 1.15 2.89 2.89 0 0 1-1.88.68c-1.06 0-2-.46-2.58-1.35a3 3 0 0 1-.08-3.12 3.3 3.3 0 0 1 2.76-1.65 3.88 3.88 0 0 1 3.42 1.93c.64 1.14.69 2.56.15 3.73l-.07.13c.64-.4 1.15-1 1.5-1.73.35-.74.49-1.51.49-2.3 0-1.29-.56-2.3-1.4-2.84a.75.75 0 0 1 .82-1.26c1.26.81 2.08 2.26 2.08 4.1v.19Z" fill="currentColor"/>
</svg>
