<svg xmlns="http://www.w3.org/2000/svg" viewBox="0 0 24 24" fill="none">
  <path fill-rule="evenodd" clip-rule="evenodd" d="M4 5.75A1.75 1.75 0 0 0 2.25 7.5v2.08a.75.75 0 0 1 .53.72 1 1 0 1 1 0 3.5.75.75 0 0 1-.53.72v2.08c0 .97.78 1.75 1.75 1.75h16a1.75 1.75 0 0 0 1.75-1.75v-2.08a.75.75 0 0 1-.53-.72 1 1 0 1 1 0-3.5.75.75 0 0 1 .53-.72V7.5a1.75 1.75 0 0 0-1.75-1.75H4Zm5 1.5a.75.75 0 0 0-1.5 0v1a.75.75 0 0 0 1.5 0v-1Zm0 3.5a.75.75 0 0 0-1.5 0v1a.75.75 0 0 0 1.5 0v-1Zm0 3.5a.75.75 0 0 0-1.5 0v1a.75.75 0 0 0 1.5 0v-1Zm0 3a.75.75 0 0 0-1.5 0v.5a.75.75 0 0 0 1.5 0v-.5Z" fill="currentColor"/>
</svg>
