<svg xmlns="http://www.w3.org/2000/svg" viewBox="0 0 24 24" fill="none">
  <path fill-rule="evenodd" clip-rule="evenodd" d="M6 2.25a.75.75 0 0 0-.56.25l-1.5 1.75a.75.75 0 0 0 .06 1.02l1.3 1.16C4.47 7.62 4 9.22 4 10.5v2.5c0 4.56 3.58 8.25 8 8.25s8-3.69 8-8.25v-2.5c0-1.28-.47-2.88-1.3-4.07l1.3-1.16a.75.75 0 0 0 .06-1.02L18.56 2.5A.75.75 0 0 0 18 2.25a.75.75 0 0 0-.5.19L16 3.75c-1.13-.72-2.5-1.13-4-1.13s-2.87.41-4 1.13L6.5 2.44A.75.75 0 0 0 6 2.25ZM9.5 10.25a1.25 1.25 0 1 0 0 2.5 1.25 1.25 0 0 0 0-2.5Zm5 0a1.25 1.25 0 1 0 0 2.5 1.25 1.25 0 0 0 0-2.5ZM8.38 6.25a.75.75 0 0 0-.13 1.05l1.25 1.5a.75.75 0 1 0 1.15-.96l-1.25-1.5a.75.75 0 0 0-1.02-.09Zm7.24 0a.75.75 0 0 0-1.02.09l-1.25 1.5a.75.75 0 1 0 1.15.96l1.25-1.5a.75.75 0 0 0-.13-1.05ZM12 4.5a.75.75 0 0 1 .75.75v1.5a.75.75 0 0 1-1.5 0v-1.5A.75.75 0 0 1 12 4.5Zm0 8a.75.75 0 0 1 .75.75v.5a.75.75 0 0 1-1.5 0v-.5a.75.75 0 0 1 .75-.75Zm-2.5 1.5a2.5 2.5 0 1 0 5 0 2.5 2.5 0 0 0-5 0Z" fill="currentColor"/>
</svg>
