<svg xmlns="http://www.w3.org/2000/svg" viewBox="0 0 24 24" fill="none">
  <path d="M2.25 4c0-.6.4-1.1.97-.97C5.5 3.6 8.5 4.75 12 4.75s6.5-1.15 8.78-1.72c.57-.13.97.37.97.97 0 .6-.4 1.1-.97 1.22C18.5 5.8 15.5 6.5 12 6.5S5.5 5.8 3.22 5.22C2.65 5.1 2.25 4.6 2.25 4ZM4.25 8.5c0-.55.38-1.02.92-.92C7.17 7.98 9.5 8.5 12 8.5s4.83-.52 6.83-.92c.54-.1.92.37.92.92s-.38 1.02-.92 1.12c-2 .4-4.33.88-6.83.88s-4.83-.48-6.83-.88c-.54-.1-.92-.57-.92-1.12ZM6.75 13c0-.5.35-.93.85-.85C9 12.35 10.5 12.75 12 12.75s3-.4 4.4-.6c.5-.08.85.35.85.85s-.35.93-.85 1c-1.4.2-2.9.5-4.4.5s-3-.3-4.4-.5c-.5-.07-.85-.5-.85-1ZM9.5 17c0-.45.33-.83.78-.78.5.07 1.1.28 1.72.28s1.22-.21 1.72-.28c.45-.05.78.33.78.78s-.33.83-.78.9c-.5.08-1.1.22-1.72.22s-1.22-.14-1.72-.22c-.45-.07-.78-.45-.78-.9ZM11 20.5a.75.75 0 0 1 1.5 0v1a.75.75 0 0 1-1.5 0v-1Z" fill="currentColor"/>
</svg>
