<svg xmlns="http://www.w3.org/2000/svg" viewBox="0 0 24 24" fill="none">
  <path fill-rule="evenodd" clip-rule="evenodd" d="M12 4.75c-5.8 0-10.5 3.13-10.5 7s4.7 7 10.5 7 10.5-3.13 10.5-7-4.7-7-10.5-7ZM3 11.75c0-2.9 4.03-5.5 9-5.5s9 2.6 9 5.5-4.03 5.5-9 5.5-9-2.6-9-5.5Z" fill="currentColor"/>
  <path fill-rule="evenodd" clip-rule="evenodd" d="M12 2.75c-2.49 0-4.5 4.03-4.5 9s2.01 9 4.5 9 4.5-4.03 4.5-9-2.01-9-4.5-9ZM9 11.75c0-4.14 1.34-7.5 3-7.5s3 3.36 3 7.5-1.34 7.5-3 7.5-3-3.36-3-7.5Z" fill="currentColor"/>
  <path d="M11.25 3v17.5h1.5V3h-1.5Z" fill="currentColor"/>
</svg>
