<svg xmlns="http://www.w3.org/2000/svg" viewBox="0 0 24 24" fill="none">
  <path fill-rule="evenodd" clip-rule="evenodd" d="M7 3a2.5 2.5 0 0 0-2.5 2.5v11A2.5 2.5 0 0 0 7 19h.28l-1.6 2.4a.75.75 0 1 0 1.24.84L9 19h6l2.08 3.24a.75.75 0 1 0 1.24-.84L16.72 19H17a2.5 2.5 0 0 0 2.5-2.5v-11A2.5 2.5 0 0 0 17 3H7Zm.75 3.5a1 1 0 0 0-1 1v4a1 1 0 0 0 1 1h8.5a1 1 0 0 0 1-1v-4a1 1 0 0 0-1-1h-8.5ZM8.5 15.5a1.25 1.25 0 1 1 0-2.5 1.25 1.25 0 0 1 0 2.5Zm7 0a1.25 1.25 0 1 1 0-2.5 1.25 1.25 0 0 1 0 2.5Z" fill="currentColor"/>
  <path d="M2.25 21.25h19.5" stroke="currentColor" stroke-width="1.5" stroke-linecap="round"/>
</svg>
