<svg xmlns="http://www.w3.org/2000/svg" viewBox="0 0 24 24" fill="none">
  <path fill-rule="evenodd" clip-rule="evenodd" d="M8.25 3.5a.75.75 0 0 1 .75-.75h6a.75.75 0 0 1 0 1.5H9a.75.75 0 0 1-.75-.75ZM3.25 6.5a.75.75 0 0 1 .75-.75h16a.75.75 0 0 1 0 1.5H20l-1 13.25a1.75 1.75 0 0 1-1.74 1.5H6.74A1.75 1.75 0 0 1 5 20.5L4 7.25h-.75a.75.75 0 0 1-.75-.75Zm6.25 3.25a.75.75 0 0 1 .75.75v6a.75.75 0 0 1-1.5 0v-6a.75.75 0 0 1 .75-.75Zm5 0a.75.75 0 0 1 .75.75v6a.75.75 0 0 1-1.5 0v-6a.75.75 0 0 1 .75-.75Z" fill="currentColor"/>
</svg>
