<svg xmlns="http://www.w3.org/2000/svg" viewBox="0 0 24 24" fill="none">
  <rect x="8.25" y="1.75" width="7.5" height="5.5" rx="1.75" fill="currentColor"/>
  <rect x="1.75" y="16.75" width="6.5" height="5.5" rx="1.75" fill="currentColor"/>
  <rect x="8.75" y="16.75" width="6.5" height="5.5" rx="1.75" fill="currentColor"/>
  <rect x="15.75" y="16.75" width="6.5" height="5.5" rx="1.75" fill="currentColor"/>
  <path fill-rule="evenodd" clip-rule="evenodd" d="M11.25 7.25v2.25H5a.75.75 0 0 0-.75.75v6.5a.75.75 0 0 0 1.5 0v-5.75h5.5v5.75a.75.75 0 0 0 1.5 0v-5.75h5.5v5.75a.75.75 0 0 0 1.5 0v-6.5a.75.75 0 0 0-.75-.75h-6.25V7.25a.75.75 0 0 0-1.5 0Z" fill="currentColor"/>
</svg>
