<svg xmlns="http://www.w3.org/2000/svg" viewBox="0 0 24 24" fill="none">
  <path fill-rule="evenodd" clip-rule="evenodd" d="M12 6.25c-4.37 0-7.25 3.25-7.25 7.5v.5H3c-1 0-1.75.75-1.75 1.5 0 2.12 1.5 3.75 3.75 3.75h.75l-.5 1.75a.75.75 0 0 0 1.5.5L7.25 20h9.5l.5 1.75a.75.75 0 0 0 1.5-.5L18.25 20H19c2.25 0 3.75-1.62 3.75-3.75 0-.75-.75-1.5-1.75-1.5h-1v-.13a.75.75 0 0 0 .75-.37l1.75-1.12a.75.75 0 0 0-.75-1.25l-1.62 1c-.38-3.75-3.25-6.63-7.13-6.63Zm-2.5 3a.75.75 0 0 1 .75.75V14a.75.75 0 0 1-1.5 0v-4a.75.75 0 0 1 .75-.75Zm2.5 0a.75.75 0 0 1 .75.75V14a.75.75 0 0 1-1.5 0v-4A.75.75 0 0 1 12 9.25Zm3.25.75a.75.75 0 0 0-1.5 0V14a.75.75 0 0 0 1.5 0v-4Z" fill="currentColor"/>
  <circle cx="20.25" cy="10.75" r="0.75" fill="currentColor"/>
</svg>
