<svg xmlns="http://www.w3.org/2000/svg" viewBox="0 0 24 24" fill="none">
  <path d="M22.46 6c-.77.35-1.6.58-2.46.69a4.28 4.28 0 0 0 1.88-2.37 8.59 8.59 0 0 1-2.72 1.04 4.28 4.28 0 0 0-7.32 3.91A12.16 12.16 0 0 1 3 4.79a4.28 4.28 0 0 0 1.32 5.72 4.24 4.24 0 0 1-1.94-.54v.06a4.29 4.29 0 0 0 3.43 4.2 4.28 4.28 0 0 1-1.93.07 4.29 4.29 0 0 0 4 2.98A8.59 8.59 0 0 1 2 19.14a12.13 12.13 0 0 0 6.56 1.92c7.88 0 12.2-6.53 12.2-12.2 0-.19 0-.37-.01-.56A8.72 8.72 0 0 0 22.92 6a8.55 8.55 0 0 1-2.46.68V6Z" fill="currentColor"/>
</svg>
