<svg xmlns="http://www.w3.org/2000/svg" viewBox="0 0 24 24" fill="none">
  <path fill-rule="evenodd" clip-rule="evenodd" d="M8 1.25a.75.75 0 0 1 .75.75v3a.75.75 0 0 1-1.5 0V2a.75.75 0 0 1 .75-.75ZM1.25 8a.75.75 0 0 1 .75-.75h3a.75.75 0 0 1 0 1.5H2A.75.75 0 0 1 1.25 8ZM16 19.25a.75.75 0 0 1 .75.75v2a.75.75 0 0 1-1.5 0v-2a.75.75 0 0 1 .75-.75ZM19.25 16a.75.75 0 0 1 .75-.75h2a.75.75 0 0 1 0 1.5h-2a.75.75 0 0 1-.75-.75Z" fill="currentColor"/>
  <path d="M15.53 6.47l1.42-1.42a4.25 4.25 0 0 1 6.01 6.01l-2.07 2.07a.75.75 0 0 1-1.06-1.06l2.07-2.07a2.75 2.75 0 0 0-3.89-3.89l-1.42 1.42a.75.75 0 0 1-1.06-1.06Z" fill="currentColor"/>
  <path d="M8.47 17.53l-1.42 1.42a4.25 4.25 0 0 1-6.01-6.01l2.07-2.07a.75.75 0 0 1 1.06 1.06L2.1 13.99a2.75 2.75 0 0 0 3.89 3.89l1.42-1.42a.75.75 0 0 1 1.06 1.06Z" fill="currentColor"/>
</svg>
