<svg xmlns="http://www.w3.org/2000/svg" viewBox="0 0 24 24" fill="none">
  <circle cx="10" cy="8" r="4.75" fill="currentColor"/>
  <path d="M1.75 21.5a6.75 6.75 0 0 1 6.75-6.75h3a6.75 6.75 0 0 1 6.75 6.75v.5H1.75v-.5Z" fill="currentColor"/>
  <path fill-rule="evenodd" clip-rule="evenodd" d="M17.47 8.47a.75.75 0 0 1 1.06 0L20 9.94l1.47-1.47a.75.75 0 1 1 1.06 1.06L21.06 11l1.47 1.47a.75.75 0 1 1-1.06 1.06L20 12.06l-1.47 1.47a.75.75 0 1 1-1.06-1.06L18.94 11l-1.47-1.47a.75.75 0 0 1 0-1.06Z" fill="currentColor"/>
</svg>
