<svg xmlns="http://www.w3.org/2000/svg" viewBox="0 0 24 24" fill="none">
  <path d="M9.5 4.25a.75.75 0 0 1-.75-.75c0-.75.5-1.58 1.32-1.86a.75.75 0 1 1 .46 1.43c-.15.05-.28.18-.28.43a.75.75 0 0 1-.75.75ZM12.75 5a.75.75 0 0 1-.75-.75v-2.5a.75.75 0 0 1 1.5 0v2.5a.75.75 0 0 1-.75.75ZM15 4.25a.75.75 0 0 1-.75-.75c0-.25-.13-.38-.28-.43a.75.75 0 1 1 .46-1.43c.82.28 1.32 1.11 1.32 1.86a.75.75 0 0 1-.75.75Z" fill="currentColor"/>
  <path d="M2.08 21.18L8.08 8.68A1 1 0 0 1 8.97 8.1h6.06a1 1 0 0 1 .89.58l6 12.5a.75.75 0 0 1-.67 1.07H2.75a.75.75 0 0 1-.67-1.07Z" fill="currentColor"/>
</svg>
