<svg xmlns="http://www.w3.org/2000/svg" viewBox="0 0 24 24" fill="none">
  <path fill-rule="evenodd" clip-rule="evenodd" d="M8.25 2.5a.75.75 0 0 1 .75-.75h6a.75.75 0 0 1 .75.75v2.44A6.75 6.75 0 0 0 12 3.75a6.75 6.75 0 0 0-3.75 1.19V2.5Zm0 19v-2.44A6.75 6.75 0 0 0 12 20.25a6.75 6.75 0 0 0 3.75-1.19v2.44a.75.75 0 0 1-.75.75H9a.75.75 0 0 1-.75-.75Z" fill="currentColor"/>
  <path fill-rule="evenodd" clip-rule="evenodd" d="M12 5.25a6.75 6.75 0 1 0 0 13.5 6.75 6.75 0 0 0 0-13.5ZM12.75 9a.75.75 0 0 0-1.5 0v3.5c0 .24.12.47.33.6l2 1.5a.75.75 0 1 0 .9-1.2l-1.73-1.3V9Z" fill="currentColor"/>
  <rect x="18" y="11" width="2" height="2" rx="0.5" fill="currentColor"/>
</svg>
