<svg xmlns="http://www.w3.org/2000/svg" viewBox="0 0 24 24" fill="none">
  <path d="M2.5 8.25a.75.75 0 0 1 0-1.5c1.13 0 1.73-.68 2.8-1.23.52-.27 1.19-.52 1.95-.52s1.43.25 1.95.52C10.27 6.07 10.87 6.75 12 6.75s1.73-.68 2.8-1.23c.52-.27 1.19-.52 1.95-.52s1.43.25 1.95.52c1.07.55 1.67 1.23 2.8 1.23a.75.75 0 0 1 0 1.5c-1.58 0-2.5-.93-3.55-1.47-.38-.2-.77-.28-1.2-.28s-.82.08-1.2.28C14.5 7.32 13.58 8.25 12 8.25s-2.5-.93-3.55-1.47c-.38-.2-.77-.28-1.2-.28s-.82.08-1.2.28C5 7.32 4.08 8.25 2.5 8.25Z" fill="currentColor"/>
  <path d="M2.5 13.25a.75.75 0 0 1 0-1.5c1.13 0 1.73-.68 2.8-1.23.52-.27 1.19-.52 1.95-.52s1.43.25 1.95.52c1.07.55 1.67 1.23 2.8 1.23s1.73-.68 2.8-1.23c.52-.27 1.19-.52 1.95-.52s1.43.25 1.95.52c1.07.55 1.67 1.23 2.8 1.23a.75.75 0 0 1 0 1.5c-1.58 0-2.5-.93-3.55-1.47-.38-.2-.77-.28-1.2-.28s-.82.08-1.2.28c-1.05.54-1.97 1.47-3.55 1.47s-2.5-.93-3.55-1.47c-.38-.2-.77-.28-1.2-.28s-.82.08-1.2.28C5 12.32 4.08 13.25 2.5 13.25Z" fill="currentColor"/>
  <path d="M2.5 18.25a.75.75 0 0 1 0-1.5c1.13 0 1.73-.68 2.8-1.23.52-.27 1.19-.52 1.95-.52s1.43.25 1.95.52c1.07.55 1.67 1.23 2.8 1.23s1.73-.68 2.8-1.23c.52-.27 1.19-.52 1.95-.52s1.43.25 1.95.52c1.07.55 1.67 1.23 2.8 1.23a.75.75 0 0 1 0 1.5c-1.58 0-2.5-.93-3.55-1.47-.38-.2-.77-.28-1.2-.28s-.82.08-1.2.28c-1.05.54-1.97 1.47-3.55 1.47s-2.5-.93-3.55-1.47c-.38-.2-.77-.28-1.2-.28s-.82.08-1.2.28C5 17.32 4.08 18.25 2.5 18.25Z" fill="currentColor"/>
</svg>
