<svg xmlns="http://www.w3.org/2000/svg" viewBox="0 0 24 24" fill="none">
  <path fill-rule="evenodd" clip-rule="evenodd" d="M10.25 2.5a.75.75 0 0 1 .75-.75h2a.75.75 0 0 1 .75.75V4H14a1.75 1.75 0 0 1 1.75 1.75v1.5h.5a.75.75 0 0 1 .75.75v1.25h.75V19.5A2.75 2.75 0 0 1 15 22.25H9A2.75 2.75 0 0 1 6.25 19.5V9.25H7V8a.75.75 0 0 1 .75-.75h.5v-1.5A1.75 1.75 0 0 1 10 4h.25V2.5Zm1 9.5a.75.75 0 0 0-1.5 0v1.25H8.5a.75.75 0 0 0 0 1.5h1.25V16a.75.75 0 0 0 1.5 0v-1.25h1.25a.75.75 0 0 0 0-1.5h-1.25V12Z" fill="currentColor"/>
</svg>
