<svg xmlns="http://www.w3.org/2000/svg" viewBox="0 0 24 24" fill="none">
  <path fill-rule="evenodd" clip-rule="evenodd" d="M12 17.5a2 2 0 1 1 0 4 2 2 0 0 1 0-4Zm-4.03-2.53a.75.75 0 0 0-1.06 1.06 6.25 6.25 0 0 0 8.84 0 .75.75 0 0 0-1.06-1.06 4.75 4.75 0 0 1-6.72 0Zm-3.53-3.53a.75.75 0 0 0-1.06 1.06 10.75 10.75 0 0 0 15.24 0 .75.75 0 0 0-1.06-1.06 9.25 9.25 0 0 1-13.12 0ZM1.91 8.97a.75.75 0 0 0-1.06 1.06 15.25 15.25 0 0 0 21.56 0 .75.75 0 0 0-1.06-1.06A13.75 13.75 0 0 1 1.91 8.97Z" fill="currentColor"/>
</svg>
