<svg xmlns="http://www.w3.org/2000/svg" viewBox="0 0 24 24" fill="none">
  <path fill-rule="evenodd" clip-rule="evenodd" d="M2.25 8a.75.75 0 0 1 .75-.75h9.5a1.75 1.75 0 1 0-1.75-1.75.75.75 0 0 1-1.5 0A3.25 3.25 0 1 1 12.5 8.75H3a.75.75 0 0 1-.75-.75Zm0 4a.75.75 0 0 1 .75-.75h13.5a1.75 1.75 0 1 1-1.75 1.75.75.75 0 0 1 1.5 0A3.25 3.25 0 1 0 16.5 11.25H3a.75.75 0 0 1-.75-.75Zm0 4a.75.75 0 0 1 .75-.75h6.5a1.75 1.75 0 1 1-1.75 1.75.75.75 0 0 1 1.5 0A3.25 3.25 0 1 0 9.5 15.25H3a.75.75 0 0 1-.75-.75Z" fill="currentColor"/>
</svg>
