<svg xmlns="http://www.w3.org/2000/svg" viewBox="0 0 24 24" fill="none">
  <path fill-rule="evenodd" clip-rule="evenodd" d="M4.6 1.85a.75.75 0 0 1 1.35.15L8.2 6.65 12 8l3.8-1.35L18.05 2a.75.75 0 0 1 1.35-.15l3.5 6.5c.35.7.1 1.75-.5 2.35L20 13c-.65.65-1.1 1.45-1.35 2.35l-.5 2c-.3 1.1-1.15 1.9-2.15 2.15l-1 .25c-.3.05-.65.1-1 .1s-.7-.05-1-.1l-1-.25c-1-.25-1.85-1.05-2.15-2.15l-.5-2C9.1 14.45 8.65 13.65 8 13L5.6 10.7c-.6-.6-.85-1.65-.5-2.35l-.5 1v-7.5ZM9 9.75a1.25 1.25 0 1 0 0 2.5 1.25 1.25 0 0 0 0-2.5Zm6 0a1.25 1.25 0 1 0 0 2.5 1.25 1.25 0 0 0 0-2.5ZM10.5 14c.5.5 1 .75 1.5.75s1-.25 1.5-.75a.75.75 0 0 1 1.1 1c-.7.7-1.55 1.25-2.6 1.25s-1.9-.55-2.6-1.25a.75.75 0 0 1 1.1-1ZM6.5 13.25a.75.75 0 0 1 .25 1L4.5 15.5a.75.75 0 0 1-.85-1.25l2.25-1.25a.75.75 0 0 1 .6.25Zm11 0a.75.75 0 0 0-.25 1l2.25 1.25a.75.75 0 0 0 .85-1.25l-2.25-1.25a.75.75 0 0 0-.6.25Z" fill="currentColor"/>
</svg>
