<svg xmlns="http://www.w3.org/2000/svg" viewBox="0 0 24 24" fill="none">
  <path d="M14.5 2.75c-.69.69-1.63 1.19-2.75 1.44" stroke="currentColor" stroke-width="1.5" stroke-linecap="round"/>
  <path d="M12 6.25c-.75-.25-1.63-.5-2.5-.5C6.75 5.75 4.5 8 4.5 10.5c0 2.38.75 5 1.88 7C7.5 19.38 8.75 20.75 10 20.75c.75 0 1.25-.5 2-.5s1.25.5 2 .5c1.25 0 2.5-1.38 3.63-3.25.63-1.06 1.13-2.25 1.44-3.44a3.5 3.5 0 0 1-2.19-3.25c0-1.31.75-2.44 1.81-3.06C19.88 6.69 18.5 6 17 6c-.88 0-1.63.19-2.25.44-.5.19-1 .31-1.5.31-.38 0-.75-.13-1.25-.5Z" stroke="currentColor" stroke-width="1.5" stroke-linejoin="round"/>
</svg>
