<svg xmlns="http://www.w3.org/2000/svg" viewBox="0 0 24 24" fill="none">
  <path d="M11 2.5c.75-.13 1.5.13 2.13.5.75.5 1.25 1.13 1.75 1.88.5.75.88 1.63 1.13 2.5.25 1 .38 2 .25 3-.13 1.25-.5 2.5-1 3.5-.5 1.13-1.13 2.13-1.88 3-.75.88-1.5 1.63-2.25 2.38-.5.5-1.13.88-1.75 1-.5.13-1 0-1.38-.38-.5-.5-.75-1.13-1-1.88-.25-.75-.38-1.63-.38-2.5 0-1 .13-2 .38-3 .25-.88.5-1.75.63-2.63.13-.75 0-1.5-.13-2.25-.13-.63 0-1.25.25-1.88.25-.5.63-1 1.13-1.38.5-.38 1.13-.63 1.75-.75.13 0 .25-.06.38-.06Z" stroke="currentColor" stroke-width="1.5" stroke-linejoin="round"/>
</svg>
