<svg xmlns="http://www.w3.org/2000/svg" viewBox="0 0 24 24" fill="none">
  <path d="M7.5 21c-1.93 0-3.5-1.34-3.5-3 0-1.1.62-2.06 1.55-2.62a.5.5 0 0 0 0-.76C4.62 14.06 4 13.1 4 12c0-1.66 1.57-3 3.5-3S11 10.34 11 12c0 1.1-.62 2.06-1.55 2.62a.5.5 0 0 0 0 .76C10.38 15.94 11 16.9 11 18c0 1.66-1.57 3-3.5 3Z" stroke="currentColor" stroke-width="1.5" stroke-linejoin="round"/>
  <path d="M11 12l8-8" stroke="currentColor" stroke-width="1.5" stroke-linecap="round"/>
  <path d="M17.5 3L21 3V6.5" stroke="currentColor" stroke-width="1.5" stroke-linecap="round" stroke-linejoin="round"/>
  <path d="M19 6L21 4" stroke="currentColor" stroke-width="1.5" stroke-linecap="round"/>
  <circle cx="7.5" cy="17.5" r="1" stroke="currentColor" stroke-width="1.5"/>
</svg>
