<svg xmlns="http://www.w3.org/2000/svg" viewBox="0 0 24 24" fill="none">
  <path d="M12 6.5C10.5 5 8.5 4.5 5.5 4.5A1.5 1.5 0 0 0 4 6v10.5A1.5 1.5 0 0 0 5.5 18c3 0 5 .5 6.5 2" stroke="currentColor" stroke-width="1.5" stroke-linecap="round" stroke-linejoin="round"/>
  <path d="M12 6.5c1.5-1.5 3.5-2 6.5-2A1.5 1.5 0 0 1 20 6v10.5a1.5 1.5 0 0 1-1.5 1.5c-3 0-5 .5-6.5 2" stroke="currentColor" stroke-width="1.5" stroke-linecap="round" stroke-linejoin="round"/>
  <path d="M12 6.5V20" stroke="currentColor" stroke-width="1.5" stroke-linecap="round"/>
</svg>
