<svg xmlns="http://www.w3.org/2000/svg" viewBox="0 0 24 24" fill="none">
  <path d="M4 14.5c0 2.21 3.58 4 8 4s8-1.79 8-4c0-1-.5-1.75-1.5-2.25.5-1 .5-2-.25-2.75S16.5 8.5 15.5 8.5c-.5-1.5-2-2.5-3.5-2.5s-3 1-3.5 2.5c-1 0-2 .25-2.75 1S5 11.25 5.5 12.25C4.5 12.75 4 13.5 4 14.5Z" stroke="currentColor" stroke-width="1.5" stroke-linecap="round" stroke-linejoin="round"/>
  <path d="M4 14.5c0 1.5 2.5 2.75 6 3.25.5-1 1.5-1.75 2-1.75s1.5.75 2 1.75c3.5-.5 6-1.75 6-3.25" stroke="currentColor" stroke-width="1.5" stroke-linecap="round" stroke-linejoin="round"/>
  <circle cx="9" cy="11.5" r="1.25" stroke="currentColor" stroke-width="1.5"/>
  <circle cx="13.5" cy="10.75" r="1" stroke="currentColor" stroke-width="1.5"/>
  <circle cx="11" cy="13.5" r="1" stroke="currentColor" stroke-width="1.5"/>
</svg>
