<svg xmlns="http://www.w3.org/2000/svg" viewBox="0 0 24 24" fill="none">
  <path d="M3 14.5V17a1 1 0 0 0 1 1h1.05a2.5 2.5 0 0 0 4.9 0h4.1a2.5 2.5 0 0 0 4.9 0H19a1 1 0 0 0 1-1v-3.5a1 1 0 0 0-.2-.6L18 10l-2.5-4.5a1 1 0 0 0-.88-.5H7.5a1 1 0 0 0-.86.5L4.5 10l-1.3 3.9a1 1 0 0 0-.2.6Z" stroke="currentColor" stroke-width="1.5" stroke-linejoin="round"/>
  <path d="M6.5 10h11L15.5 6H8L6.5 10Z" stroke="currentColor" stroke-width="1.5" stroke-linejoin="round"/>
  <circle cx="7.5" cy="18" r="1.25" stroke="currentColor" stroke-width="1.5"/>
  <circle cx="16.5" cy="18" r="1.25" stroke="currentColor" stroke-width="1.5"/>
</svg>
