<svg xmlns="http://www.w3.org/2000/svg" viewBox="0 0 24 24" fill="none">
  <path d="M4.5 7V3.5l4 3.5h7l4-3.5V7a7.5 7.5 0 0 1-3.25 6.19V15a5.25 5.25 0 0 1-10.5 0v-1.81A7.5 7.5 0 0 1 4.5 7Z" stroke="currentColor" stroke-width="1.5" stroke-linejoin="round"/>
  <circle cx="9" cy="10.5" r="1" stroke="currentColor" stroke-width="1.5"/>
  <circle cx="15" cy="10.5" r="1" stroke="currentColor" stroke-width="1.5"/>
  <path d="M12 13.5v1" stroke="currentColor" stroke-width="1.5" stroke-linecap="round"/>
  <path d="M10.5 15.5c.5.5 2.5.5 3 0" stroke="currentColor" stroke-width="1.5" stroke-linecap="round"/>
  <path d="M2.5 11.5l3 .5M21.5 11.5l-3 .5M2.5 14l3-.5M21.5 14l-3-.5" stroke="currentColor" stroke-width="1.5" stroke-linecap="round"/>
</svg>
