<svg xmlns="http://www.w3.org/2000/svg" viewBox="0 0 24 24" fill="none">
  <path d="M4.5 11C5 8.5 7 6.5 9.5 5.5c2-.75 4.25-.5 6 .75l1.5-2.75c.25-.5.75-.25.75.25 0 1-.25 2.25-.75 3.25C18.5 7.5 20 8.5 21 10c.75 1.25.75 3 0 4.25-1 1.75-2.75 3-5 3.5-1.75.5-3.5.25-5-.25-1-.25-2-.75-2.75-1.5l-2.5 2c-.5.25-1-.25-.75-.75L6.25 15C5 13.75 4.25 12.5 4.5 11Z" stroke="currentColor" stroke-width="1.5" stroke-linejoin="round"/>
  <circle cx="16" cy="10" r="0.75" fill="currentColor"/>
  <path d="M10.5 13c1.25.75 3 1 4.5.5" stroke="currentColor" stroke-width="1.5" stroke-linecap="round"/>
</svg>
