<svg xmlns="http://www.w3.org/2000/svg" viewBox="0 0 24 24" fill="none">
  <path d="M6.5 4.5C4 6 3 9.5 4.5 13c1.5 3.5 5 5.5 8 5s5-3.5 5-7-2-6.5-5-7.5c-2-.67-4.5-.5-6 1Z" stroke="currentColor" stroke-width="1.5" stroke-linecap="round" stroke-linejoin="round"/>
  <path d="M8.5 7.5c1.5-.5 3 .5 3.5 2s0 3-1.5 3.5" stroke="currentColor" stroke-width="1.5" stroke-linecap="round" stroke-linejoin="round"/>
  <path d="M11 12c1.5-.5 3 .5 3.5 2s0 3-1.5 3.5" stroke="currentColor" stroke-width="1.5" stroke-linecap="round" stroke-linejoin="round"/>
  <path d="M12.5 3.5c1 1 1.5 1.5 3.5 1" stroke="currentColor" stroke-width="1.5" stroke-linecap="round" stroke-linejoin="round"/>
</svg>
