<svg xmlns="http://www.w3.org/2000/svg" viewBox="0 0 24 24" fill="none">
  <path d="M6 7.5C6 4.46 8.69 2 12 2c3.31 0 6 2.46 6 5.5v5c0 3.04-2.69 5.5-6 5.5H9.5" stroke="currentColor" stroke-width="1.5" stroke-linejoin="round"/>
  <path d="M6 7.5C4.5 7.5 2.5 9 2.5 11.5S4 15.5 6 15.5" stroke="currentColor" stroke-width="1.5" stroke-linejoin="round"/>
  <path d="M9.5 18v-2c0-.75-.5-1.25-1-1.75L7 12.5c-.75-.75-1-1.5-1-2.5v-.5" stroke="currentColor" stroke-width="1.5" stroke-linecap="round" stroke-linejoin="round"/>
  <path d="M9.5 18c0 1 .5 2.5 1.5 3.5" stroke="currentColor" stroke-width="1.5" stroke-linecap="round" stroke-linejoin="round"/>
  <path d="M18 9h1.5c.83 0 1.5.67 1.5 1.5v0c0 .83-.67 1.5-1.5 1.5H18" stroke="currentColor" stroke-width="1.5" stroke-linecap="round" stroke-linejoin="round"/>
  <circle cx="15" cy="7.5" r="0.75" fill="currentColor"/>
</svg>
