<svg xmlns="http://www.w3.org/2000/svg" viewBox="0 0 24 24" fill="none">
  <path d="M12 2.5L4.5 5.5v4.75c0 5.25 3.25 8.5 7.5 10.75 4.25-2.25 7.5-5.5 7.5-10.75V5.5L12 2.5Z" stroke="currentColor" stroke-width="1.5" stroke-linejoin="round"/>
  <path d="M10.5 16.5c0-1.5.25-3 1-4.25.5-.75 1-1.5 1.25-2.5.25-.75.25-1.5 0-2.25L12 6.5l-1.5 1c-.5.5-.75 1-.75 1.75v1.5c0 .5-.25 1-.75 1.25l-1.25.75" stroke="currentColor" stroke-width="1.5" stroke-linecap="round" stroke-linejoin="round"/>
  <path d="M10.5 16.5h3" stroke="currentColor" stroke-width="1.5" stroke-linecap="round"/>
  <path d="M14 8.5l1.75-.75" stroke="currentColor" stroke-width="1.5" stroke-linecap="round"/>
</svg>
