<svg xmlns="http://www.w3.org/2000/svg" viewBox="0 0 24 24" fill="none">
  <path d="M3 12c0-2.5 1.25-4.75 3.5-6C8.5 4.75 11 4.5 14 5.5c2 .75 3.5 2.25 4.25 4.25.5 1.25.5 3.25 0 4.5-.75 2-2.25 3.5-4.25 4.25-3 1-5.5.75-7.5-.5C4.25 16.75 3 14.5 3 12Z" stroke="currentColor" stroke-width="1.5" stroke-linejoin="round"/>
  <path d="M18.25 9l3.25-4M18.25 15l3.25 4" stroke="currentColor" stroke-width="1.5" stroke-linecap="round" stroke-linejoin="round"/>
  <circle cx="7.75" cy="10.5" r="0.75" fill="currentColor"/>
  <path d="M12 10c-.5.75-.5 3 0 4" stroke="currentColor" stroke-width="1.5" stroke-linecap="round"/>
</svg>
