<svg xmlns="http://www.w3.org/2000/svg" viewBox="0 0 24 24" fill="none">
  <path d="M12 2.5c0 3-2.5 4.5-4 7a6.5 6.5 0 0 0-1 3.5C7 16.54 9.24 21 12 21s5-4.46 5-8c0-1.25-.33-2.42-1-3.5-1.5-2.5-4-4-4-7Z" stroke="currentColor" stroke-width="1.5" stroke-linecap="round" stroke-linejoin="round"/>
  <path d="M12 21c-1.66 0-3-1.79-3-4 0-1.1.33-2.08 1-2.75.67-.67 1.5-1.75 2-3.25.5 1.5 1.33 2.58 2 3.25.67.67 1 1.65 1 2.75 0 2.21-1.34 4-3 4Z" stroke="currentColor" stroke-width="1.5" stroke-linecap="round" stroke-linejoin="round"/>
</svg>
