<svg xmlns="http://www.w3.org/2000/svg" viewBox="0 0 24 24" fill="none">
  <path d="M5.5 3L3 10c-.25.75 0 1.5.5 2l3.5 3c1 .75 2 1.75 2.5 3l.75 1.5c.5.75 1.25 1.25 2 1.25h.5c.75 0 1.5-.5 2-1.25L15.5 18c.5-1.25 1.5-2.25 2.5-3l3.5-3c.5-.5.75-1.25.5-2L18.5 3l-3 4L12 8.5 8.5 7 5.5 3Z" stroke="currentColor" stroke-width="1.5" stroke-linejoin="round"/>
  <circle cx="9.5" cy="11" r="0.75" stroke="currentColor" stroke-width="1"/>
  <circle cx="14.5" cy="11" r="0.75" stroke="currentColor" stroke-width="1"/>
  <path d="M11 14.5c.25.5.75.75 1 .75s.75-.25 1-.75" stroke="currentColor" stroke-width="1.5" stroke-linecap="round" stroke-linejoin="round"/>
</svg>
