<svg xmlns="http://www.w3.org/2000/svg" viewBox="0 0 24 24" fill="none">
  <path d="M14.12 3.05l4.24 4.24a1 1 0 0 1 0 1.41l-1.77 1.77a1 1 0 0 1-1.41 0L10.94 6.24a1 1 0 0 1 0-1.41l1.77-1.77a1 1 0 0 1 1.41 0Z" stroke="currentColor" stroke-width="1.5" stroke-linejoin="round"/>
  <path d="M10.94 10.47L4.29 17.12a1 1 0 0 1-1.41 0l-.59-.59a1 1 0 0 1 0-1.41l6.65-6.65" stroke="currentColor" stroke-width="1.5" stroke-linecap="round" stroke-linejoin="round"/>
  <path d="M14 19.5h7" stroke="currentColor" stroke-width="1.5" stroke-linecap="round"/>
  <path d="M17.5 19.5V21" stroke="currentColor" stroke-width="1.5" stroke-linecap="round"/>
</svg>
