<svg xmlns="http://www.w3.org/2000/svg" viewBox="0 0 24 24" fill="none">
  <path d="M12 2.5a9.5 9.5 0 0 0-3 18.52c.47.09.64-.2.64-.46v-1.6c-2.63.57-3.18-1.27-3.18-1.27a2.5 2.5 0 0 0-1.05-1.38c-.86-.59.06-.58.06-.58a1.98 1.98 0 0 1 1.45.97 2.01 2.01 0 0 0 2.75.78 2.02 2.02 0 0 1 .6-1.26c-2.1-.24-4.31-1.05-4.31-4.68a3.67 3.67 0 0 1 .97-2.54 3.41 3.41 0 0 1 .09-2.5s.8-.26 2.61.97a8.98 8.98 0 0 1 4.74 0c1.81-1.23 2.61-.97 2.61-.97a3.41 3.41 0 0 1 .09 2.5 3.67 3.67 0 0 1 .97 2.54c0 3.64-2.21 4.44-4.32 4.67a2.26 2.26 0 0 1 .64 1.75v2.6c0 .26.17.56.65.46A9.5 9.5 0 0 0 12 2.5Z" stroke="currentColor" stroke-width="1.5" stroke-linecap="round" stroke-linejoin="round"/>
</svg>
