<svg xmlns="http://www.w3.org/2000/svg" viewBox="0 0 24 24" fill="none">
  <path d="M10.5 2.5H13.5V4H10.5V2.5Z" stroke="currentColor" stroke-width="1.5" stroke-linejoin="round"/>
  <path d="M11 4V9M13 4V9" stroke="currentColor" stroke-width="1.5" stroke-linecap="round"/>
  <path d="M11 9C8 9 7 10.5 7 12C7 13.25 8 14 9.25 14.5C7.25 15.5 5.5 17 5.5 19C5.5 21 7.5 21.5 12 21.5C16.5 21.5 18.5 21 18.5 19C18.5 17 16.75 15.5 14.75 14.5C16 14 17 13.25 17 12C17 10.5 16 9 13 9" stroke="currentColor" stroke-width="1.5" stroke-linecap="round" stroke-linejoin="round"/>
  <circle cx="12" cy="18" r="1.5" stroke="currentColor" stroke-width="1.5"/>
</svg>
