<svg xmlns="http://www.w3.org/2000/svg" viewBox="0 0 24 24" fill="none">
  <path d="M6 8.5h12v10a2 2 0 0 1-2 2H8a2 2 0 0 1-2-2v-10Z" stroke="currentColor" stroke-width="1.5" stroke-linejoin="round"/>
  <path d="M6 8.5h12V7a2 2 0 0 0-2-2H8a2 2 0 0 0-2 2v1.5Z" stroke="currentColor" stroke-width="1.5" stroke-linejoin="round"/>
  <path d="M8 5V3.5a1 1 0 0 1 1-1h6a1 1 0 0 1 1 1V5" stroke="currentColor" stroke-width="1.5" stroke-linecap="round" stroke-linejoin="round"/>
  <path d="M12 14.5c-1.25 0-2-1-2-2.25S12 10 12 10s2 1 2 2.25-0.75 2.25-2 2.25Z" stroke="currentColor" stroke-width="1.5" stroke-linejoin="round"/>
  <path d="M11 14.5c-.5.5-.5 1.5 0 2M13 14.5c.5.5.5 1.5 0 2" stroke="currentColor" stroke-width="1.5" stroke-linecap="round"/>
</svg>
