<svg xmlns="http://www.w3.org/2000/svg" viewBox="0 0 24 24" fill="none">
  <path d="M3 5.5h18" stroke="currentColor" stroke-width="1.5" stroke-linecap="round"/>
  <path d="M12 5.5V9" stroke="currentColor" stroke-width="1.5" stroke-linecap="round"/>
  <path d="M4 9h9a3 3 0 0 1 3 3v1a3 3 0 0 1-3 3H4a1 1 0 0 1-1-1v-5a1 1 0 0 1 1-1Z" stroke="currentColor" stroke-width="1.5" stroke-linejoin="round"/>
  <path d="M16 11h3.5a2 2 0 0 1 0 4H16" stroke="currentColor" stroke-width="1.5" stroke-linecap="round" stroke-linejoin="round"/>
  <path d="M6.5 16v2.5" stroke="currentColor" stroke-width="1.5" stroke-linecap="round"/>
  <path d="M12.5 16v2.5" stroke="currentColor" stroke-width="1.5" stroke-linecap="round"/>
  <path d="M4.5 18.5h10" stroke="currentColor" stroke-width="1.5" stroke-linecap="round"/>
</svg>
