<svg xmlns="http://www.w3.org/2000/svg" viewBox="0 0 24 24" fill="none">
  <path d="M9 2L10.5 4L11.5 3L13 2C14 3 14.5 5 15 7C16 12 17 16 17.5 21L15 19C14 16 13 13 12 11.5C11 10.5 9.5 10 8 10.5C6.5 11 5.5 11 5 11C4 11 3.5 10.5 4 10C4.5 9 5.5 7.5 6.5 6.5C7.5 5 8.5 3.5 9 2.5Z" stroke="currentColor" stroke-width="1.5" stroke-linejoin="round"/>
  <path d="M13.5 3.5C14 6 14.5 9 15.5 13" stroke="currentColor" stroke-width="1.5" stroke-linecap="round"/>
  <circle cx="7.5" cy="7" r="0.75" fill="currentColor"/>
  <circle cx="4.5" cy="10.25" r="0.5" fill="currentColor"/>
</svg>
