<svg xmlns="http://www.w3.org/2000/svg" viewBox="0 0 24 24" fill="none">
  <path d="M4 4v4M3 8h2" stroke="currentColor" stroke-width="1.5" stroke-linecap="round" stroke-linejoin="round"/>
  <path d="M9 6h12" stroke="currentColor" stroke-width="1.5" stroke-linecap="round"/>
  <path d="M3 10.5a1.5 1.5 0 0 1 1.5-1.5v0A1.5 1.5 0 0 1 6 10.5v0c0 .83-.67 1.5-1.5 2.5L3 14.5h3" stroke="currentColor" stroke-width="1.5" stroke-linecap="round" stroke-linejoin="round"/>
  <path d="M9 12h12" stroke="currentColor" stroke-width="1.5" stroke-linecap="round"/>
  <path d="M3 16.5a1.5 1.5 0 0 1 1.5-1.5v0A1.5 1.5 0 0 1 6 16.5v0a1.25 1.25 0 0 1-1.25 1.25h0A1.25 1.25 0 0 1 6 19v0a1.5 1.5 0 0 1-1.5 1.5v0A1.5 1.5 0 0 1 3 19" stroke="currentColor" stroke-width="1.5" stroke-linecap="round" stroke-linejoin="round"/>
  <path d="M9 18h12" stroke="currentColor" stroke-width="1.5" stroke-linecap="round"/>
</svg>
