<svg xmlns="http://www.w3.org/2000/svg" viewBox="0 0 24 24" fill="none">
  <path d="M15 3.5c1.75-.25 3.5.25 4.75 1.5s1.75 3 1.5 4.75c-.25 1.25-.87 2.25-1.75 3-1 .75-2.25 1.12-3.5 1-1.5-.12-2.75-.87-3.62-2-.75-1-1.12-2.25-1-3.5.12-1.25.62-2.5 1.5-3.37.62-.62 1.25-.87 2.12-1.38Z" stroke="currentColor" stroke-width="1.5" stroke-linejoin="round"/>
  <path d="M12.5 12.5l-8.25 8.25" stroke="currentColor" stroke-width="1.5" stroke-linecap="round"/>
  <path d="M15 13l-5.5 5.5" stroke="currentColor" stroke-width="1.5" stroke-linecap="round"/>
  <path d="M11 11l-3.5 7" stroke="currentColor" stroke-width="1.5" stroke-linecap="round"/>
</svg>
