<svg xmlns="http://www.w3.org/2000/svg" viewBox="0 0 24 24" fill="none">
  <path d="M10.77 3.08a2.5 2.5 0 0 1 2.46 0l6.19 3.54A2.5 2.5 0 0 1 20.67 8.8v7.4a2.5 2.5 0 0 1-1.25 2.17l-6.19 3.54a2.5 2.5 0 0 1-2.46 0l-6.19-3.54A2.5 2.5 0 0 1 3.33 16.2V8.8a2.5 2.5 0 0 1 1.25-2.17l6.19-3.54Z" stroke="currentColor" stroke-width="1.5" stroke-linejoin="round"/>
  <path d="M12 7.5v9" stroke="currentColor" stroke-width="1.5" stroke-linecap="round"/>
  <path d="M8.1 9.75l7.8 4.5" stroke="currentColor" stroke-width="1.5" stroke-linecap="round"/>
  <path d="M8.1 14.25l7.8-4.5" stroke="currentColor" stroke-width="1.5" stroke-linecap="round"/>
</svg>
