<svg xmlns="http://www.w3.org/2000/svg" viewBox="0 0 24 24" fill="none">
  <path d="M6 9c0-2 1.5-4 4-4.5 2-.4 3.5.5 4.5 2 .75 1.13 1 2.5.5 4-.5 1.25-2 2-3.5 2S9 12 8 11c-.75-.75-2-1-2-2Z" stroke="currentColor" stroke-width="1.5" stroke-linecap="round" stroke-linejoin="round"/>
  <path d="M12.5 10c1.5-.75 3-2 4.5-1.5 1.75.58 2.5 2.5 2 4.5-.5 1.75-2 3-4 3-1.5 0-2.5-.75-3-1.5" stroke="currentColor" stroke-width="1.5" stroke-linecap="round" stroke-linejoin="round"/>
  <path d="M8.5 12.5c-.5 1-1 2.5-.5 4 .5 1.75 2 3 4 3.25 2 .25 3.5-.5 4.5-2 .75-1.13.5-2.25 0-3" stroke="currentColor" stroke-width="1.5" stroke-linecap="round" stroke-linejoin="round"/>
  <path d="M8 7.5c.5 1.5 1 3 .5 4.5" stroke="currentColor" stroke-width="1.5" stroke-linecap="round" stroke-linejoin="round"/>
  <path d="M15 10c.5 1 .5 2 0 3" stroke="currentColor" stroke-width="1.5" stroke-linecap="round" stroke-linejoin="round"/>
</svg>
