<svg xmlns="http://www.w3.org/2000/svg" viewBox="0 0 24 24" fill="none">
  <path d="M12 2C8 2 7.5 3.75 7.5 5v2.5H12v1H5.5C3.5 8.5 2 10.5 2 13.5S3.5 18 5.5 18H7v-2.5C7 13.5 8.5 12 10.5 12h3c1.5 0 2.5-1 2.5-2.5V5c0-1.5-1.5-3-4-3Z" stroke="currentColor" stroke-width="1.5" stroke-linejoin="round"/>
  <path d="M12 22c4 0 4.5-1.75 4.5-3v-2.5H12v-1h6.5c2 0 3.5-2 3.5-5s-1.5-4.5-3.5-4.5H17v2.5c0 2-1.5 3.5-3.5 3.5h-3c-1.5 0-2.5 1-2.5 2.5V19c0 1.5 1.5 3 4 3Z" stroke="currentColor" stroke-width="1.5" stroke-linejoin="round"/>
  <circle cx="9.5" cy="5.25" r="0.75" fill="currentColor"/>
  <circle cx="14.5" cy="18.75" r="0.75" fill="currentColor"/>
</svg>
