<svg xmlns="http://www.w3.org/2000/svg" viewBox="0 0 24 24" fill="none">
  <path d="M3 13.5c0 4.5 4.03 7.5 9 7.5s9-3 9-7.5" stroke="currentColor" stroke-width="1.5" stroke-linecap="round" stroke-linejoin="round"/>
  <ellipse cx="12" cy="13.5" rx="9" ry="3" stroke="currentColor" stroke-width="1.5"/>
  <path d="M7.5 12.75c1.25-.5 2.75-.75 4.5-.75s3.25.25 4.5.75" stroke="currentColor" stroke-width="1.5" stroke-linecap="round" stroke-linejoin="round"/>
  <path d="M7 7.25c.75-1.5 2.5-2.75 4.75-2.75 1.25 0 2.25.38 3 1l1.5-1v3l-1.5-1c-.75.62-1.75 1-3 1C9.5 9.5 7.75 8.75 7 7.25Z" stroke="currentColor" stroke-width="1.5" stroke-linejoin="round"/>
  <circle cx="9.75" cy="6.5" r="0.5" stroke="currentColor" stroke-width="1"/>
</svg>
