<svg xmlns="http://www.w3.org/2000/svg" viewBox="0 0 24 24" fill="none">
  <rect x="2.5" y="8" width="15" height="12" rx="1.5" stroke="currentColor" stroke-width="1.5" stroke-linejoin="round"/>
  <path d="M17.5 8.5l2.75-3.75a1 1 0 0 1 1.62.15l.38.75a1 1 0 0 1-.25 1.2L17.5 10.5" stroke="currentColor" stroke-width="1.5" stroke-linecap="round" stroke-linejoin="round"/>
  <path d="M5.5 12.5c1.5-1.25 3.5-1.25 5 0 0 0-1 2-2.5 2s-2.5-2-2.5-2Z" stroke="currentColor" stroke-width="1.5" stroke-linejoin="round"/>
  <circle cx="7" cy="12.25" r="0.5" fill="currentColor"/>
  <path d="M12.5 13l1.5-1" stroke="currentColor" stroke-width="1.5" stroke-linecap="round"/>
  <path d="M5.5 16.5c1.5-1.25 3.5-1.25 5 0 0 0-1 2-2.5 2s-2.5-2-2.5-2Z" stroke="currentColor" stroke-width="1.5" stroke-linejoin="round"/>
  <circle cx="7" cy="16.25" r="0.5" fill="currentColor"/>
  <path d="M12.5 17l1.5-1" stroke="currentColor" stroke-width="1.5" stroke-linecap="round"/>
</svg>
