<svg xmlns="http://www.w3.org/2000/svg" viewBox="0 0 24 24" fill="none">
  <path d="M3 17.5l1.5-4h15l1.5 4" stroke="currentColor" stroke-width="1.5" stroke-linecap="round" stroke-linejoin="round"/>
  <path d="M6.5 13.5V8a1 1 0 0 1 1-1h9a1 1 0 0 1 1 1v5.5" stroke="currentColor" stroke-width="1.5" stroke-linejoin="round"/>
  <path d="M10 7V4.5h2V7" stroke="currentColor" stroke-width="1.5" stroke-linecap="round" stroke-linejoin="round"/>
  <path d="M9.5 10h5M9.5 12.5h5" stroke="currentColor" stroke-width="1.5" stroke-linecap="round"/>
  <path d="M2.5 20.5c1.5 0 2.25-1 3.5-1s2 1 3.5 1 2.25-1 3.5-1 2 1 3.5 1 2.25-1 3.5-1" stroke="currentColor" stroke-width="1.5" stroke-linecap="round" stroke-linejoin="round"/>
</svg>
