<svg xmlns="http://www.w3.org/2000/svg" viewBox="0 0 24 24" fill="none">
  <path d="M18.25 2.75l3 3" stroke="currentColor" stroke-width="1.5" stroke-linecap="round" stroke-linejoin="round"/>
  <path d="M15.5 5.5l3 3" stroke="currentColor" stroke-width="1.5" stroke-linecap="round" stroke-linejoin="round"/>
  <path d="M8.35 8.35l7.3 7.3a.5.5 0 0 0 .7 0l1.3-1.3a.5.5 0 0 0 0-.7l-7.3-7.3a.5.5 0 0 0-.7 0l-1.3 1.3a.5.5 0 0 0 0 .7Z" stroke="currentColor" stroke-width="1.5" stroke-linejoin="round"/>
  <path d="M6.7 16.3l-1.05 1.05a1 1 0 0 0 0 1.41l.59.59a1 1 0 0 0 1.41 0l1.05-1.05" stroke="currentColor" stroke-width="1.5" stroke-linecap="round" stroke-linejoin="round"/>
  <path d="M3 21l2-2" stroke="currentColor" stroke-width="1.5" stroke-linecap="round"/>
  <path d="M10.35 10.35l1.77 1.77M9.05 11.65l1.77 1.77" stroke="currentColor" stroke-width="1.5" stroke-linecap="round"/>
</svg>
