<svg xmlns="http://www.w3.org/2000/svg" viewBox="0 0 24 24" fill="none">
  <path d="M16.28 10.77a5.8 5.8 0 0 0-.25-.13 5.78 5.78 0 0 0-5.59-4.14C7.85 6.5 6 8.6 6 11.5v1c0 2.9 1.85 5 4.44 5a4.18 4.18 0 0 0 3.56-2c.67-1.1.67-2.5.02-3.6a3.13 3.13 0 0 0-2.77-1.54 2.55 2.55 0 0 0-2.25 1.3 2.25 2.25 0 0 0 .06 2.34c.43.65 1.14 1 1.94 1 .6 0 1.1-.22 1.5-.6" stroke="currentColor" stroke-width="1.5" stroke-linecap="round" stroke-linejoin="round"/>
  <path d="M16.28 10.77C17.31 11.37 18 12.6 18 14c0 2.49-2.04 5.5-6 5.5S6 18.5 6 15" stroke="currentColor" stroke-width="1.5" stroke-linecap="round" stroke-linejoin="round"/>
  <path d="M12 2.5c5.25 0 8.5 3.4 8.5 9.5s-3.25 9.5-8.5 9.5S3.5 18.1 3.5 12 6.75 2.5 12 2.5Z" stroke="currentColor" stroke-width="1.5" stroke-linecap="round" stroke-linejoin="round"/>
</svg>
