<svg xmlns="http://www.w3.org/2000/svg" viewBox="0 0 24 24" fill="none">
  <path d="M22 5.92a8.77 8.77 0 0 1-2.36.65 4.07 4.07 0 0 0 1.8-2.27 8.1 8.1 0 0 1-2.6 1 4.1 4.1 0 0 0-7.1 2.8c0 .33.04.64.1.94a11.65 11.65 0 0 1-8.45-4.29 4.1 4.1 0 0 0 1.27 5.48 4.07 4.07 0 0 1-1.86-.51v.05a4.11 4.11 0 0 0 3.3 4.03 4.07 4.07 0 0 1-1.86.07 4.11 4.11 0 0 0 3.83 2.85A8.23 8.23 0 0 1 2 18.34a11.6 11.6 0 0 0 6.29 1.84c7.55 0 11.68-6.26 11.68-11.68 0-.18 0-.35-.01-.53A8.36 8.36 0 0 0 22 5.92Z" stroke="currentColor" stroke-width="1.5" stroke-linecap="round" stroke-linejoin="round"/>
</svg>
