<svg xmlns="http://www.w3.org/2000/svg" viewBox="0 0 24 24" fill="none">
  <path d="M2.5 7.5c1.5 0 2.25-1.5 3.75-1.5S8.5 7.5 10 7.5s2.25-1.5 3.75-1.5S16 7.5 17.5 7.5 19.75 6 21.25 6" stroke="currentColor" stroke-width="1.5" stroke-linecap="round" stroke-linejoin="round"/>
  <path d="M2.5 12.5c1.5 0 2.25-1.5 3.75-1.5S8.5 12.5 10 12.5s2.25-1.5 3.75-1.5 2.25 1.5 3.75 1.5 2.25-1.5 3.75-1.5" stroke="currentColor" stroke-width="1.5" stroke-linecap="round" stroke-linejoin="round"/>
  <path d="M2.5 17.5c1.5 0 2.25-1.5 3.75-1.5S8.5 17.5 10 17.5s2.25-1.5 3.75-1.5 2.25 1.5 3.75 1.5 2.25-1.5 3.75-1.5" stroke="currentColor" stroke-width="1.5" stroke-linecap="round" stroke-linejoin="round"/>
</svg>
