<svg xmlns="http://www.w3.org/2000/svg" viewBox="0 0 24 24" fill="none">
  <path d="M7 9h10v10.5a2 2 0 0 1-2 2H9a2 2 0 0 1-2-2V9Z" stroke="currentColor" stroke-width="1.5" stroke-linejoin="round"/>
  <path d="M7 9h10V7H7v2Z" stroke="currentColor" stroke-width="1.5" stroke-linejoin="round"/>
  <path d="M9 7V5a1 1 0 0 1 1-1h4a1 1 0 0 1 1 1v2" stroke="currentColor" stroke-width="1.5" stroke-linecap="round" stroke-linejoin="round"/>
  <path d="M11 4V2.5" stroke="currentColor" stroke-width="1.5" stroke-linecap="round"/>
  <path d="M13 4V2.5" stroke="currentColor" stroke-width="1.5" stroke-linecap="round"/>
  <path d="M9.5 13h5" stroke="currentColor" stroke-width="1.5" stroke-linecap="round"/>
  <path d="M9.5 16h5" stroke="currentColor" stroke-width="1.5" stroke-linecap="round"/>
  <path d="M12 13v3" stroke="currentColor" stroke-width="1.5" stroke-linecap="round"/>
</svg>
