<svg xmlns="http://www.w3.org/2000/svg" viewBox="0 0 24 24" fill="none">
  <path d="M4 14.5c0 2 3.5 3.75 8 3.75s8-1.75 8-3.75c0-1-.5-1.75-1.5-2.25.5-1 .5-2-.25-2.75S16.5 8.5 15.5 8.5C15 7 13.5 6 12 6S9 7 8.5 8.5c-1 0-2 .25-2.75 1S5 11.25 5.5 12.25C4.5 12.75 4 13.5 4 14.5Z" stroke="currentColor" stroke-width="1.5" stroke-linejoin="miter" stroke-miterlimit="10"/>
  <path d="M4 14.5c0 1.5 2.5 2.75 6 3l2-1.75 2 1.75c3.5-.25 6-1.5 6-3" stroke="currentColor" stroke-width="1.5" stroke-linejoin="miter" stroke-miterlimit="10"/>
  <rect x="7.75" y="10.25" width="2.5" height="2.5" stroke="currentColor" stroke-width="1.5"/>
  <rect x="12.5" y="9.75" width="2" height="2" stroke="currentColor" stroke-width="1.5"/>
  <rect x="10" y="12.5" width="2" height="2" stroke="currentColor" stroke-width="1.5"/>
</svg>
