<svg xmlns="http://www.w3.org/2000/svg" viewBox="0 0 24 24" fill="none">
  <path d="M4.5 7V3l4.5 4h6l4.5-4v4a7.5 7.5 0 0 1-3 6v2.5c0 3-2.5 5-5.5 5s-5.5-2-5.5-5V13a7.5 7.5 0 0 1-3-6Z" stroke="currentColor" stroke-width="1.5" stroke-linejoin="miter" stroke-miterlimit="10"/>
  <rect x="8" y="9.5" width="2" height="2" stroke="currentColor" stroke-width="1.5"/>
  <rect x="14" y="9.5" width="2" height="2" stroke="currentColor" stroke-width="1.5"/>
  <path d="M12 13.5v1" stroke="currentColor" stroke-width="1.5"/>
  <path d="M10.5 15.5h3" stroke="currentColor" stroke-width="1.5"/>
  <path d="M2.5 11.5l3 .5M21.5 11.5l-3 .5M2.5 14l3-.5M21.5 14l-3-.5" stroke="currentColor" stroke-width="1.5"/>
</svg>
