<svg xmlns="http://www.w3.org/2000/svg" viewBox="0 0 24 24" fill="none">
  <path d="M7.5 13L12 12.5l4.5.5v4L14.5 20h-5L7.5 17v-4Z" stroke="currentColor" stroke-width="1.5" stroke-linejoin="miter" stroke-miterlimit="10"/>
  <path d="M10 16.5h.5M14 16.5h-.5" stroke="currentColor" stroke-width="1.5"/>
  <path d="M11.25 19h1.5" stroke="currentColor" stroke-width="1.5"/>
  <path d="M9.5 14.5L8.5 13 7 12.5" stroke="currentColor" stroke-width="1.5" stroke-linejoin="miter" stroke-miterlimit="10"/>
  <path d="M14.5 14.5l1-1.5 1.5-.5" stroke="currentColor" stroke-width="1.5" stroke-linejoin="miter" stroke-miterlimit="10"/>
  <path d="M7 12.5L6.5 10.5 5 9l.5-2L7 5.5 8.5 4l.5-1.5" stroke="currentColor" stroke-width="1.5" stroke-linejoin="miter" stroke-miterlimit="10"/>
  <path d="M17 12.5l.5-2L19 9l-.5-2L17 5.5 15.5 4 15 2.5" stroke="currentColor" stroke-width="1.5" stroke-linejoin="miter" stroke-miterlimit="10"/>
</svg>
