<svg xmlns="http://www.w3.org/2000/svg" viewBox="0 0 24 24" fill="none">
  <path d="M4.5 11.5c0-3.5 2-6.5 5-7.5l1-2h3l1 2c3 1 5 4 5 7.5v1c0 1-.25 2-.75 2.75L17 17l-.5 2.5h-3l-.5-2-.5 2h-3L7 17l-1.75-2.75c-.5-.75-.75-1.75-.75-2.75v-1Z" stroke="currentColor" stroke-width="1.5" stroke-linejoin="miter" stroke-miterlimit="10"/>
  <rect x="8.5" y="9" width="2" height="2" stroke="currentColor" stroke-width="1.5"/>
  <rect x="13.5" y="9" width="2" height="2" stroke="currentColor" stroke-width="1.5"/>
  <rect x="10" y="13" width="4" height="2.5" stroke="currentColor" stroke-width="1.5"/>
  <path d="M12 15.5v1.5" stroke="currentColor" stroke-width="1.5"/>
  <path d="M4.5 6L3 4.5M19.5 6L21 4.5" stroke="currentColor" stroke-width="1.5"/>
</svg>
