<svg xmlns="http://www.w3.org/2000/svg" viewBox="0 0 24 24" fill="none">
  <path d="M8 13V5.5a1.5 1.5 0 0 1 3 0V11" stroke="currentColor" stroke-width="1.5" stroke-linejoin="miter" stroke-miterlimit="10"/>
  <path d="M11 5.5v-2a1.5 1.5 0 0 1 3 0V11" stroke="currentColor" stroke-width="1.5" stroke-linejoin="miter" stroke-miterlimit="10"/>
  <path d="M14 5.5a1.5 1.5 0 0 1 3 0V11" stroke="currentColor" stroke-width="1.5" stroke-linejoin="miter" stroke-miterlimit="10"/>
  <path d="M17 7.5a1.5 1.5 0 0 1 3 0v5a8 8 0 0 1-8 8h-1a8 8 0 0 1-6.73-3.67l-1.77-2.76a1.5 1.5 0 0 1 2.14-2l1.86 1.43V5.5a1.5 1.5 0 0 1 3 0" stroke="currentColor" stroke-width="1.5" stroke-linejoin="miter" stroke-miterlimit="10"/>
</svg>
