<svg xmlns="http://www.w3.org/2000/svg" viewBox="0 0 24 24" fill="none">
  <path d="M12 2.5L8.5 4 5 3.5 3.5 6.5l.5 3.5-1.5 3 1.5 3 2.5 2.5L9 20l3 2 3-2 2.5-1.5 2.5-2.5 1.5-3-1.5-3 .5-3.5L17 3.5 13.5 4 12 2.5Z" stroke="currentColor" stroke-width="1.5" stroke-linejoin="miter" stroke-miterlimit="10"/>
  <path d="M8 9.5h8v3c0 2.5-1.75 4-4 4s-4-1.5-4-4v-3Z" stroke="currentColor" stroke-width="1.5" stroke-linejoin="miter" stroke-miterlimit="10"/>
  <rect x="9.25" y="10.25" width="1.5" height="1.5" fill="currentColor"/>
  <rect x="13.25" y="10.25" width="1.5" height="1.5" fill="currentColor"/>
  <path d="M10.75 14h2.5" stroke="currentColor" stroke-width="1.5"/>
  <path d="M12 12.5v1.5" stroke="currentColor" stroke-width="1.5"/>
</svg>
