<svg xmlns="http://www.w3.org/2000/svg" viewBox="0 0 24 24" fill="none">
  <path d="M10.5 2h3v2.1a7 7 0 0 1 2.75 1.15l1.5-1.5 2.12 2.12-1.5 1.5A7 7 0 0 1 19.52 10H21.5v3h-1.98a7 7 0 0 1-1.15 2.63l1.5 1.5-2.12 2.12-1.5-1.5a7 7 0 0 1-2.75 1.15V22h-3v-2.1a7 7 0 0 1-2.75-1.15l-1.5 1.5-2.12-2.12 1.5-1.5A7 7 0 0 1 4.48 14H2.5v-3h1.98a7 7 0 0 1 1.15-2.63l-1.5-1.5 2.12-2.12 1.5 1.5A7 7 0 0 1 10.5 4.1V2Z" stroke="currentColor" stroke-width="1.5" stroke-linejoin="miter" stroke-miterlimit="10"/>
  <rect x="9.5" y="9.5" width="5" height="5" stroke="currentColor" stroke-width="1.5" stroke-linejoin="miter" stroke-miterlimit="10"/>
</svg>
