<svg xmlns="http://www.w3.org/2000/svg" viewBox="0 0 24 24" fill="none">
  <path d="M14.5 3a1.5 1.5 0 0 1 0 3h-1.5V4.5A1.5 1.5 0 0 1 14.5 3Z" stroke="currentColor" stroke-width="1.5" stroke-linejoin="miter" stroke-miterlimit="10"/>
  <path d="M14.5 8h4.5a1.5 1.5 0 0 1 0 3h-4.5" stroke="currentColor" stroke-width="1.5" stroke-linejoin="miter" stroke-miterlimit="10"/>
  <path d="M21 14.5a1.5 1.5 0 0 1-3 0V13h1.5a1.5 1.5 0 0 1 1.5 1.5Z" stroke="currentColor" stroke-width="1.5" stroke-linejoin="miter" stroke-miterlimit="10"/>
  <path d="M16 14.5V19a1.5 1.5 0 0 1-3 0v-4.5" stroke="currentColor" stroke-width="1.5" stroke-linejoin="miter" stroke-miterlimit="10"/>
  <path d="M9.5 21a1.5 1.5 0 0 1 0-3H11v1.5A1.5 1.5 0 0 1 9.5 21Z" stroke="currentColor" stroke-width="1.5" stroke-linejoin="miter" stroke-miterlimit="10"/>
  <path d="M9.5 16H5a1.5 1.5 0 0 1 0-3h4.5" stroke="currentColor" stroke-width="1.5" stroke-linejoin="miter" stroke-miterlimit="10"/>
  <path d="M3 9.5a1.5 1.5 0 0 1 3 0V11H4.5A1.5 1.5 0 0 1 3 9.5Z" stroke="currentColor" stroke-width="1.5" stroke-linejoin="miter" stroke-miterlimit="10"/>
  <path d="M8 9.5V5a1.5 1.5 0 0 1 3 0v4.5" stroke="currentColor" stroke-width="1.5" stroke-linejoin="miter" stroke-miterlimit="10"/>
  <rect x="8" y="8" width="8" height="8" stroke="currentColor" stroke-width="1.5" stroke-linejoin="miter" stroke-miterlimit="10"/>
</svg>
