<svg xmlns="http://www.w3.org/2000/svg" viewBox="0 0 24 24" fill="none">
  <rect x="3.5" y="2.5" width="17" height="19" stroke="currentColor" stroke-width="1.5" stroke-linejoin="miter" stroke-miterlimit="10"/>
  <path d="M16 10.5c-.8-.6-1.9-1-3.5-1-2.2 0-3.5 1.5-3.5 3.5s1.3 3.5 3.5 3.5c1.3 0 2.2-.7 2.7-1.5.4-.7.4-1.5 0-2.2-.3-.5-.9-.8-1.7-.8-.5 0-.9.2-1.2.5-.2.3-.2.7 0 1 .2.3.5.5.9.5.3 0 .5-.1.7-.3" stroke="currentColor" stroke-width="1.5" stroke-linejoin="miter" stroke-miterlimit="10"/>
  <path d="M16 10.5c.9.5 1.5 1.5 1.5 3 0 2-1.5 4-5.5 4S6.5 17 6.5 14.5" stroke="currentColor" stroke-width="1.5" stroke-linejoin="miter" stroke-miterlimit="10"/>
</svg>
