<svg xmlns="http://www.w3.org/2000/svg" viewBox="0 0 24 24" fill="none">
  <path d="M3 10.5L4.5 8.5L7.5 7.5L10 8.5L12.5 8.5L15 7.5L17.5 8L18.5 9.5L18 11.5L17 13L17.5 14.5L17 16L14.5 17L11.5 17L9 16L6.5 15.5L4 16L3.5 14.5L4 13L4.5 11.5L3.5 10.5L3 10.5Z" stroke="currentColor" stroke-width="1.5" stroke-linejoin="miter" stroke-miterlimit="10"/>
  <path d="M16 4.5L17.5 4L18.5 5L18.5 6L17.5 6.5L16.5 6L16 5L16 4.5Z" stroke="currentColor" stroke-width="1.5" stroke-linejoin="miter" stroke-miterlimit="10"/>
</svg>
